<svg width="280" height="220" fill="none" xmlns="http://www.w3.org/2000/svg"><g filter="url(#filter0_d)"><rect x="20" y="14" width="240" height="180" rx="8" fill="#fff"/><rect x="44.332" y="38.332" width="189.335" height="98.335" rx="1.468" stroke="#81919D" stroke-width=".665"/><rect x="44.3" y="156.2" width="102.6" height="5.4" rx="2.7" fill="#ECF0F4"/><rect x="44.3" y="167" width="77.777" height="5.4" rx="2.7" fill="#ECF0F4"/><rect x="171.1" y="150.8" width="62.1" height="27" rx="2.475" fill="#fff" stroke="#0777CF" stroke-width="1.856"/><path d="M197.061 168.4l-.794-2.208h-3.04l-.778 2.208h-1.37l2.974-7.983h1.414l2.975 7.983h-1.381zm-1.137-3.328l-.745-2.165a16.635 16.635 0 01-.424-1.37c-.098.446-.241.933-.43 1.463l-.717 2.072h2.316zm5.46 3.437c-.75 0-1.336-.272-1.756-.816-.421-.544-.631-1.307-.631-2.29 0-.986.212-1.752.636-2.3.428-.551 1.019-.827 1.773-.827.79 0 1.392.292 1.805.876h.066a7.608 7.608 0 01-.093-1.022v-2.192h1.284v8.462h-1.001l-.223-.789h-.06c-.409.599-1.009.898-1.8.898zm.343-1.034c.525 0 .908-.146 1.147-.44.24-.297.363-.778.37-1.441v-.18c0-.757-.123-1.296-.37-1.615-.246-.319-.632-.478-1.158-.478-.45 0-.796.183-1.039.549-.243.362-.364.881-.364 1.555 0 .667.118 1.177.353 1.528.236.348.589.522 1.061.522zm6.596 1.034c-.75 0-1.336-.272-1.756-.816-.421-.544-.631-1.307-.631-2.29 0-.986.212-1.752.636-2.3.428-.551 1.019-.827 1.773-.827.79 0 1.392.292 1.806.876h.065a7.608 7.608 0 01-.093-1.022v-2.192h1.284v8.462h-1.001l-.223-.789h-.06c-.409.599-1.009.898-1.8.898zm.343-1.034c.526 0 .908-.146 1.147-.44.24-.297.363-.778.37-1.441v-.18c0-.757-.123-1.296-.37-1.615-.246-.319-.632-.478-1.158-.478-.449 0-.796.183-1.039.549-.242.362-.364.881-.364 1.555 0 .667.118 1.177.354 1.528.235.348.589.522 1.06.522z" fill="#2C2C2C"/><path d="M106.435 89.684s22.809-9.513 29.541-21.363c6.733-11.85 2.087-15.79-3.473-13.198-5.561 2.59-10.281 15.031-15.667 31.709-5.387 16.677-14.901 28.573-25.662 31.856-10.76 3.282-17.962-3.989-9.447-17.479 8.516-13.489 28.237-17.848 38.412-14.526 10.175 3.321-.68 17.852-2.435 18.028-1.754.176 3.279-7.475 9.476-11.736 6.197-4.262 5.679 1.116 4.688 3.543-.99 2.426-3.222 6.261.027 2.886 3.25-3.376 9.333-12.165 9.439-8.093.107 4.072-5.152 11.34 1.01 8.626 6.163-2.713 13.194-10.686 13.194-10.686s-1.556 2.07-2.537 4.473c-1.53 3.75 1.362 3.72 1.362 3.72" stroke="#100419" stroke-width="2" stroke-linecap="round" stroke-linejoin="round"/><path d="M181.673 60.888c-7.275 10-13.869 26.457-17.052 34.134-3.941 9.506-4.958 16.38-13.278 13.665-8.319-2.716-12.559-9.5-1.93-19.8 10.629-10.299 26.886-11.266 31.577-12 4.691-.735 1.688-.445-2.024 4.96-3.712 5.404-12.674 20.25-4.665 18.593 8.009-1.656 21.346-14.532 22.343-12.822" stroke="#100419" stroke-width="2" stroke-linecap="round" stroke-linejoin="round"/></g><defs><filter id="filter0_d" x="0" y="0" width="280" height="220" filterUnits="userSpaceOnUse" color-interpolation-filters="sRGB"><feFlood flood-opacity="0" result="BackgroundImageFix"/><feColorMatrix in="SourceAlpha" values="0 0 0 0 0 0 0 0 0 0 0 0 0 0 0 0 0 0 127 0" result="hardAlpha"/><feOffset dy="6"/><feGaussianBlur stdDeviation="10"/><feColorMatrix values="0 0 0 0 0 0 0 0 0 0 0 0 0 0 0 0 0 0 0.08 0"/><feBlend in2="BackgroundImageFix" result="effect1_dropShadow"/><feBlend in="SourceGraphic" in2="effect1_dropShadow" result="shape"/></filter></defs></svg>