<svg width="280" height="230" fill="none" xmlns="http://www.w3.org/2000/svg"><g filter="url(#filter0_d)"><rect x="20" y="14" width="240" height="190" rx="8" fill="#171D25"/><path d="M20 19.826A5.826 5.826 0 0125.826 14h228.348A5.826 5.826 0 01260 19.826V42H20V19.826z" fill="#232A34"/><path d="M40.533 32.1c-1.732 0-2.599-.951-2.599-2.853 0-.946.236-1.667.707-2.165.472-.501 1.147-.752 2.026-.752.644 0 1.222.126 1.733.379l-.448 1.174a7.063 7.063 0 00-.667-.234 2.096 2.096 0 00-.618-.094c-.79 0-1.184.56-1.184 1.682 0 1.089.395 1.633 1.184 1.633.292 0 .563-.038.812-.114a2.99 2.99 0 00.746-.369v1.3a2.444 2.444 0 01-.746.323c-.25.06-.564.09-.946.09zm9.03-7.378v4.71c0 .537-.121 1.008-.364 1.413a2.333 2.333 0 01-1.04.931c-.454.216-.992.324-1.613.324-.935 0-1.662-.24-2.18-.717-.518-.482-.777-1.139-.777-1.971v-4.69h1.539v4.455c0 .561.112.973.338 1.235.226.262.6.393 1.12.393.505 0 .87-.13 1.095-.393.23-.265.344-.68.344-1.244v-4.446h1.538zm3.325 3.231h.498c.488 0 .848-.081 1.08-.244.233-.163.349-.418.349-.767 0-.345-.12-.59-.359-.736-.235-.146-.602-.22-1.1-.22h-.468v1.967zm0 1.254V32h-1.543v-7.278h2.12c.99 0 1.721.181 2.196.543.474.358.712.904.712 1.638 0 .428-.118.81-.354 1.145-.235.331-.569.592-1 .781A296.752 296.752 0 0057.159 32h-1.712l-1.738-2.793h-.82zM58.075 32v-7.278h1.543v6.004h2.952V32h-4.495zm10.715-1.533l2.185-3.641h-4.37l2.185 3.64z" fill="#fff"/><path d="M37.826 63.857h1.45V59.6l-1.349.334v-1.169l1.358-.325h1.253v5.418h1.45V65h-4.162v-1.143zm1.081 15h2.764V80h-4.166v-1.107l.703-.748a88.356 88.356 0 001.521-1.639c.22-.252.378-.474.475-.668.096-.196.145-.39.145-.58 0-.293-.09-.518-.268-.676-.176-.162-.427-.242-.752-.242-.231 0-.492.047-.782.14a4.924 4.924 0 00-.901.4v-1.208c.313-.114.62-.2.919-.26.301-.06.59-.092.865-.092.694 0 1.24.163 1.635.488.398.322.598.763.598 1.323 0 .258-.044.5-.132.725a3.045 3.045 0 01-.444.751c-.155.2-.582.648-1.279 1.345-.378.378-.678.68-.9.905zm.506 13.207h-.695v-1.142h.695c.322 0 .57-.063.747-.19a.628.628 0 00.268-.54.67.67 0 00-.268-.566c-.176-.138-.425-.207-.747-.207-.246 0-.51.03-.791.092a5.977 5.977 0 00-.875.268v-1.177c.302-.091.6-.16.892-.207.293-.05.574-.075.844-.075.691 0 1.23.151 1.617.453.387.302.58.718.58 1.248 0 .39-.111.709-.334.958-.222.246-.54.407-.953.483.468.082.826.27 1.072.563.246.29.369.672.369 1.147 0 .636-.204 1.12-.61 1.454-.408.334-1 .501-1.776.501-.331 0-.658-.027-.98-.083a5.48 5.48 0 01-.919-.242v-1.204c.276.138.573.243.892.317.32.07.655.105 1.007.105.351 0 .63-.08.835-.242a.8.8 0 00.307-.659c0-.337-.102-.596-.307-.778-.205-.184-.495-.276-.87-.276zm.637 27.816l-1.657 2.593h1.657v-2.593zm-.114-1.441h1.358v4.034h.72v1.112h-.72V125H40.05v-1.415h-2.602v-1.257l2.487-3.889zm-2.088 30h3.564v1.143h-2.514v1.217a1.59 1.59 0 01.339-.088 2.22 2.22 0 01.382-.031c.65 0 1.178.205 1.582.615.404.411.607.944.607 1.6 0 .688-.22 1.233-.66 1.635-.436.398-1.032.597-1.788.597a5.27 5.27 0 01-.853-.07 6.344 6.344 0 01-.879-.211v-1.169c.244.12.493.211.748.273.257.058.515.088.773.088.457 0 .804-.097 1.041-.29.238-.197.356-.481.356-.853 0-.343-.118-.617-.356-.822-.234-.208-.547-.312-.94-.312-.231 0-.464.03-.699.088a3.557 3.557 0 00-.703.255v-3.665zm1.978 18.274c-.282 0-.497.102-.646.308-.147.202-.22.496-.22.883 0 .384.073.678.22.883.15.202.364.303.646.303.28 0 .496-.101.646-.303.152-.205.228-.499.228-.883s-.076-.678-.228-.883c-.15-.206-.365-.308-.646-.308zm1.7-3.12v1.178a3.285 3.285 0 00-.668-.295 2.016 2.016 0 00-.61-.101c-.47 0-.827.158-1.073.475-.243.313-.37.777-.382 1.393.138-.191.313-.333.527-.427.214-.096.466-.145.756-.145.592 0 1.049.188 1.371.563.322.372.484.901.484 1.586 0 .736-.182 1.305-.545 1.71-.36.404-.869.606-1.525.606-.8 0-1.381-.268-1.745-.804-.36-.536-.54-1.402-.54-2.597 0-1.137.22-1.988.663-2.553.443-.569 1.106-.853 1.991-.853.205 0 .416.022.633.066.22.044.44.11.663.198z" fill="#667988"/><path d="M58.77 64.75c-.217.126-.45.22-.699.28a3.204 3.204 0 01-.804.097c-.759 0-1.352-.228-1.78-.685-.427-.457-.641-1.09-.641-1.898 0-.812.215-1.446.646-1.903.43-.46 1.025-.69 1.784-.69a3.083 3.083 0 011.494.378v1.177a2.059 2.059 0 00-.62-.369 1.874 1.874 0 00-.694-.132c-.419 0-.741.134-.967.4-.225.267-.338.646-.338 1.139 0 .492.113.87.338 1.133.226.264.548.396.967.396.25 0 .482-.041.699-.123.217-.085.422-.213.615-.383v1.182zm1.463-1.468v-3.204h1.288v3.006c0 .354.05.608.15.76.099.153.264.229.496.229a.606.606 0 00.54-.308c.132-.205.198-.492.198-.861v-2.826h1.288V65h-1.288v-.73c-.09.273-.246.484-.465.633a1.35 1.35 0 01-.787.224c-.469 0-.823-.155-1.064-.465-.237-.31-.356-.77-.356-1.38zm9.778-1.846a1.378 1.378 0 00-.496-.29 1.894 1.894 0 00-.62-.097c-.272 0-.511.049-.716.145a1.06 1.06 0 00-.47.413 1.14 1.14 0 00-.15.405 4.81 4.81 0 00-.04.72V65h-1.287v-4.922h1.287v.765c.126-.282.32-.498.58-.65.261-.156.566-.233.915-.233.175 0 .347.021.514.065.17.041.33.103.483.185v1.226zm2.066 1.512V59.15h-1.305v-.989h2.592v4.786c0 .386.06.66.18.822.12.16.324.241.611.241h1.029V65h-1.39c-.611 0-1.05-.158-1.317-.475-.267-.316-.4-.842-.4-1.577zM69.66 76.805V80h-1.28v-2.997c0-.355-.05-.608-.153-.76-.1-.153-.264-.229-.492-.229a.618.618 0 00-.55.312c-.131.205-.197.49-.197.857V80h-1.279v-6.838h1.279v2.654a1.19 1.19 0 01.466-.632c.22-.15.485-.224.795-.224.466 0 .817.155 1.055.465.237.308.356.768.356 1.38zm3.748-3.124v1.397h1.683v.989h-1.683v2.329c0 .22.053.378.158.475.109.093.287.14.537.14h.988V80h-1.08c-.739 0-1.239-.117-1.5-.352-.26-.237-.39-.675-.39-1.313v-2.268h-1.257v-.989h1.257v-1.397h1.287zm5.423 0v1.397h1.683v.989h-1.683v2.329c0 .22.053.378.158.475.109.093.287.14.536.14h.99V80h-1.082c-.738 0-1.238-.117-1.498-.352-.261-.237-.392-.675-.392-1.313v-2.268h-1.256v-.989h1.256v-1.397h1.288zm4.333 5.625v2.566h-1.283v-6.794h1.283v.738c.135-.284.312-.498.532-.641.22-.144.477-.215.773-.215.563 0 1 .225 1.31.676.31.451.466 1.087.466 1.907 0 .832-.159 1.471-.475 1.916-.313.446-.762.668-1.345.668-.263 0-.5-.067-.712-.202a1.794 1.794 0 01-.549-.62zm1.793-1.771c0-.475-.08-.847-.237-1.117-.159-.27-.377-.404-.655-.404s-.498.135-.66.404c-.16.27-.24.642-.24 1.117 0 .474.08.846.24 1.116.162.27.382.404.66.404s.496-.135.655-.404c.158-.27.237-.642.237-1.116zM91 75.232v1.125a2.881 2.881 0 00-.743-.343 2.581 2.581 0 00-.77-.118c-.286 0-.503.042-.65.127a.398.398 0 00-.22.37c0 .233.314.424.941.57l.048.014.37.087c.468.112.811.292 1.028.541.22.246.33.58.33 1.002 0 .507-.168.888-.502 1.142-.33.252-.83.378-1.498.378a5.4 5.4 0 01-.91-.079 6.402 6.402 0 01-.945-.228v-1.125c.285.161.573.284.866.369.296.085.582.127.857.127.302 0 .53-.044.686-.131a.417.417 0 00.233-.383.453.453 0 00-.167-.378c-.109-.088-.37-.181-.783-.28l-.356-.08c-.492-.111-.85-.286-1.076-.523-.226-.237-.339-.555-.339-.954 0-.474.172-.843.515-1.107.342-.264.824-.395 1.445-.395.279 0 .555.023.83.07.28.044.549.111.81.202zm3.04.097h1.464v1.604H94.04v-1.604zm0 3.058h1.464V80H94.04v-1.613zm7.401-4.948h.971l-3.454 7.396h-.971l3.454-7.396zm5.423 0h.971l-3.454 7.396h-.971l3.454-7.396zm4.548 4.25c-.48 0-.816.061-1.006.184-.191.123-.286.334-.286.633 0 .222.066.4.198.532.132.131.31.197.536.197.34 0 .604-.127.791-.382.188-.258.281-.617.281-1.077v-.087h-.514zm1.793-.497V80h-1.279v-.55a1.549 1.549 0 01-.597.502 1.835 1.835 0 01-.805.175c-.559 0-.996-.147-1.309-.443-.311-.296-.466-.71-.466-1.24 0-.574.186-.997.558-1.27.372-.275.948-.413 1.727-.413h.892v-.215c0-.208-.076-.365-.228-.47-.15-.109-.371-.163-.664-.163-.307 0-.606.04-.896.119a4.102 4.102 0 00-.901.369v-1.099a4.44 4.44 0 01.866-.259c.293-.056.603-.084.931-.084.8 0 1.361.163 1.683.488.325.325.488.907.488 1.745zm2.496 2.114v2.566h-1.283v-6.794h1.283v.738c.135-.284.312-.498.532-.641a1.38 1.38 0 01.773-.215c.563 0 .999.225 1.31.676.31.451.466 1.087.466 1.907 0 .832-.158 1.471-.475 1.916-.313.446-.762.668-1.345.668-.263 0-.501-.067-.712-.202a1.792 1.792 0 01-.549-.62zm1.793-1.771c0-.475-.079-.847-.237-1.117-.158-.27-.377-.404-.655-.404s-.498.135-.659.404c-.161.27-.242.642-.242 1.117 0 .474.081.846.242 1.116.161.27.381.404.659.404s.497-.135.655-.404c.158-.27.237-.642.237-1.116zm2.659-2.457h2.549v3.933h1.599V80h-4.491v-.989h1.604v-2.944h-1.261v-.989zm1.261-2.395h1.288v1.503h-1.288v-1.503zm3.639 4.135h4.658v1.183h-4.658v-1.183zm9.817 2.94a4.896 4.896 0 01-1.898.37c-.824 0-1.453-.22-1.89-.66-.434-.442-.65-1.078-.65-1.907 0-.803.209-1.437.628-1.903.419-.466.99-.698 1.714-.698.729 0 1.295.216 1.696.65.405.43.607 1.038.607 1.824v.523h-3.336c.003.386.117.675.343.865.226.19.562.286 1.011.286.296 0 .587-.043.874-.127.287-.085.588-.22.901-.405v1.182zm-1.09-2.768c-.006-.34-.093-.596-.263-.77-.167-.175-.415-.263-.743-.263-.296 0-.532.09-.708.273-.175.178-.279.433-.312.764l2.026-.004zm6.737-1.912L138.953 80h-1.587l-1.564-4.922h1.305l1.05 3.84 1.055-3.84h1.305zm3.432 2.61c-.48 0-.816.062-1.006.185-.191.123-.286.334-.286.633 0 .222.066.4.198.532.132.131.311.197.536.197.34 0 .604-.127.791-.382.188-.258.281-.617.281-1.077v-.087h-.514zm1.793-.496V80h-1.279v-.55a1.549 1.549 0 01-.597.502 1.83 1.83 0 01-.804.175c-.56 0-.997-.147-1.31-.443-.311-.296-.466-.71-.466-1.24 0-.574.186-.997.558-1.27.372-.275.948-.413 1.727-.413h.892v-.215c0-.208-.076-.365-.228-.47-.15-.109-.371-.163-.664-.163-.307 0-.606.04-.896.119a4.102 4.102 0 00-.901.369v-1.099a4.44 4.44 0 01.866-.259c.293-.056.603-.084.931-.084.8 0 1.361.163 1.683.488.326.325.488.907.488 1.745zm2.255.756V74.15h-1.306v-.989h2.593v4.786c0 .387.06.66.18.822.12.16.324.241.611.241h1.029V80h-1.389c-.612 0-1.052-.158-1.319-.475-.266-.316-.399-.842-.399-1.577zm5.695.44h1.463V80h-1.463v-1.613zm7.805-3.156v1.125a2.891 2.891 0 00-1.512-.462c-.287 0-.504.043-.651.128a.398.398 0 00-.219.37c0 .233.313.424.94.57l.049.014.369.087c.468.112.811.292 1.028.541.22.246.33.58.33 1.002 0 .507-.167.888-.501 1.142-.331.252-.831.378-1.499.378a5.43 5.43 0 01-.91-.079 6.399 6.399 0 01-.944-.228v-1.125c.284.161.572.284.865.369.296.085.582.127.857.127.302 0 .53-.044.686-.131a.418.418 0 00.233-.383.454.454 0 00-.167-.378c-.109-.088-.369-.181-.783-.28l-.356-.08c-.492-.111-.851-.286-1.076-.523-.226-.237-.339-.555-.339-.954 0-.474.172-.843.515-1.107.342-.264.824-.395 1.445-.395.279 0 .556.023.831.07.278.044.548.111.809.202zm2.039-.154h2.548v3.933h1.6V80h-4.491v-.989h1.604v-2.944h-1.261v-.989zm1.261-2.395h1.287v1.503h-1.287v-1.503zm6.719 4.777c0-.44-.083-.791-.25-1.055-.167-.266-.387-.4-.66-.4-.269 0-.487.132-.654.396-.164.264-.246.617-.246 1.059 0 .445.082.8.246 1.063.167.264.385.396.654.396.273 0 .493-.132.66-.396.167-.266.25-.62.25-1.063zm1.288 2.17c0 .789-.179 1.357-.536 1.706-.355.352-.932.527-1.732.527a5.573 5.573 0 01-1.604-.242V80.44c.243.135.491.235.743.3.252.064.511.096.778.096.363 0 .631-.086.804-.26.173-.17.259-.436.259-.8v-.53a1.254 1.254 0 01-.501.522 1.559 1.559 0 01-.76.172c-.563 0-1.009-.22-1.34-.66-.332-.44-.497-1.035-.497-1.788 0-.78.165-1.398.497-1.855.331-.457.774-.685 1.331-.685.281 0 .532.066.752.197.219.132.392.318.518.559v-.629h1.288v4.553zm5.313-2.825V80h-1.279v-2.997c0-.358-.051-.612-.154-.765-.1-.155-.264-.233-.492-.233a.623.623 0 00-.549.312c-.132.208-.198.497-.198.866V80h-1.279v-4.922h1.279v.738c.091-.272.246-.483.466-.632.219-.15.485-.224.795-.224.466 0 .817.155 1.055.465.237.308.356.768.356 1.38zm5.423 0V80h-1.279v-2.997c0-.358-.052-.612-.154-.765-.1-.155-.264-.233-.492-.233a.625.625 0 00-.55.312c-.131.208-.197.497-.197.866V80h-1.279v-4.922h1.279v.738c.09-.272.246-.483.465-.632.22-.15.485-.224.796-.224.466 0 .817.155 1.055.465.237.308.356.768.356 1.38zm3.423-.8c-.308 0-.549.137-.725.41-.176.269-.264.645-.264 1.128 0 .484.088.862.264 1.134.176.27.417.404.725.404.31 0 .554-.134.729-.404.176-.272.264-.65.264-1.134 0-.483-.088-.86-.264-1.129a.823.823 0 00-.729-.409zm-2.276 1.538c0-.794.205-1.422.615-1.885.413-.466.967-.698 1.661-.698.697 0 1.251.232 1.661.698.413.463.62 1.091.62 1.885s-.207 1.424-.62 1.89c-.41.463-.964.694-1.661.694-.694 0-1.248-.231-1.661-.694-.41-.466-.615-1.096-.615-1.89zm4.992-2.465h1.072l.584 3.77.532-2.482h1.042l.523 2.483.593-3.77h1.072L194.205 80h-1.222l-.597-2.558-.594 2.558h-1.221l-.892-4.922zm7.396 3.31h1.463V80h-1.463v-1.613zm8.112 1.361c-.217.127-.45.22-.699.282a3.203 3.203 0 01-.804.096c-.759 0-1.352-.228-1.78-.685-.427-.457-.641-1.09-.641-1.898 0-.812.215-1.446.646-1.903.43-.46 1.025-.69 1.784-.69a3.08 3.08 0 011.494.378v1.177a2.05 2.05 0 00-.62-.369 1.87 1.87 0 00-.694-.132c-.419 0-.741.134-.967.4-.225.267-.338.646-.338 1.138 0 .493.113.87.338 1.134.226.264.548.396.967.396.249 0 .482-.041.699-.123.217-.085.422-.213.615-.383v1.183zm3.467-3.744c-.307 0-.549.137-.725.41-.176.269-.263.645-.263 1.128 0 .484.087.862.263 1.134.176.27.418.404.725.404a.827.827 0 00.73-.404c.176-.272.263-.65.263-1.134 0-.483-.087-.86-.263-1.129-.176-.272-.419-.409-.73-.409zm-2.276 1.538c0-.794.205-1.422.615-1.885.413-.466.967-.698 1.661-.698.698 0 1.251.232 1.661.698.414.463.62 1.091.62 1.885s-.206 1.424-.62 1.89c-.41.463-.963.694-1.661.694-.694 0-1.248-.231-1.661-.694-.41-.466-.615-1.096-.615-1.89zm8.024-1.973a1.09 1.09 0 01.369-.461c.15-.1.333-.15.55-.15.425 0 .718.147.879.44.164.293.246.902.246 1.828V80h-1.055v-3.16c0-.366-.028-.61-.083-.734-.056-.123-.157-.184-.304-.184-.146 0-.249.063-.307.189-.059.126-.088.369-.088.73V80h-1.042v-3.16c0-.36-.029-.603-.088-.73-.058-.125-.161-.188-.307-.188-.147 0-.248.061-.303.184-.056.124-.084.368-.084.734V80h-1.055v-4.922h.937v.51a.946.946 0 01.351-.457.912.912 0 01.541-.171c.199 0 .38.06.545.18.164.117.263.26.298.43zm6.342-2.131h.971l-3.454 7.396h-.971l3.454-7.396zm2.175 4.843v-3.204h1.288v3.006c0 .355.049.608.149.76.1.153.265.229.497.229a.606.606 0 00.54-.308c.132-.205.198-.492.198-.861v-2.826h1.287V80h-1.287v-.73a1.197 1.197 0 01-.466.633c-.217.15-.479.224-.787.224-.468 0-.823-.155-1.063-.465-.237-.31-.356-.77-.356-1.38zm9.075-3.05v1.125a2.891 2.891 0 00-1.512-.462c-.287 0-.504.043-.65.128a.397.397 0 00-.22.37c0 .233.313.424.94.57l.049.014.369.087c.468.112.811.292 1.028.541.22.246.33.58.33 1.002 0 .507-.167.888-.501 1.142-.331.252-.831.378-1.499.378a5.43 5.43 0 01-.91-.079 6.399 6.399 0 01-.944-.228v-1.125c.284.161.572.284.865.369.296.085.582.127.857.127.302 0 .531-.044.686-.131a.418.418 0 00.233-.383.454.454 0 00-.167-.378c-.109-.088-.369-.181-.782-.28l-.356-.08c-.493-.111-.852-.286-1.077-.523-.226-.237-.338-.555-.338-.954 0-.474.171-.843.514-1.107.342-.264.824-.395 1.445-.395.279 0 .556.023.831.07.278.044.548.111.809.202zm5.91 4.526a4.896 4.896 0 01-1.898.37c-.823 0-1.453-.22-1.89-.66-.433-.442-.65-1.078-.65-1.907 0-.803.209-1.437.628-1.903.419-.466.99-.698 1.714-.698.73 0 1.295.216 1.696.65.405.43.607 1.038.607 1.824v.523h-3.336c.003.386.118.675.343.865.226.19.563.286 1.011.286.296 0 .587-.043.874-.127.288-.085.588-.22.901-.405v1.182zm-1.09-2.768c-.005-.34-.093-.596-.263-.77-.167-.175-.415-.263-.743-.263-.296 0-.532.09-.707.273-.176.178-.28.433-.312.764l2.025-.004zm6.728-.554a1.375 1.375 0 00-.496-.29 1.897 1.897 0 00-.62-.097c-.272 0-.511.049-.716.145a1.06 1.06 0 00-.47.413 1.14 1.14 0 00-.15.405 4.851 4.851 0 00-.039.72V80h-1.288v-4.922h1.288v.765c.126-.282.319-.498.58-.65.261-.156.565-.233.914-.233.176 0 .347.021.514.065.17.041.331.103.483.185v1.226zM55.575 88.439l3.454 7.396h-.98l-3.454-7.396h.98z" fill="#5DB6FF"/><path d="M81.67 61.818h4.658v1.183H81.67v-1.183zM91.944 65h-1.34l-1.252-2.17L88.103 65h-1.34l1.925-3.331-1.872-3.23h1.34l1.196 2.087 1.2-2.087h1.34l-1.864 3.23L91.944 65zm7.555-5.471v1.925h.531c.425 0 .722-.072.892-.216.173-.143.26-.392.26-.747 0-.354-.087-.603-.26-.747-.17-.143-.467-.215-.892-.215h-.531zm-1.297-1.09h1.78c.905 0 1.556.161 1.951.483.399.323.598.846.598 1.57 0 .723-.199 1.246-.598 1.568-.395.322-1.046.483-1.951.483h-.483V65h-1.297v-6.561zm7.418 1.046c-.331 0-.573.177-.725.532-.152.351-.228.921-.228 1.71 0 .784.076 1.354.228 1.709.152.351.394.527.725.527.334 0 .577-.176.73-.528.152-.354.228-.924.228-1.709 0-.788-.076-1.358-.228-1.71-.153-.354-.396-.531-.73-.531zm-2.303 2.241c0-1.122.194-1.97.58-2.544.39-.575.964-.862 1.723-.862.762 0 1.336.287 1.723.862.389.574.584 1.422.584 2.544 0 1.12-.195 1.966-.584 2.54-.387.574-.961.861-1.723.861-.759 0-1.333-.287-1.723-.86-.386-.575-.58-1.422-.58-2.54zm7.26.396c-.653-.25-1.096-.51-1.327-.783-.231-.275-.347-.644-.347-1.107 0-.595.19-1.062.571-1.402.381-.34.904-.51 1.569-.51.302 0 .603.035.905.106.302.067.601.168.897.303v1.266a3.552 3.552 0 00-.848-.449 2.529 2.529 0 00-.853-.153c-.313 0-.554.063-.721.188-.167.127-.25.307-.25.541 0 .182.06.333.18.453.123.117.378.247.765.39l.558.212c.527.193.915.45 1.164.769.249.32.374.722.374 1.208 0 .662-.196 1.157-.589 1.486-.39.325-.98.487-1.771.487a4.17 4.17 0 01-.98-.118 4.308 4.308 0 01-.945-.343v-1.34c.346.246.68.429 1.002.549.325.12.646.18.963.18.319 0 .566-.072.742-.215.176-.147.264-.35.264-.611a.8.8 0 00-.176-.514 1.146 1.146 0 00-.51-.352l-.637-.241zM117.116 65h-1.296v-5.427h-1.666v-1.134h4.628v1.134h-1.666V65zm8.956-6.561l3.454 7.396h-.98l-3.454-7.396h.98zm-60.67 48.379h4.658V108H65.4v-1.182zm5.576-3.379h1.296v2.5h1.622v-2.5h1.296V110h-1.296v-2.918h-1.622V110h-1.296v-6.561zm-5.577 33.379h4.659V138H65.4v-1.182zm5.577-3.379h1.296v2.5h1.622v-2.5h1.296V140h-1.296v-2.918h-1.622V140h-1.296v-6.561zm13.509 0v2.439h-1.125v-2.439h1.125zM65.4 166.818h4.659V168H65.4v-1.182zm9.862-2.236h-2.79v1.415h2.54v1.142h-2.54V170h-1.297v-6.561h4.087v1.143zM65.4 181.818h4.659V183H65.4v-1.182zm9.862-2.236h-2.79v1.415h2.54v1.142h-2.54V185h-1.297v-6.561h4.087v1.143z" fill="#5CDDC7"/><path d="M84.487 103.439v2.439h-1.125v-2.439h1.125zm4.865 1.186l-.611 2.686h1.226l-.615-2.686zm-.791-1.186h1.586L91.918 110h-1.296l-.405-1.622h-1.736L88.086 110H86.79l1.77-6.561zm4.21 4.843v-3.204h1.287v3.006c0 .354.05.608.15.76.1.153.265.229.496.229a.606.606 0 00.54-.308c.132-.205.198-.492.198-.861v-2.826h1.288V110h-1.288v-.729c-.09.272-.246.483-.465.632a1.35 1.35 0 01-.787.224c-.469 0-.823-.155-1.064-.465-.237-.311-.356-.771-.356-1.38zm7.751-4.601v1.397h1.684v.989h-1.684v2.329c0 .22.053.378.159.475.108.093.287.14.536.14h.989V110h-1.081c-.739 0-1.238-.117-1.499-.352-.26-.237-.391-.675-.391-1.314v-2.267h-1.257v-.989h1.257v-1.397h1.287zm7.098 3.124V110h-1.279v-2.997c0-.355-.051-.608-.154-.76-.1-.153-.264-.229-.492-.229a.616.616 0 00-.549.312c-.132.205-.198.491-.198.857V110h-1.279v-6.838h1.279v2.654c.091-.272.246-.483.466-.632.219-.15.484-.225.795-.225.466 0 .817.156 1.055.466.237.308.356.768.356 1.38zm3.423-.8c-.308 0-.549.137-.725.409-.176.27-.264.646-.264 1.129 0 .484.088.862.264 1.134.176.27.417.405.725.405a.824.824 0 00.729-.405c.176-.272.264-.65.264-1.134 0-.483-.088-.859-.264-1.129-.175-.272-.418-.409-.729-.409zm-2.276 1.538c0-.793.205-1.422.615-1.885.413-.466.967-.699 1.661-.699.697 0 1.251.233 1.661.699.413.463.62 1.092.62 1.885 0 .794-.207 1.424-.62 1.89-.41.463-.964.694-1.661.694-.694 0-1.248-.231-1.661-.694-.41-.466-.615-1.096-.615-1.89zm10.05-1.107a1.372 1.372 0 00-.497-.29 1.904 1.904 0 00-.619-.097c-.273 0-.512.049-.717.145a1.064 1.064 0 00-.619.818c-.027.158-.04.398-.04.72V110h-1.287v-4.922h1.287v.765c.126-.281.32-.498.58-.651.261-.155.566-.233.914-.233.176 0 .348.022.514.066.17.041.332.103.484.185v1.226zm1.336-1.358h2.549v3.933h1.599V110h-4.491v-.989h1.604v-2.944h-1.261v-.989zm1.261-2.395h1.288v1.503h-1.288v-1.503zm4.008 2.395h3.933v1.006l-2.588 2.954h2.588V110h-4.039v-1.006l2.593-2.953h-2.487v-.963zm7.682 2.61c-.481 0-.816.062-1.007.185-.19.123-.285.334-.285.633 0 .223.065.4.197.532.132.131.311.197.536.197.34 0 .604-.127.791-.382.188-.258.282-.617.282-1.077v-.088h-.514zm1.792-.496V110h-1.278v-.549a1.573 1.573 0 01-.598.501 1.829 1.829 0 01-.804.175c-.56 0-.996-.148-1.31-.443-.31-.296-.466-.709-.466-1.24 0-.574.186-.997.559-1.27.372-.275.947-.413 1.727-.413h.892v-.215c0-.208-.076-.365-.229-.47-.149-.109-.37-.163-.663-.163-.308 0-.607.04-.897.119a4.122 4.122 0 00-.901.369v-1.099c.284-.117.573-.203.866-.259.293-.056.603-.084.932-.084.799 0 1.36.163 1.683.488.325.325.487.907.487 1.745zm3.586-3.511v1.397h1.684v.989h-1.684v2.329c0 .22.053.378.159.475.108.093.287.14.536.14h.989V110h-1.082c-.738 0-1.237-.117-1.498-.352-.261-.237-.391-.675-.391-1.314v-2.267h-1.257v-.989h1.257v-1.397h1.287zm3.362 1.397h2.549v3.933h1.6V110h-4.492v-.989h1.604v-2.944h-1.261v-.989zm1.261-2.395h1.288v1.503h-1.288v-1.503zm5.898 3.322c-.308 0-.549.137-.725.409-.176.27-.264.646-.264 1.129 0 .484.088.862.264 1.134.176.27.417.405.725.405.31 0 .554-.135.729-.405.176-.272.264-.65.264-1.134 0-.483-.088-.859-.264-1.129-.175-.272-.419-.409-.729-.409zm-2.276 1.538c0-.793.205-1.422.615-1.885.413-.466.967-.699 1.661-.699.697 0 1.251.233 1.661.699.413.463.62 1.092.62 1.885 0 .794-.207 1.424-.62 1.89-.41.463-.964.694-1.661.694-.694 0-1.248-.231-1.661-.694-.41-.466-.615-1.096-.615-1.89zm9.698-.738V110h-1.279v-2.997c0-.357-.051-.612-.153-.765-.1-.155-.264-.233-.493-.233a.625.625 0 00-.549.312c-.132.208-.198.497-.198.866V110h-1.278v-4.922h1.278v.738a1.2 1.2 0 01.466-.632c.22-.15.485-.225.796-.225.465 0 .817.156 1.054.466.238.308.356.768.356 1.38zm2.69-1.476h1.463v1.604h-1.463v-1.604zm0 3.058h1.463V110h-1.463v-1.613zm10.674-1.366v1.942h.861c.413 0 .702-.07.866-.211.167-.141.251-.385.251-.734 0-.354-.087-.609-.26-.765-.173-.155-.458-.232-.857-.232h-.861zm0-2.558v1.525h.861c.329 0 .561-.059.699-.176.141-.117.211-.311.211-.58 0-.27-.072-.464-.215-.585-.141-.123-.372-.184-.695-.184h-.861zm-1.252-1.033h2.113c.73 0 1.278.139 1.644.418.369.275.554.688.554 1.239 0 .422-.109.751-.326.989-.216.237-.534.375-.953.413.501.05.877.218 1.129.505.255.287.383.689.383 1.204 0 .633-.191 1.092-.572 1.376-.381.284-1 .426-1.859.426h-2.113v-6.57zm7.949 4.258c-.48 0-.816.062-1.006.185-.19.123-.286.334-.286.633 0 .223.066.4.198.532.132.131.311.197.536.197.34 0 .604-.127.791-.382.188-.258.281-.617.281-1.077v-.088h-.514zm1.793-.496V110H177v-.549a1.563 1.563 0 01-.597.501 1.829 1.829 0 01-.804.175c-.56 0-.996-.148-1.31-.443-.31-.296-.466-.709-.466-1.24 0-.574.186-.997.558-1.27.372-.275.948-.413 1.727-.413H177v-.215c0-.208-.076-.365-.228-.47-.149-.109-.371-.163-.664-.163-.307 0-.606.04-.896.119a4.122 4.122 0 00-.901.369v-1.099c.284-.117.573-.203.866-.259.293-.056.603-.084.931-.084.8 0 1.361.163 1.684.488.325.325.487.907.487 1.745zm4.909-1.96v1.125a2.883 2.883 0 00-1.512-.461c-.287 0-.504.042-.65.127a.397.397 0 00-.22.369c0 .234.314.425.941.571l.048.014.369.087c.469.112.812.292 1.028.541.22.246.33.58.33 1.002 0 .507-.167.888-.501 1.143-.331.251-.831.377-1.499.377a6.353 6.353 0 01-1.854-.307v-1.125c.284.161.573.284.866.369.296.085.581.127.857.127.301 0 .53-.044.685-.131a.419.419 0 00.233-.383.454.454 0 00-.167-.378c-.108-.088-.369-.181-.782-.281l-.356-.079c-.492-.111-.851-.286-1.077-.523-.225-.237-.338-.555-.338-.954 0-.474.171-.843.514-1.107.343-.264.825-.396 1.446-.396.278 0 .555.024.83.071.279.044.548.111.809.202zm2.039-.154h2.549v3.933h1.599V110h-4.491v-.989h1.604v-2.944h-1.261v-.989zm1.261-2.395h1.288v1.503h-1.288v-1.503zm7.853 7.067a2.68 2.68 0 01-.698.281 3.23 3.23 0 01-.805.096c-.758 0-1.352-.228-1.779-.685-.428-.457-.642-1.09-.642-1.899 0-.811.215-1.445.646-1.902.431-.46 1.025-.69 1.784-.69.264 0 .517.03.76.092.247.061.491.157.734.286v1.177a2.059 2.059 0 00-.619-.369 1.874 1.874 0 00-.695-.132c-.419 0-.741.134-.966.4-.226.267-.339.646-.339 1.138 0 .493.113.871.339 1.134.225.264.547.396.966.396.249 0 .482-.041.699-.123.217-.085.422-.213.615-.383v1.183zM58.735 125.628v.84h-.66c-.729 0-1.218-.109-1.467-.325-.246-.217-.37-.649-.37-1.297v-.945c0-.442-.078-.747-.236-.914-.156-.17-.439-.255-.849-.255h-.272v-.839h.272c.41 0 .693-.083.849-.25.158-.167.237-.474.237-.919v-.945c0-.647.123-1.078.369-1.292.249-.216.738-.325 1.468-.325h.659v.835h-.54c-.305 0-.509.062-.611.185-.103.123-.154.394-.154.813v.918c0 .483-.072.823-.216 1.02-.143.196-.4.322-.769.378.37.061.626.191.77.391.143.199.215.539.215 1.019v.901c0 .422.051.694.154.817.102.126.306.189.61.189h.54zm5.423 0v.84h-.66c-.729 0-1.218-.109-1.467-.325-.246-.217-.37-.649-.37-1.297v-.945c0-.442-.078-.747-.237-.914-.155-.17-.438-.255-.848-.255h-.272v-.839h.272c.41 0 .693-.083.848-.25.159-.167.238-.474.238-.919v-.945c0-.647.123-1.078.369-1.292.249-.216.738-.325 1.468-.325h.659v.835h-.54c-.306 0-.51.062-.612.185-.102.123-.154.394-.154.813v.918c0 .483-.071.823-.215 1.02-.143.196-.4.322-.769.378.37.061.626.191.77.391.143.199.215.539.215 1.019v.901c0 .422.05.694.153.817.103.126.306.189.611.189h.54zm4.53-3.076c0-.474-.079-.846-.237-1.116-.158-.269-.376-.404-.655-.404-.278 0-.498.135-.659.404-.16.27-.242.642-.242 1.116 0 .475.081.847.242 1.116.161.27.381.405.66.405.278 0 .496-.135.654-.405.158-.269.238-.641.238-1.116zm-1.793-1.775c.159-.273.342-.476.55-.611a1.27 1.27 0 01.712-.207c.583 0 1.031.223 1.344.668.317.446.475 1.084.475 1.916 0 .821-.155 1.457-.466 1.908-.31.451-.747.676-1.31.676a1.38 1.38 0 01-.773-.215 1.514 1.514 0 01-.532-.641V125h-1.283v-6.838h1.284v2.615zm6.557 1.911c-.48 0-.816.062-1.006.185-.19.123-.286.334-.286.633 0 .223.066.4.198.532.132.131.31.197.536.197.34 0 .604-.127.791-.382.188-.258.281-.617.281-1.077v-.088h-.514zm1.793-.496V125h-1.279v-.549a1.566 1.566 0 01-.597.501 1.83 1.83 0 01-.805.175c-.56 0-.996-.148-1.31-.443-.31-.296-.465-.709-.465-1.24 0-.574.186-.997.558-1.27.372-.275.948-.413 1.727-.413h.892v-.215c0-.208-.076-.365-.228-.47-.15-.109-.37-.163-.664-.163-.307 0-.606.04-.896.119a4.107 4.107 0 00-.901.369v-1.099c.284-.117.573-.203.866-.259.293-.056.603-.084.931-.084.8 0 1.361.163 1.683.488.325.325.488.907.488 1.745zm4.909-1.96v1.125a2.89 2.89 0 00-.743-.343 2.584 2.584 0 00-.769-.118c-.287 0-.504.042-.65.127a.398.398 0 00-.22.369c0 .234.313.425.94.571l.049.014.369.087c.469.112.811.292 1.028.541.22.246.33.58.33 1.002 0 .507-.167.888-.501 1.143-.331.251-.83.377-1.499.377a6.374 6.374 0 01-1.855-.307v-1.125c.285.161.574.284.867.369.295.085.581.127.856.127.302 0 .53-.044.686-.131a.418.418 0 00.233-.383.454.454 0 00-.167-.378c-.109-.088-.37-.181-.782-.281l-.356-.079c-.492-.111-.851-.286-1.077-.523-.225-.237-.338-.555-.338-.954 0-.474.171-.843.514-1.107.343-.264.825-.396 1.446-.396.278 0 .555.024.83.071.279.044.548.111.809.202zm2.039-.154h2.549v3.933h1.6V125H81.85v-.989h1.604v-2.944h-1.261v-.989zm1.261-2.395h1.288v1.503h-1.288v-1.503zm7.853 7.067a2.7 2.7 0 01-.699.281 3.223 3.223 0 01-.804.096c-.759 0-1.352-.228-1.78-.685-.427-.457-.641-1.09-.641-1.899 0-.811.215-1.445.646-1.902.43-.46 1.025-.69 1.784-.69a3.064 3.064 0 011.494.378v1.177a2.06 2.06 0 00-.62-.369 1.873 1.873 0 00-.694-.132c-.419 0-.741.134-.967.4-.225.267-.338.646-.338 1.138 0 .493.113.871.338 1.134.226.264.548.396.967.396.25 0 .482-.041.699-.123.217-.085.422-.213.615-.383v1.183zm6.179 1.085v.879h-5.419v-.879h5.419zm3.08-3.147c-.48 0-.816.062-1.006.185-.19.123-.286.334-.286.633 0 .223.066.4.198.532.132.131.31.197.536.197.34 0 .604-.127.791-.382.188-.258.282-.617.282-1.077v-.088h-.515zm1.793-.496V125h-1.278v-.549a1.573 1.573 0 01-.598.501 1.83 1.83 0 01-.804.175c-.56 0-.996-.148-1.31-.443-.31-.296-.466-.709-.466-1.24 0-.574.186-.997.558-1.27.373-.275.948-.413 1.727-.413h.893v-.215c0-.208-.077-.365-.229-.47-.149-.109-.371-.163-.664-.163-.307 0-.606.04-.896.119a4.11 4.11 0 00-.9.369v-1.099c.283-.117.572-.203.865-.259.293-.056.603-.084.931-.084.8 0 1.361.163 1.684.488.325.325.487.907.487 1.745zm1.257 1.09v-3.204h1.288v3.006c0 .354.05.608.149.76.1.153.265.229.497.229a.606.606 0 00.54-.308c.132-.205.198-.492.198-.861v-2.826h1.288V125h-1.288v-.729a1.195 1.195 0 01-.466.632c-.217.15-.479.224-.786.224-.469 0-.824-.155-1.064-.465-.237-.311-.356-.771-.356-1.38zm7.752-4.601v1.397h1.683v.989h-1.683v2.329c0 .22.053.378.158.475.109.093.287.14.536.14h.989V125h-1.081c-.738 0-1.238-.117-1.498-.352-.261-.237-.391-.675-.391-1.314v-2.267h-1.257v-.989h1.257v-1.397h1.287zm7.097 3.124V125h-1.278v-2.997c0-.355-.052-.608-.154-.76-.1-.153-.264-.229-.492-.229a.618.618 0 00-.55.312c-.132.205-.198.491-.198.857V125h-1.278v-6.838h1.278v2.654a1.2 1.2 0 01.466-.632c.22-.15.485-.225.796-.225.466 0 .817.156 1.054.466.238.308.356.768.356 1.38zm3.424-.8c-.308 0-.55.137-.725.409-.176.27-.264.646-.264 1.129 0 .484.088.862.264 1.134.175.27.417.405.725.405.31 0 .553-.135.729-.405.176-.272.264-.65.264-1.134 0-.483-.088-.859-.264-1.129-.176-.272-.419-.409-.729-.409zm-2.277 1.538c0-.793.205-1.422.616-1.885.413-.466.966-.699 1.661-.699.697 0 1.251.233 1.661.699.413.463.619 1.092.619 1.885 0 .794-.206 1.424-.619 1.89-.41.463-.964.694-1.661.694-.695 0-1.248-.231-1.661-.694-.411-.466-.616-1.096-.616-1.89zm10.051-1.107a1.38 1.38 0 00-.497-.29 1.906 1.906 0 00-.62-.097c-.272 0-.511.049-.716.145a1.064 1.064 0 00-.47.413 1.17 1.17 0 00-.15.405 4.84 4.84 0 00-.039.72V125h-1.288v-4.922h1.288v.765c.126-.281.319-.498.58-.651.261-.155.565-.233.914-.233.176 0 .347.022.514.066.17.041.331.103.484.185v1.226zm1.336-1.358h2.548v3.933h1.6V125h-4.491v-.989h1.604v-2.944h-1.261v-.989zm1.261-2.395h1.287v1.503h-1.287v-1.503zm4.008 2.395h3.933v1.006l-2.589 2.954h2.589V125h-4.039v-1.006l2.593-2.953h-2.487v-.963zm7.681 2.61c-.48 0-.816.062-1.006.185-.191.123-.286.334-.286.633 0 .223.066.4.198.532.132.131.311.197.536.197.34 0 .604-.127.791-.382.188-.258.281-.617.281-1.077v-.088h-.514zm1.793-.496V125h-1.279v-.549a1.563 1.563 0 01-.597.501 1.832 1.832 0 01-.804.175c-.56 0-.997-.148-1.31-.443-.311-.296-.466-.709-.466-1.24 0-.574.186-.997.558-1.27.372-.275.948-.413 1.727-.413h.892v-.215c0-.208-.076-.365-.228-.47-.15-.109-.371-.163-.664-.163-.307 0-.606.04-.896.119a4.102 4.102 0 00-.901.369v-1.099c.284-.117.573-.203.866-.259.293-.056.603-.084.931-.084.8 0 1.361.163 1.683.488.326.325.488.907.488 1.745zm3.586-3.511v1.397h1.683v.989h-1.683v2.329c0 .22.053.378.158.475.109.093.287.14.536.14h.989V125h-1.081c-.738 0-1.238-.117-1.498-.352-.261-.237-.391-.675-.391-1.314v-2.267h-1.257v-.989h1.257v-1.397h1.287zm3.362 1.397h2.549v3.933h1.599V125h-4.491v-.989h1.604v-2.944h-1.261v-.989zm1.261-2.395h1.288v1.503h-1.288v-1.503zm5.898 3.322c-.308 0-.55.137-.725.409-.176.27-.264.646-.264 1.129 0 .484.088.862.264 1.134.175.27.417.405.725.405.31 0 .553-.135.729-.405.176-.272.264-.65.264-1.134 0-.483-.088-.859-.264-1.129-.176-.272-.419-.409-.729-.409zm-2.277 1.538c0-.793.205-1.422.616-1.885.413-.466.966-.699 1.661-.699.697 0 1.251.233 1.661.699.413.463.619 1.092.619 1.885 0 .794-.206 1.424-.619 1.89-.41.463-.964.694-1.661.694-.695 0-1.248-.231-1.661-.694-.411-.466-.616-1.096-.616-1.89zm9.699-.738V125h-1.279v-2.997c0-.357-.051-.612-.154-.765-.099-.155-.263-.233-.492-.233a.625.625 0 00-.549.312c-.132.208-.198.497-.198.866V125h-1.279v-4.922h1.279v.738c.091-.272.246-.483.466-.632.22-.15.485-.225.795-.225.466 0 .818.156 1.055.466.237.308.356.768.356 1.38zm6.135 4.03v.879h-5.419v-.879h5.419zm3.036-7.154v1.397h1.683v.989h-1.683v2.329c0 .22.053.378.159.475.108.093.287.14.536.14h.988V125h-1.081c-.738 0-1.237-.117-1.498-.352-.261-.237-.391-.675-.391-1.314v-2.267h-1.257v-.989h1.257v-1.397h1.287zm5.098 2.324c-.308 0-.549.137-.725.409-.176.27-.264.646-.264 1.129 0 .484.088.862.264 1.134.176.27.417.405.725.405a.827.827 0 00.73-.405c.175-.272.263-.65.263-1.134 0-.483-.088-.859-.263-1.129-.176-.272-.419-.409-.73-.409zm-2.276 1.538c0-.793.205-1.422.615-1.885.413-.466.967-.699 1.661-.699.697 0 1.251.233 1.661.699.413.463.62 1.092.62 1.885 0 .794-.207 1.424-.62 1.89-.41.463-.964.694-1.661.694-.694 0-1.248-.231-1.661-.694-.41-.466-.615-1.096-.615-1.89zm5.757-4.381h1.287v3.59l1.547-1.674h1.56l-1.863 1.837 1.969 3.085h-1.424l-1.349-2.303-.44.422V125h-1.287v-6.838zm9.5 6.596a4.83 4.83 0 01-1.898.369c-.823 0-1.453-.219-1.89-.659-.433-.442-.65-1.078-.65-1.907 0-.803.209-1.437.628-1.903.419-.466.991-.699 1.714-.699.73 0 1.295.217 1.697.651.404.431.606 1.038.606 1.824v.523h-3.335c.003.386.117.675.342.865.226.191.563.286 1.011.286.296 0 .587-.043.875-.128.287-.084.587-.219.9-.404v1.182zm-1.089-2.768c-.006-.34-.094-.596-.264-.769-.167-.176-.415-.264-.743-.264-.296 0-.531.091-.707.272-.176.179-.28.434-.312.765l2.026-.004zm6.376-.185V125h-1.279v-2.997c0-.357-.051-.612-.154-.765-.099-.155-.263-.233-.492-.233a.625.625 0 00-.549.312c-.132.208-.198.497-.198.866V125h-1.279v-4.922h1.279v.738c.091-.272.246-.483.466-.632.22-.15.485-.225.795-.225.466 0 .818.156 1.055.466.237.308.356.768.356 1.38zm1.507 3.823h.532c.305 0 .51-.063.615-.189.106-.126.159-.398.159-.817v-.901c0-.48.071-.82.215-1.019.143-.2.398-.33.765-.391-.37-.056-.626-.182-.769-.378-.141-.197-.211-.537-.211-1.02v-.918c0-.413-.053-.683-.159-.809-.102-.126-.307-.189-.615-.189h-.532v-.835h.66c.726 0 1.211.109 1.454.325.246.214.369.645.369 1.292v.945c0 .443.079.749.238.919.161.167.448.25.861.25h.272v.839h-.272c-.413 0-.7.085-.861.255-.159.17-.238.475-.238.914v.945c0 .648-.123 1.08-.369 1.297-.243.216-.728.325-1.454.325h-.66v-.84zm5.423 0h.532c.305 0 .51-.063.615-.189.106-.126.158-.398.158-.817v-.901c0-.48.072-.82.216-1.019.143-.2.398-.33.764-.391-.369-.056-.625-.182-.769-.378-.14-.197-.211-.537-.211-1.02v-.918c0-.413-.052-.683-.158-.809-.102-.126-.307-.189-.615-.189h-.532v-.835h.659c.727 0 1.212.109 1.455.325.246.214.369.645.369 1.292v.945c0 .443.079.749.237.919.162.167.449.25.862.25h.272v.839h-.272c-.413 0-.7.085-.862.255-.158.17-.237.475-.237.914v.945c0 .648-.123 1.08-.369 1.297-.243.216-.728.325-1.455.325h-.659v-.84zm7.897-7.189v2.439h-1.125v-2.439h1.125zm9.049 0l3.454 7.396h-.98l-3.454-7.396h.98zM91.395 139.811c-.205.106-.42.185-.646.237a3.104 3.104 0 01-.712.079c-.885 0-1.56-.291-2.026-.874-.466-.583-.698-1.425-.698-2.527 0-1.104.232-1.948.698-2.531.466-.583 1.141-.875 2.026-.875.25 0 .488.027.716.079.229.053.443.132.642.238v1.441a2.455 2.455 0 00-.65-.448 1.511 1.511 0 00-.646-.145c-.475 0-.834.189-1.077.567-.24.375-.36.933-.36 1.674 0 .738.12 1.296.36 1.674.243.375.602.563 1.077.563.222 0 .438-.047.646-.141a2.55 2.55 0 00.65-.452v1.441zm3.38-3.806c-.308 0-.55.137-.726.409-.175.27-.263.646-.263 1.129 0 .484.088.862.263 1.134.176.27.418.405.725.405a.827.827 0 00.73-.405c.176-.272.264-.65.264-1.134 0-.483-.088-.859-.264-1.129-.176-.272-.419-.409-.73-.409zm-2.277 1.538c0-.793.205-1.422.615-1.885.413-.466.967-.699 1.661-.699.698 0 1.251.233 1.662.699.413.463.62 1.092.62 1.885 0 .794-.207 1.424-.62 1.89-.41.463-.964.694-1.662.694-.694 0-1.248-.231-1.66-.694-.41-.466-.616-1.096-.616-1.89zm9.699-.738V140h-1.279v-2.997c0-.357-.051-.612-.154-.765-.099-.155-.264-.233-.492-.233a.625.625 0 00-.55.312c-.131.208-.197.497-.197.866V140h-1.279v-4.922h1.279v.738a1.19 1.19 0 01.466-.632c.219-.15.485-.225.795-.225.466 0 .818.156 1.055.466.237.308.356.768.356 1.38zm3.748-3.124v1.397h1.683v.989h-1.683v2.329c0 .22.053.378.159.475.108.093.287.14.536.14h.988V140h-1.081c-.738 0-1.237-.117-1.498-.352-.261-.237-.391-.675-.391-1.314v-2.267h-1.257v-.989h1.257v-1.397h1.287zm7.234 6.077a4.874 4.874 0 01-1.899.369c-.823 0-1.453-.219-1.889-.659-.434-.442-.651-1.078-.651-1.907 0-.803.21-1.437.629-1.903.419-.466.99-.699 1.714-.699.729 0 1.294.217 1.696.651.404.431.606 1.038.606 1.824v.523h-3.335c.003.386.117.675.343.865.225.191.562.286 1.01.286.296 0 .588-.043.875-.128.287-.084.587-.219.901-.404v1.182zm-1.09-2.768c-.006-.34-.094-.596-.264-.769-.167-.176-.414-.264-.742-.264-.296 0-.532.091-.708.272-.176.179-.28.434-.312.765l2.026-.004zm6.376-.185V140h-1.278v-2.997c0-.357-.052-.612-.154-.765-.1-.155-.264-.233-.492-.233a.625.625 0 00-.55.312c-.132.208-.198.497-.198.866V140h-1.278v-4.922h1.278v.738a1.2 1.2 0 01.466-.632c.22-.15.485-.225.796-.225.466 0 .817.156 1.054.466.238.308.356.768.356 1.38zm3.749-3.124v1.397h1.683v.989h-1.683v2.329c0 .22.053.378.158.475.108.093.287.14.536.14h.989V140h-1.081c-.738 0-1.238-.117-1.499-.352-.26-.237-.391-.675-.391-1.314v-2.267h-1.257v-.989h1.257v-1.397h1.288zm2.839 3.137h4.658V138h-4.658v-1.182zm8.332 3.182h-1.297v-5.427h-1.665v-1.134h4.627v1.134h-1.665V140zm5.19.532c-.173.463-.381.8-.624 1.01a1.277 1.277 0 01-.879.321h-1.064v-.98h.523c.264 0 .457-.045.58-.136.123-.088.248-.294.374-.62l.097-.263-1.873-4.786h1.354l1.125 3.195 1.077-3.195h1.353l-2.043 5.454zm4.24-1.226v2.566h-1.283v-6.794h1.283v.738c.135-.284.312-.498.532-.641.22-.144.478-.216.774-.216.562 0 .999.226 1.309.677.311.451.466 1.087.466 1.907 0 .832-.158 1.471-.475 1.916-.313.446-.761.668-1.344.668-.264 0-.501-.067-.712-.202-.208-.137-.391-.344-.55-.619zm1.793-1.771c0-.475-.079-.847-.237-1.117-.158-.269-.376-.404-.655-.404-.278 0-.498.135-.659.404-.161.27-.242.642-.242 1.117 0 .474.081.846.242 1.116.161.269.381.404.659.404.279 0 .497-.135.655-.404.158-.27.237-.642.237-1.116zm6.531 2.223a4.874 4.874 0 01-1.899.369c-.823 0-1.453-.219-1.889-.659-.434-.442-.651-1.078-.651-1.907 0-.803.21-1.437.629-1.903.419-.466.99-.699 1.713-.699.73 0 1.295.217 1.697.651.404.431.606 1.038.606 1.824v.523h-3.335c.003.386.117.675.343.865.225.191.562.286 1.01.286.296 0 .588-.043.875-.128.287-.084.587-.219.901-.404v1.182zm-1.09-2.768c-.006-.34-.094-.596-.264-.769-.167-.176-.414-.264-.743-.264-.295 0-.531.091-.707.272-.176.179-.28.434-.312.765l2.026-.004zm3.643-1.661h1.463v1.604h-1.463v-1.604zm0 3.058h1.463V140h-1.463v-1.613zm11.905-2.817a1.07 1.07 0 01.369-.461c.149-.1.332-.15.549-.15.425 0 .718.147.879.44.164.293.246.902.246 1.828V140h-1.055v-3.16c0-.366-.027-.611-.083-.734-.056-.123-.157-.184-.303-.184-.147 0-.249.063-.308.189-.058.126-.088.369-.088.729V140h-1.041v-3.16c0-.36-.03-.603-.088-.729-.059-.126-.161-.189-.308-.189-.146 0-.247.061-.303.184-.056.123-.084.368-.084.734V140h-1.054v-4.922h.936v.51a.947.947 0 01.351-.457.919.919 0 011.086.009c.164.117.264.26.299.43zm3.093 2.712v-3.204h1.288v3.006c0 .354.05.608.149.76.1.153.266.229.497.229a.608.608 0 00.541-.308c.131-.205.197-.492.197-.861v-2.826h1.288V140h-1.288v-.729a1.195 1.195 0 01-.466.632c-.216.15-.479.224-.786.224-.469 0-.823-.155-1.064-.465-.237-.311-.356-.771-.356-1.38zm6.421-.334v-3.797h-1.305v-.989h2.592v4.786c0 .386.06.66.181.822.12.161.323.241.61.241h1.029V140h-1.389c-.612 0-1.052-.158-1.318-.475-.267-.316-.4-.842-.4-1.577zm6.754-4.267v1.397h1.683v.989h-1.683v2.329c0 .22.053.378.158.475.109.093.288.14.537.14h.988V140h-1.081c-.738 0-1.238-.117-1.498-.352-.261-.237-.391-.675-.391-1.314v-2.267h-1.257v-.989h1.257v-1.397h1.287zm3.362 1.397h2.549v3.933h1.599V140h-4.491v-.989h1.604v-2.944h-1.261v-.989zm1.261-2.395h1.288v1.503h-1.288v-1.503zm5.133 6.623v2.566h-1.283v-6.794h1.283v.738c.135-.284.312-.498.532-.641.22-.144.477-.216.773-.216.563 0 .999.226 1.31.677.31.451.466 1.087.466 1.907 0 .832-.159 1.471-.475 1.916-.313.446-.762.668-1.345.668-.263 0-.501-.067-.712-.202a1.786 1.786 0 01-.549-.619zm1.793-1.771c0-.475-.079-.847-.237-1.117-.158-.269-.377-.404-.655-.404s-.498.135-.659.404c-.161.27-.242.642-.242 1.117 0 .474.081.846.242 1.116.161.269.381.404.659.404s.497-.135.655-.404c.158-.27.237-.642.237-1.116zm4.764.153c-.481 0-.816.062-1.007.185-.19.123-.285.334-.285.633 0 .223.066.4.197.532.132.131.311.197.537.197.339 0 .603-.127.791-.382.187-.258.281-.617.281-1.077v-.088h-.514zm1.793-.496V140h-1.279v-.549a1.566 1.566 0 01-.598.501 1.829 1.829 0 01-.804.175c-.56 0-.996-.148-1.31-.443-.31-.296-.465-.709-.465-1.24 0-.574.186-.997.558-1.27.372-.275.948-.413 1.727-.413h.892v-.215c0-.208-.076-.365-.229-.47-.149-.109-.37-.163-.663-.163-.308 0-.607.04-.897.119a4.122 4.122 0 00-.901.369v-1.099c.285-.117.573-.203.866-.259.293-.056.604-.084.932-.084.8 0 1.361.163 1.683.488.325.325.488.907.488 1.745zm5.612-.756a1.38 1.38 0 00-.497-.29 1.91 1.91 0 00-.62-.097c-.272 0-.511.049-.716.145a1.064 1.064 0 00-.47.413 1.15 1.15 0 00-.15.405 4.84 4.84 0 00-.039.72V140h-1.288v-4.922h1.288v.765c.126-.281.319-.498.58-.651.261-.155.565-.233.914-.233.176 0 .347.022.514.066.17.041.331.103.484.185v1.226zm3.396-2.755v1.397h1.684v.989h-1.684v2.329c0 .22.053.378.159.475.108.093.287.14.536.14h.989V140h-1.081c-.739 0-1.238-.117-1.499-.352-.261-.237-.391-.675-.391-1.314v-2.267h-1.257v-.989h1.257v-1.397h1.287zm6.342-.242h.971l-3.454 7.396h-.971l3.454-7.396zm4.72 1.208v.431h1.511v.989h-1.511V140h-1.288v-3.933h-1.195v-.989h1.195v-.343c0-.591.123-1.002.369-1.23.246-.229.703-.343 1.371-.343h1.059v.989h-1.006c-.193 0-.325.035-.396.105-.067.071-.104.201-.109.391zm4.882 1.358c-.308 0-.549.137-.725.409-.176.27-.264.646-.264 1.129 0 .484.088.862.264 1.134.176.27.417.405.725.405.31 0 .554-.135.729-.405.176-.272.264-.65.264-1.134 0-.483-.088-.859-.264-1.129-.175-.272-.419-.409-.729-.409zm-2.277 1.538c0-.793.206-1.422.616-1.885.413-.466.967-.699 1.661-.699.697 0 1.251.233 1.661.699.413.463.62 1.092.62 1.885 0 .794-.207 1.424-.62 1.89-.41.463-.964.694-1.661.694-.694 0-1.248-.231-1.661-.694-.41-.466-.616-1.096-.616-1.89zm10.051-1.107a1.372 1.372 0 00-.497-.29 1.904 1.904 0 00-.619-.097c-.273 0-.512.049-.717.145a1.064 1.064 0 00-.619.818c-.027.158-.04.398-.04.72V140h-1.288v-4.922h1.288v.765c.126-.281.319-.498.58-.651.261-.155.566-.233.914-.233.176 0 .347.022.514.066.17.041.331.103.484.185v1.226zm3.397-.866a1.07 1.07 0 01.369-.461c.149-.1.332-.15.549-.15.425 0 .718.147.879.44.164.293.246.902.246 1.828V140h-1.054v-3.16c0-.366-.028-.611-.084-.734-.056-.123-.157-.184-.303-.184-.147 0-.249.063-.308.189-.058.126-.088.369-.088.729V140h-1.041v-3.16c0-.36-.03-.603-.088-.729-.059-.126-.161-.189-.308-.189-.146 0-.247.061-.303.184-.056.123-.083.368-.083.734V140h-1.055v-4.922h.936v.51a.947.947 0 01.351-.457.919.919 0 011.086.009c.164.117.264.26.299.43zm2.839 1.248h4.658V138h-4.658v-1.182zm-181.35 13.959v-2.615h1.284V155h-1.283v-.729a1.543 1.543 0 01-.537.641 1.357 1.357 0 01-.769.215c-.562 0-.999-.225-1.31-.676-.31-.451-.465-1.087-.465-1.908 0-.832.157-1.47.47-1.916.317-.445.766-.668 1.35-.668.263 0 .499.069.707.207.21.135.395.338.553.611zm-1.792 1.775c0 .475.079.847.237 1.116.158.27.376.405.655.405.278 0 .498-.135.659-.405.16-.269.242-.641.242-1.116 0-.474-.081-.846-.242-1.116-.161-.269-.381-.404-.66-.404-.278 0-.496.135-.654.404-.158.27-.237.642-.237 1.116zm6.815.136c-.48 0-.816.062-1.006.185-.19.123-.285.334-.285.633 0 .223.065.4.197.532.132.131.31.197.536.197.34 0 .604-.127.791-.382.188-.258.282-.617.282-1.077v-.088h-.515zm1.793-.496V155h-1.278v-.549a1.566 1.566 0 01-.598.501 1.83 1.83 0 01-.804.175c-.56 0-.996-.148-1.31-.443-.31-.296-.466-.709-.466-1.24 0-.574.186-.997.559-1.27.371-.275.947-.413 1.726-.413h.893v-.215c0-.208-.077-.365-.229-.47-.15-.109-.37-.163-.664-.163-.307 0-.606.04-.896.119a4.107 4.107 0 00-.9.369v-1.099c.283-.117.572-.203.865-.259.293-.056.603-.084.931-.084.8 0 1.361.163 1.684.488.325.325.487.907.487 1.745zm3.586-3.511v1.397h1.683v.989h-1.683v2.329c0 .22.053.378.159.475.108.093.287.14.536.14h.988V155h-1.08c-.739 0-1.238-.117-1.5-.352-.26-.237-.39-.675-.39-1.314v-2.267H65.44v-.989h1.257v-1.397h1.287zm5.467 4.007c-.48 0-.816.062-1.006.185-.19.123-.286.334-.286.633 0 .223.066.4.198.532.132.131.31.197.536.197.34 0 .604-.127.791-.382.188-.258.281-.617.281-1.077v-.088h-.514zm1.793-.496V155h-1.279v-.549a1.566 1.566 0 01-.597.501 1.83 1.83 0 01-.805.175c-.56 0-.996-.148-1.31-.443-.31-.296-.465-.709-.465-1.24 0-.574.186-.997.558-1.27.372-.275.948-.413 1.727-.413h.892v-.215c0-.208-.076-.365-.228-.47-.15-.109-.37-.163-.664-.163-.307 0-.606.04-.896.119a4.107 4.107 0 00-.901.369v-1.099c.284-.117.573-.203.866-.259.293-.056.603-.084.931-.084.8 0 1.361.163 1.683.488.325.325.488.907.488 1.745zm2.527 1.195h1.463v1.191l-.861 1.683h-.945l.343-1.683v-1.191zm0-3.058h1.463v1.604h-1.463v-1.604zm6.715-1.89v2.439h-1.125v-2.439h1.125zm9.048 0l3.454 7.396h-.98l-3.454-7.396h.98zm-9.048 15v2.439h-1.125v-2.439h1.125zm2.86 4.843v-3.204h1.288v3.006c0 .354.05.608.15.76.1.153.265.229.496.229a.607.607 0 00.54-.308c.133-.205.198-.492.198-.861v-2.826h1.288V170H90.02v-.729c-.09.272-.246.483-.465.632a1.35 1.35 0 01-.787.224c-.469 0-.823-.155-1.063-.465-.238-.311-.356-.771-.356-1.38zm9.075-3.05v1.125a2.89 2.89 0 00-.742-.343 2.584 2.584 0 00-.77-.118c-.286 0-.503.042-.65.127a.398.398 0 00-.22.369c0 .234.314.425.941.571l.048.014.37.087c.468.112.811.292 1.028.541.22.246.33.58.33 1.002 0 .507-.168.888-.502 1.143-.33.251-.83.377-1.498.377a6.376 6.376 0 01-1.855-.307v-1.125c.284.161.573.284.866.369.296.085.582.127.857.127.302 0 .53-.044.686-.131a.418.418 0 00.232-.383.454.454 0 00-.167-.378c-.108-.088-.369-.181-.782-.281l-.356-.079c-.492-.111-.85-.286-1.076-.523-.226-.237-.339-.555-.339-.954 0-.474.172-.843.514-1.107.343-.264.825-.396 1.446-.396.278 0 .555.024.83.071.28.044.549.111.81.202zm5.911 4.526a4.874 4.874 0 01-1.898.369c-.824 0-1.454-.219-1.89-.659-.434-.442-.65-1.078-.65-1.907 0-.803.209-1.437.628-1.903.419-.466.99-.699 1.714-.699.729 0 1.295.217 1.696.651.404.431.607 1.038.607 1.824v.523h-3.336c.003.386.117.675.343.865.225.191.562.286 1.011.286.296 0 .587-.043.874-.128.287-.084.588-.219.901-.404v1.182zm-1.09-2.768c-.006-.34-.094-.596-.264-.769-.167-.176-.414-.264-.742-.264-.296 0-.532.091-.708.272-.175.179-.28.434-.312.765l2.026-.004zm6.728-.554a1.368 1.368 0 00-.496-.29 1.91 1.91 0 00-.62-.097c-.272 0-.511.049-.716.145a1.072 1.072 0 00-.62.818 4.81 4.81 0 00-.04.72V170h-1.287v-4.922h1.287v.765a1.4 1.4 0 01.581-.651c.26-.155.565-.233.914-.233.175 0 .347.022.514.066.17.041.331.103.483.185v1.226zm5.071.369V170h-1.278v-2.997c0-.357-.052-.612-.154-.765-.1-.155-.264-.233-.492-.233a.625.625 0 00-.55.312c-.131.208-.197.497-.197.866V170h-1.279v-4.922h1.279v.738c.09-.272.246-.483.465-.632.22-.15.485-.225.796-.225.466 0 .817.156 1.055.466.237.308.355.768.355 1.38zm3.793.883c-.481 0-.816.062-1.006.185-.191.123-.286.334-.286.633 0 .223.066.4.198.532.132.131.31.197.536.197.34 0 .603-.127.791-.382.187-.258.281-.617.281-1.077v-.088h-.514zm1.793-.496V170h-1.279v-.549a1.558 1.558 0 01-.598.501 1.829 1.829 0 01-.804.175c-.559 0-.996-.148-1.309-.443-.311-.296-.466-.709-.466-1.24 0-.574.186-.997.558-1.27.372-.275.948-.413 1.727-.413h.892v-.215c0-.208-.076-.365-.228-.47-.15-.109-.371-.163-.664-.163-.308 0-.606.04-.896.119a4.083 4.083 0 00-.901.369v-1.099c.284-.117.572-.203.865-.259.293-.056.604-.084.932-.084.8 0 1.361.163 1.683.488.325.325.488.907.488 1.745zm3.586-1.622c.097-.208.22-.362.369-.461.149-.1.333-.15.549-.15.425 0 .718.147.879.44.164.293.246.902.246 1.828V170h-1.054v-3.16c0-.366-.028-.611-.084-.734-.056-.123-.157-.184-.303-.184-.147 0-.249.063-.308.189-.058.126-.088.369-.088.729V170h-1.041v-3.16c0-.36-.029-.603-.088-.729s-.161-.189-.308-.189c-.146 0-.247.061-.303.184-.055.123-.083.368-.083.734V170h-1.055v-4.922h.936v.51a.943.943 0 01.352-.457.914.914 0 01.54-.172c.199 0 .381.061.545.181.164.117.264.26.299.43zm7.233 4.188a4.852 4.852 0 01-1.898.369c-.823 0-1.453-.219-1.89-.659-.433-.442-.65-1.078-.65-1.907 0-.803.209-1.437.628-1.903.419-.466.99-.699 1.714-.699.73 0 1.295.217 1.696.651.405.431.607 1.038.607 1.824v.523h-3.336c.003.386.118.675.343.865.226.191.563.286 1.011.286.296 0 .587-.043.874-.128.287-.084.588-.219.901-.404v1.182zm-1.09-2.768c-.005-.34-.093-.596-.263-.769-.167-.176-.415-.264-.743-.264-.296 0-.532.091-.707.272-.176.179-.28.434-.312.765l2.025-.004zm2.057.672h4.645v1.042h-4.645v-1.042zm0-1.999h4.645v1.032h-4.645v-1.032zm9.664 4.965v.84h-.66c-.729 0-1.218-.109-1.467-.325-.246-.217-.369-.649-.369-1.297v-.945c0-.442-.08-.747-.238-.914-.155-.17-.438-.255-.848-.255h-.272v-.839h.272c.41 0 .693-.083.848-.25.158-.167.238-.474.238-.919v-.945c0-.647.123-1.078.369-1.292.249-.216.738-.325 1.467-.325h.66v.835h-.541c-.305 0-.508.062-.611.185-.102.123-.154.394-.154.813v.918c0 .483-.071.823-.215 1.02-.143.196-.4.322-.769.378.369.061.626.191.769.391.144.199.215.539.215 1.019v.901c0 .422.052.694.154.817.103.126.306.189.611.189h.541zm5.422 0v.84h-.659c-.729 0-1.218-.109-1.467-.325-.247-.217-.37-.649-.37-1.297v-.945c0-.442-.079-.747-.237-.914-.155-.17-.438-.255-.848-.255h-.273v-.839h.273c.41 0 .693-.083.848-.25.158-.167.237-.474.237-.919v-.945c0-.647.123-1.078.37-1.292.249-.216.738-.325 1.467-.325h.659v.835h-.54c-.305 0-.508.062-.611.185-.102.123-.154.394-.154.813v.918c0 .483-.071.823-.215 1.02-.144.196-.4.322-.769.378.369.061.625.191.769.391.144.199.215.539.215 1.019v.901c0 .422.052.694.154.817.103.126.306.189.611.189h.54zm1.499-2.346v-3.204h1.288v3.006c0 .354.049.608.149.76.1.153.265.229.497.229a.606.606 0 00.54-.308c.132-.205.198-.492.198-.861v-2.826h1.287V170h-1.287v-.729a1.195 1.195 0 01-.466.632c-.217.15-.479.224-.787.224-.468 0-.823-.155-1.063-.465-.237-.311-.356-.771-.356-1.38zm9.075-3.05v1.125a2.899 2.899 0 00-.743-.343 2.583 2.583 0 00-.769-.118c-.287 0-.504.042-.65.127a.397.397 0 00-.22.369c0 .234.313.425.94.571l.049.014.369.087c.469.112.811.292 1.028.541.22.246.33.58.33 1.002 0 .507-.167.888-.501 1.143-.331.251-.831.377-1.499.377a6.353 6.353 0 01-1.854-.307v-1.125c.284.161.572.284.865.369.296.085.582.127.857.127.302 0 .531-.044.686-.131a.419.419 0 00.233-.383.454.454 0 00-.167-.378c-.109-.088-.369-.181-.782-.281l-.356-.079c-.493-.111-.851-.286-1.077-.523-.226-.237-.338-.555-.338-.954 0-.474.171-.843.514-1.107.343-.264.824-.396 1.446-.396.278 0 .555.024.83.071.278.044.548.111.809.202zm5.91 4.526a4.83 4.83 0 01-1.898.369c-.823 0-1.453-.219-1.89-.659-.433-.442-.65-1.078-.65-1.907 0-.803.209-1.437.628-1.903.419-.466.991-.699 1.714-.699.73 0 1.295.217 1.696.651.405.431.607 1.038.607 1.824v.523h-3.336c.003.386.118.675.343.865.226.191.563.286 1.011.286.296 0 .587-.043.874-.128.288-.084.588-.219.901-.404v1.182zm-1.089-2.768c-.006-.34-.094-.596-.264-.769-.167-.176-.415-.264-.743-.264-.296 0-.532.091-.707.272-.176.179-.28.434-.312.765l2.026-.004zm6.728-.554a1.38 1.38 0 00-.497-.29 1.91 1.91 0 00-.62-.097c-.272 0-.511.049-.716.145a1.064 1.064 0 00-.47.413 1.17 1.17 0 00-.15.405 4.84 4.84 0 00-.039.72V170h-1.288v-4.922h1.288v.765c.126-.281.319-.498.58-.651.261-.155.565-.233.914-.233.176 0 .347.022.514.066.17.041.331.103.484.185v1.226zm5.783 4.399v.879h-5.419v-.879h5.419zm4.847-1.077a4.874 4.874 0 01-1.899.369c-.823 0-1.453-.219-1.889-.659-.434-.442-.651-1.078-.651-1.907 0-.803.21-1.437.629-1.903.419-.466.99-.699 1.714-.699.729 0 1.295.217 1.696.651.404.431.606 1.038.606 1.824v.523h-3.335c.003.386.117.675.343.865.225.191.562.286 1.011.286.295 0 .587-.043.874-.128.287-.084.587-.219.901-.404v1.182zm-1.09-2.768c-.006-.34-.094-.596-.264-.769-.167-.176-.414-.264-.742-.264-.296 0-.532.091-.708.272-.176.179-.28.434-.312.765l2.026-.004zm4.702-1.42c.097-.208.22-.362.369-.461.15-.1.333-.15.55-.15.424 0 .717.147.879.44.164.293.246.902.246 1.828V170h-1.055v-3.16c0-.366-.028-.611-.083-.734-.056-.123-.157-.184-.304-.184-.146 0-.249.063-.307.189-.059.126-.088.369-.088.729V170h-1.042v-3.16c0-.36-.029-.603-.088-.729-.058-.126-.161-.189-.307-.189-.147 0-.248.061-.303.184-.056.123-.084.368-.084.734V170h-1.055v-4.922h.936v.51a.954.954 0 01.352-.457.914.914 0 01.54-.172c.2 0 .381.061.545.181.164.117.264.26.299.43zm5.467 2.118c-.48 0-.816.062-1.006.185-.191.123-.286.334-.286.633 0 .223.066.4.198.532.132.131.31.197.536.197.34 0 .603-.127.791-.382.187-.258.281-.617.281-1.077v-.088h-.514zm1.793-.496V170h-1.279v-.549a1.563 1.563 0 01-.597.501 1.836 1.836 0 01-.805.175c-.559 0-.996-.148-1.309-.443-.311-.296-.466-.709-.466-1.24 0-.574.186-.997.558-1.27.372-.275.948-.413 1.727-.413h.892v-.215c0-.208-.076-.365-.228-.47-.15-.109-.371-.163-.664-.163-.308 0-.606.04-.896.119a4.102 4.102 0 00-.901.369v-1.099c.284-.117.572-.203.865-.259.293-.056.604-.084.932-.084.8 0 1.361.163 1.683.488.325.325.488.907.488 1.745zm1.525-2.114h2.549v3.933h1.599V170h-4.491v-.989h1.604v-2.944h-1.261v-.989zm1.261-2.395h1.288v1.503h-1.288v-1.503zm4.891 5.265v-3.797h-1.305v-.989h2.593v4.786c0 .386.06.66.18.822.12.161.324.241.611.241h1.028V170h-1.388c-.613 0-1.052-.158-1.319-.475-.266-.316-.4-.842-.4-1.577zm4.513 2.68h.532c.305 0 .51-.063.615-.189.106-.126.159-.398.159-.817v-.901c0-.48.071-.82.215-1.019.143-.2.398-.33.765-.391-.37-.056-.626-.182-.769-.378-.141-.197-.211-.537-.211-1.02v-.918c0-.413-.053-.683-.159-.809-.102-.126-.307-.189-.615-.189h-.532v-.835h.66c.726 0 1.211.109 1.454.325.246.214.369.645.369 1.292v.945c0 .443.079.749.238.919.161.167.448.25.861.25h.272v.839h-.272c-.413 0-.7.085-.861.255-.159.17-.238.475-.238.914v.945c0 .648-.123 1.08-.369 1.297-.243.216-.728.325-1.454.325h-.66v-.84zm5.423 0h.532c.305 0 .51-.063.615-.189.106-.126.158-.398.158-.817v-.901c0-.48.072-.82.216-1.019.143-.2.398-.33.764-.391-.369-.056-.625-.182-.769-.378-.14-.197-.211-.537-.211-1.02v-.918c0-.413-.052-.683-.158-.809-.102-.126-.307-.189-.615-.189h-.532v-.835h.659c.727 0 1.212.109 1.455.325.246.214.369.645.369 1.292v.945c0 .443.079.749.237.919.162.167.449.25.862.25h.272v.839h-.272c-.413 0-.7.085-.862.255-.158.17-.237.475-.237.914v.945c0 .648-.123 1.08-.369 1.297-.243.216-.728.325-1.455.325h-.659v-.84zm7.897-7.189v2.439h-1.125v-2.439h1.125zm9.049 0l3.454 7.396h-.98l-3.454-7.396h.98zm-139.197 15v2.439h-1.125v-2.439h1.125zm4.1 5.867v2.566h-1.283v-6.794h1.283v.738c.135-.284.312-.498.532-.641.22-.144.477-.216.773-.216.563 0 1 .226 1.31.677.31.451.466 1.087.466 1.907 0 .832-.159 1.471-.475 1.916-.314.446-.762.668-1.345.668-.263 0-.5-.067-.712-.202a1.79 1.79 0 01-.55-.619zm1.793-1.771c0-.475-.08-.847-.237-1.117-.159-.269-.377-.404-.655-.404s-.498.135-.66.404c-.16.27-.241.642-.241 1.117 0 .474.08.846.242 1.116.16.269.38.404.659.404.278 0 .496-.135.655-.404.158-.27.237-.642.237-1.116zm4.764.153c-.48 0-.816.062-1.007.185-.19.123-.285.334-.285.633 0 .223.066.4.197.532.132.131.31.197.536.197.34 0 .604-.127.791-.382.188-.258.282-.617.282-1.077v-.088h-.514zm1.792-.496V185h-1.278v-.549a1.566 1.566 0 01-.598.501 1.83 1.83 0 01-.804.175c-.56 0-.996-.148-1.31-.443-.31-.296-.465-.709-.465-1.24 0-.574.186-.997.558-1.27.372-.275.947-.413 1.727-.413h.892v-.215c0-.208-.076-.365-.229-.47-.15-.109-.37-.163-.663-.163-.308 0-.607.04-.897.119a4.107 4.107 0 00-.9.369v-1.099c.283-.117.572-.203.865-.259.293-.056.603-.084.932-.084.8 0 1.36.163 1.683.488.325.325.487.907.487 1.745zm4.909-1.96v1.125a2.893 2.893 0 00-.742-.343 2.59 2.59 0 00-.77-.118c-.287 0-.503.042-.65.127a.398.398 0 00-.22.369c0 .234.314.425.941.571l.048.014.369.087c.469.112.812.292 1.029.541.219.246.329.58.329 1.002 0 .507-.167.888-.501 1.143-.331.251-.83.377-1.498.377a6.374 6.374 0 01-1.855-.307v-1.125c.284.161.573.284.866.369.296.085.581.127.857.127.302 0 .53-.044.685-.131a.417.417 0 00.233-.383.452.452 0 00-.167-.378c-.108-.088-.369-.181-.782-.281l-.356-.079c-.492-.111-.85-.286-1.076-.523-.226-.237-.339-.555-.339-.954 0-.474.172-.843.514-1.107.343-.264.825-.396 1.446-.396.278 0 .555.024.831.071.278.044.547.111.808.202zm5.423 0v1.125a2.883 2.883 0 00-1.512-.461c-.287 0-.504.042-.65.127a.397.397 0 00-.22.369c0 .234.314.425.941.571l.048.014.369.087c.469.112.812.292 1.028.541.22.246.33.58.33 1.002 0 .507-.167.888-.501 1.143-.331.251-.83.377-1.498.377a6.353 6.353 0 01-1.855-.307v-1.125c.284.161.573.284.866.369.296.085.581.127.857.127.301 0 .53-.044.685-.131a.417.417 0 00.233-.383.454.454 0 00-.167-.378c-.108-.088-.369-.181-.782-.281l-.356-.079c-.492-.111-.851-.286-1.077-.523-.225-.237-.338-.555-.338-.954 0-.474.171-.843.514-1.107.343-.264.825-.396 1.446-.396.278 0 .555.024.83.071.279.044.548.111.809.202zm1.068-.154h1.072l.585 3.771.531-2.483h1.042l.523 2.483.593-3.771h1.072l-.892 4.922h-1.221l-.598-2.558-.593 2.558h-1.222l-.892-4.922zm8.13.927c-.308 0-.549.137-.725.409-.176.27-.264.646-.264 1.129 0 .484.088.862.264 1.134.176.27.417.405.725.405.31 0 .554-.135.729-.405.176-.272.264-.65.264-1.134 0-.483-.088-.859-.264-1.129-.175-.272-.419-.409-.729-.409zm-2.277 1.538c0-.793.206-1.422.616-1.885.413-.466.966-.699 1.661-.699.697 0 1.251.233 1.661.699.413.463.62 1.092.62 1.885 0 .794-.207 1.424-.62 1.89-.41.463-.964.694-1.661.694-.695 0-1.248-.231-1.661-.694-.41-.466-.616-1.096-.616-1.89zm10.051-1.107a1.372 1.372 0 00-.497-.29 1.904 1.904 0 00-.619-.097c-.273 0-.512.049-.717.145a1.064 1.064 0 00-.619.818c-.027.158-.04.398-.04.72V185h-1.288v-4.922h1.288v.765c.126-.281.319-.498.58-.651.261-.155.566-.233.914-.233.176 0 .347.022.514.066.17.041.331.103.484.185v1.226zm3.841-.659v-2.615h1.283V185h-1.283v-.729a1.545 1.545 0 01-.537.641 1.355 1.355 0 01-.769.215c-.562 0-.999-.225-1.309-.676-.311-.451-.466-1.087-.466-1.908 0-.832.157-1.47.47-1.916.317-.445.766-.668 1.349-.668.264 0 .5.069.708.207.211.135.395.338.554.611zm-1.793 1.775c0 .475.079.847.237 1.116.158.27.376.405.655.405.278 0 .498-.135.659-.405.161-.269.242-.641.242-1.116 0-.474-.081-.846-.242-1.116-.161-.269-.381-.404-.659-.404-.279 0-.497.135-.655.404-.158.27-.237.642-.237 1.116zm4.126.11h4.645v1.042h-4.645v-1.042zm0-1.999h4.645v1.032h-4.645v-1.032zm9.664 4.965v.84h-.66c-.729 0-1.218-.109-1.467-.325-.246-.217-.369-.649-.369-1.297v-.945c0-.442-.08-.747-.238-.914-.155-.17-.438-.255-.848-.255h-.272v-.839h.272c.41 0 .693-.083.848-.25.158-.167.238-.474.238-.919v-.945c0-.647.123-1.078.369-1.292.249-.216.738-.325 1.467-.325h.66v.835h-.541c-.305 0-.508.062-.611.185-.102.123-.154.394-.154.813v.918c0 .483-.071.823-.215 1.02-.143.196-.4.322-.769.378.369.061.626.191.769.391.144.199.215.539.215 1.019v.901c0 .422.052.694.154.817.103.126.306.189.611.189h.541zm5.422 0v.84h-.659c-.729 0-1.218-.109-1.467-.325-.247-.217-.37-.649-.37-1.297v-.945c0-.442-.079-.747-.237-.914-.155-.17-.438-.255-.848-.255h-.273v-.839h.273c.41 0 .693-.083.848-.25.158-.167.237-.474.237-.919v-.945c0-.647.123-1.078.37-1.292.249-.216.738-.325 1.467-.325h.659v.835h-.54c-.305 0-.508.062-.611.185-.102.123-.154.394-.154.813v.918c0 .483-.071.823-.215 1.02-.144.196-.4.322-.769.378.369.061.625.191.769.391.144.199.215.539.215 1.019v.901c0 .422.052.694.154.817.103.126.306.189.611.189h.54zm1.499-2.346v-3.204h1.288v3.006c0 .354.049.608.149.76.1.153.265.229.497.229a.606.606 0 00.54-.308c.132-.205.198-.492.198-.861v-2.826h1.287V185h-1.287v-.729a1.195 1.195 0 01-.466.632c-.217.15-.479.224-.787.224-.468 0-.823-.155-1.063-.465-.237-.311-.356-.771-.356-1.38zm9.075-3.05v1.125a2.899 2.899 0 00-.743-.343 2.583 2.583 0 00-.769-.118c-.287 0-.504.042-.65.127a.397.397 0 00-.22.369c0 .234.313.425.94.571l.049.014.369.087c.469.112.811.292 1.028.541.22.246.33.58.33 1.002 0 .507-.167.888-.501 1.143-.331.251-.831.377-1.499.377a6.353 6.353 0 01-1.854-.307v-1.125c.284.161.572.284.865.369.296.085.582.127.857.127.302 0 .531-.044.686-.131a.419.419 0 00.233-.383.454.454 0 00-.167-.378c-.109-.088-.369-.181-.782-.281l-.356-.079c-.493-.111-.851-.286-1.077-.523-.226-.237-.338-.555-.338-.954 0-.474.171-.843.514-1.107.343-.264.824-.396 1.446-.396.278 0 .555.024.83.071.278.044.548.111.809.202zm5.91 4.526a4.83 4.83 0 01-1.898.369c-.823 0-1.453-.219-1.89-.659-.433-.442-.65-1.078-.65-1.907 0-.803.209-1.437.628-1.903.419-.466.991-.699 1.714-.699.73 0 1.295.217 1.696.651.405.431.607 1.038.607 1.824v.523h-3.336c.003.386.118.675.343.865.226.191.563.286 1.011.286.296 0 .587-.043.874-.128.288-.084.588-.219.901-.404v1.182zm-1.089-2.768c-.006-.34-.094-.596-.264-.769-.167-.176-.415-.264-.743-.264-.296 0-.532.091-.707.272-.176.179-.28.434-.312.765l2.026-.004zm6.728-.554a1.38 1.38 0 00-.497-.29 1.91 1.91 0 00-.62-.097c-.272 0-.511.049-.716.145a1.064 1.064 0 00-.47.413 1.17 1.17 0 00-.15.405 4.84 4.84 0 00-.039.72V185h-1.288v-4.922h1.288v.765c.126-.281.319-.498.58-.651.261-.155.565-.233.914-.233.176 0 .347.022.514.066.17.041.331.103.484.185v1.226zm5.783 4.399v.879h-5.419v-.879h5.419zm1.947-1.529v2.566h-1.284v-6.794h1.284v.738c.134-.284.312-.498.531-.641.22-.144.478-.216.774-.216.562 0 .999.226 1.309.677.311.451.466 1.087.466 1.907 0 .832-.158 1.471-.475 1.916-.313.446-.761.668-1.344.668-.264 0-.501-.067-.712-.202a1.786 1.786 0 01-.549-.619zm1.793-1.771c0-.475-.08-.847-.238-1.117-.158-.269-.376-.404-.655-.404-.278 0-.498.135-.659.404-.161.27-.241.642-.241 1.117 0 .474.08.846.241 1.116.161.269.381.404.659.404.279 0 .497-.135.655-.404.158-.27.238-.642.238-1.116zm4.763.153c-.48 0-.816.062-1.006.185-.191.123-.286.334-.286.633 0 .223.066.4.198.532.132.131.31.197.536.197.34 0 .604-.127.791-.382.188-.258.281-.617.281-1.077v-.088h-.514zm1.793-.496V185h-1.279v-.549a1.563 1.563 0 01-.597.501 1.833 1.833 0 01-.805.175c-.559 0-.996-.148-1.309-.443-.311-.296-.466-.709-.466-1.24 0-.574.186-.997.558-1.27.372-.275.948-.413 1.727-.413h.892v-.215c0-.208-.076-.365-.228-.47-.15-.109-.371-.163-.664-.163-.307 0-.606.04-.896.119a4.102 4.102 0 00-.901.369v-1.099c.284-.117.573-.203.866-.259.293-.056.603-.084.931-.084.8 0 1.361.163 1.683.488.326.325.488.907.488 1.745zm4.909-1.96v1.125a2.883 2.883 0 00-1.512-.461c-.287 0-.504.042-.65.127a.397.397 0 00-.22.369c0 .234.313.425.94.571l.049.014.369.087c.469.112.811.292 1.028.541.22.246.33.58.33 1.002 0 .507-.167.888-.501 1.143-.331.251-.831.377-1.499.377a6.353 6.353 0 01-1.854-.307v-1.125c.284.161.573.284.866.369.295.085.581.127.856.127.302 0 .531-.044.686-.131a.419.419 0 00.233-.383.454.454 0 00-.167-.378c-.108-.088-.369-.181-.782-.281l-.356-.079c-.492-.111-.851-.286-1.077-.523-.225-.237-.338-.555-.338-.954 0-.474.171-.843.514-1.107.343-.264.825-.396 1.446-.396.278 0 .555.024.83.071.279.044.548.111.809.202zm5.423 0v1.125a2.899 2.899 0 00-.743-.343 2.583 2.583 0 00-.769-.118c-.287 0-.504.042-.65.127a.397.397 0 00-.22.369c0 .234.313.425.94.571l.049.014.369.087c.469.112.811.292 1.028.541.22.246.33.58.33 1.002 0 .507-.167.888-.501 1.143-.331.251-.831.377-1.499.377a6.37 6.37 0 01-1.854-.307v-1.125c.284.161.572.284.865.369.296.085.582.127.857.127.302 0 .531-.044.686-.131a.419.419 0 00.233-.383.454.454 0 00-.167-.378c-.109-.088-.369-.181-.782-.281l-.356-.079c-.493-.111-.851-.286-1.077-.523-.226-.237-.338-.555-.338-.954 0-.474.171-.843.514-1.107.343-.264.824-.396 1.446-.396.278 0 .555.024.83.071.278.044.548.111.809.202zm1.068-.154h1.072l.584 3.771.532-2.483h1.042l.522 2.483.594-3.771h1.072l-.892 4.922h-1.222l-.597-2.558-.594 2.558h-1.221l-.892-4.922zm8.129.927c-.307 0-.549.137-.725.409-.175.27-.263.646-.263 1.129 0 .484.088.862.263 1.134.176.27.418.405.725.405a.827.827 0 00.73-.405c.176-.272.264-.65.264-1.134 0-.483-.088-.859-.264-1.129-.176-.272-.419-.409-.73-.409zm-2.276 1.538c0-.793.205-1.422.615-1.885.413-.466.967-.699 1.661-.699.698 0 1.251.233 1.662.699.413.463.619 1.092.619 1.885 0 .794-.206 1.424-.619 1.89-.411.463-.964.694-1.662.694-.694 0-1.248-.231-1.661-.694-.41-.466-.615-1.096-.615-1.89zm10.05-1.107a1.368 1.368 0 00-.496-.29 1.91 1.91 0 00-.62-.097c-.272 0-.511.049-.716.145a1.064 1.064 0 00-.47.413 1.15 1.15 0 00-.15.405 4.84 4.84 0 00-.039.72V185h-1.288v-4.922h1.288v.765c.126-.281.319-.498.58-.651.26-.155.565-.233.914-.233.176 0 .347.022.514.066.17.041.331.103.483.185v1.226zm3.841-.659v-2.615h1.283V185h-1.283v-.729a1.543 1.543 0 01-.536.641 1.357 1.357 0 01-.769.215c-.562 0-.999-.225-1.31-.676-.31-.451-.465-1.087-.465-1.908 0-.832.156-1.47.47-1.916.316-.445.766-.668 1.349-.668.264 0 .499.069.707.207.211.135.396.338.554.611zm-1.793 1.775c0 .475.079.847.238 1.116.158.27.376.405.654.405.279 0 .498-.135.659-.405.162-.269.242-.641.242-1.116 0-.474-.08-.846-.242-1.116-.161-.269-.38-.404-.659-.404-.278 0-.496.135-.654.404-.159.27-.238.642-.238 1.116zm4.531 3.076h.532c.304 0 .509-.063.615-.189.105-.126.158-.398.158-.817v-.901c0-.48.072-.82.215-1.019.144-.2.399-.33.765-.391-.369-.056-.625-.182-.769-.378-.141-.197-.211-.537-.211-1.02v-.918c0-.413-.053-.683-.158-.809-.103-.126-.308-.189-.615-.189h-.532v-.835h.659c.727 0 1.212.109 1.455.325.246.214.369.645.369 1.292v.945c0 .443.079.749.237.919.161.167.448.25.862.25h.272v.839h-.272c-.414 0-.701.085-.862.255-.158.17-.237.475-.237.914v.945c0 .648-.123 1.08-.369 1.297-.243.216-.728.325-1.455.325h-.659v-.84zm5.423 0h.532c.304 0 .509-.063.615-.189.105-.126.158-.398.158-.817v-.901c0-.48.072-.82.215-1.019.144-.2.399-.33.765-.391-.369-.056-.625-.182-.769-.378-.141-.197-.211-.537-.211-1.02v-.918c0-.413-.053-.683-.158-.809-.103-.126-.308-.189-.615-.189h-.532v-.835h.659c.727 0 1.211.109 1.455.325.246.214.369.645.369 1.292v.945c0 .443.079.749.237.919.161.167.448.25.861.25h.273v.839h-.273c-.413 0-.7.085-.861.255-.158.17-.237.475-.237.914v.945c0 .648-.123 1.08-.369 1.297-.244.216-.728.325-1.455.325h-.659v-.84zm7.897-7.189v2.439h-1.125v-2.439h1.125z" fill="#A8F2E5"/></g><defs><filter id="filter0_d" x="0" y="0" width="280" height="230" filterUnits="userSpaceOnUse" color-interpolation-filters="sRGB"><feFlood flood-opacity="0" result="BackgroundImageFix"/><feColorMatrix in="SourceAlpha" values="0 0 0 0 0 0 0 0 0 0 0 0 0 0 0 0 0 0 127 0" result="hardAlpha"/><feOffset dy="6"/><feGaussianBlur stdDeviation="10"/><feColorMatrix values="0 0 0 0 0 0 0 0 0 0 0 0 0 0 0 0 0 0 0.08 0"/><feBlend in2="BackgroundImageFix" result="effect1_dropShadow"/><feBlend in="SourceGraphic" in2="effect1_dropShadow" result="shape"/></filter></defs></svg>