<svg width="431" height="534" fill="none" xmlns="http://www.w3.org/2000/svg"><g filter="url(#filter0_d)"><g clip-path="url(#clip0)"><rect x="40" y="32" width="351" height="454" rx="6" fill="#fff"/><g filter="url(#filter1_d)"><path fill="#fff" d="M40 426h351v60H40z"/><path d="M58 447a3 3 0 013-3h147a3 3 0 013 3v18a3 3 0 01-3 3H61a3 3 0 01-3-3v-18z" fill="#E3E6E9"/><path d="M121.883 453.448c-.705 0-1.258.249-1.662.748-.403.499-.605 1.188-.605 2.066 0 .92.194 1.615.58 2.087.389.472.952.708 1.687.708.317 0 .625-.031.922-.093.298-.065.607-.147.928-.246v1.051c-.587.222-1.254.334-1.999.334-1.097 0-1.94-.332-2.528-.995-.588-.667-.882-1.618-.882-2.856 0-.779.142-1.461.426-2.045a3.07 3.07 0 011.241-1.344c.54-.311 1.174-.466 1.902-.466.765 0 1.473.16 2.122.482l-.441 1.02a6.189 6.189 0 00-.804-.313 2.83 2.83 0 00-.887-.138zm6.885 6.552l-.241-.79h-.041c-.273.346-.549.582-.825.708-.277.123-.633.185-1.067.185-.557 0-.993-.151-1.307-.452-.311-.3-.467-.726-.467-1.276 0-.585.217-1.026.651-1.323.435-.297 1.096-.46 1.985-.487l.979-.031v-.302c0-.363-.086-.633-.257-.81-.167-.182-.428-.272-.784-.272-.29 0-.569.043-.836.128a6.302 6.302 0 00-.769.303l-.389-.862a4.13 4.13 0 011.01-.364 4.579 4.579 0 011.035-.128c.722 0 1.265.157 1.631.472.369.314.553.808.553 1.481V460h-.861zm-1.794-.82c.437 0 .787-.122 1.051-.364.266-.246.4-.59.4-1.031v-.492l-.728.031c-.568.02-.981.116-1.241.287-.257.167-.385.425-.385.774 0 .253.075.449.226.59.15.136.376.205.677.205zm9.326.82h-1.21v-3.486c0-.438-.089-.764-.267-.98-.174-.215-.453-.323-.836-.323-.509 0-.882.151-1.117.452-.236.3-.354.805-.354 1.512V460h-1.205v-5.67h.943l.17.743h.061c.171-.27.414-.479.728-.625a2.441 2.441 0 011.046-.221c1.36 0 2.041.692 2.041 2.076V460zm3.963.103c-.858 0-1.511-.25-1.959-.749-.444-.502-.666-1.222-.666-2.158 0-.954.232-1.687.697-2.2.468-.513 1.143-.769 2.025-.769.598 0 1.137.111 1.615.333l-.364.969c-.509-.198-.93-.297-1.261-.297-.981 0-1.472.651-1.472 1.953 0 .636.122 1.115.364 1.436.247.318.605.477 1.077.477a3.09 3.09 0 001.523-.4v1.051a2.406 2.406 0 01-.692.272 4.152 4.152 0 01-.887.082zm5.388 0c-.882 0-1.572-.257-2.071-.77-.496-.516-.744-1.225-.744-2.127 0-.926.231-1.654.693-2.184.461-.53 1.095-.795 1.902-.795.748 0 1.34.227 1.774.682.434.455.651 1.08.651 1.876v.652h-3.779c.017.55.166.974.446 1.271.28.294.675.441 1.185.441.334 0 .646-.031.933-.092.29-.065.601-.171.933-.318v.979a3.71 3.71 0 01-.892.297 5.483 5.483 0 01-1.031.088zm-.22-4.963c-.383 0-.691.121-.923.364-.229.242-.366.596-.41 1.061h2.573c-.006-.468-.119-.822-.338-1.061-.219-.243-.52-.364-.902-.364zm4.998 4.86h-1.204v-7.978h1.204V460z" fill="#38424B"/><path d="M220 447a3 3 0 013-3h147a3 3 0 013 3v18a3 3 0 01-3 3H223a3 3 0 01-3-3v-18z" fill="#fff"/><path d="M287.846 460l-.749-2.082h-2.866l-.733 2.082h-1.292l2.804-7.526h1.334l2.804 7.526h-1.302zm-1.072-3.138l-.702-2.04a15.044 15.044 0 01-.4-1.292c-.092.42-.227.88-.405 1.379l-.677 1.953h2.184zm6.111 3.241c-.717 0-1.274-.259-1.671-.775h-.072c.048.479.072.769.072.872v2.322h-1.205v-8.192h.974c.028.106.084.358.17.758h.061c.376-.574.94-.861 1.692-.861.708 0 1.258.256 1.651.769.396.513.595 1.232.595 2.159 0 .926-.202 1.649-.605 2.168-.4.52-.954.78-1.662.78zm-.292-4.892c-.478 0-.829.141-1.051.421-.219.28-.328.728-.328 1.343v.18c0 .69.109 1.191.328 1.502.219.307.576.461 1.072.461.417 0 .738-.171.964-.513.225-.341.338-.828.338-1.461 0-.635-.113-1.116-.338-1.44-.223-.329-.551-.493-.985-.493zm6.834 4.892c-.717 0-1.274-.259-1.671-.775h-.072c.048.479.072.769.072.872v2.322h-1.205v-8.192h.974c.028.106.084.358.17.758h.061c.376-.574.94-.861 1.692-.861.708 0 1.258.256 1.651.769.396.513.595 1.232.595 2.159 0 .926-.202 1.649-.605 2.168-.4.52-.954.78-1.662.78zm-.292-4.892c-.478 0-.829.141-1.051.421-.219.28-.328.728-.328 1.343v.18c0 .69.109 1.191.328 1.502.219.307.576.461 1.072.461.417 0 .738-.171.964-.513.225-.341.338-.828.338-1.461 0-.635-.113-1.116-.338-1.44-.223-.329-.551-.493-.985-.493zm5.163 4.789h-1.205v-7.978h1.205V460zm.867-5.67h1.312l1.154 3.214c.174.458.29.889.348 1.292h.041c.031-.188.087-.415.169-.682.082-.27.517-1.545 1.303-3.824h1.302l-2.425 6.424c-.441 1.179-1.176 1.768-2.205 1.768-.266 0-.526-.029-.779-.087v-.953c.181.041.388.061.62.061.581 0 .99-.336 1.226-1.01l.21-.533-2.276-5.67z" fill="#38424B"/><path d="M223 444.75h147v-1.5H223v1.5zM372.25 447v18h1.5v-18h-1.5zM370 467.25H223v1.5h147v-1.5zM220.75 465v-18h-1.5v18h1.5zm2.25 2.25a2.25 2.25 0 01-2.25-2.25h-1.5a3.75 3.75 0 003.75 3.75v-1.5zM372.25 465a2.25 2.25 0 01-2.25 2.25v1.5a3.75 3.75 0 003.75-3.75h-1.5zM370 444.75a2.25 2.25 0 012.25 2.25h1.5a3.75 3.75 0 00-3.75-3.75v1.5zm-147-1.5a3.75 3.75 0 00-3.75 3.75h1.5a2.25 2.25 0 012.25-2.25v-1.5z" fill="#0777CF"/></g><g clip-path="url(#clip1)"><g filter="url(#filter2_i)"><path fill="#fff" d="M40 32h351v54H40z"/><path d="M64.445 64l-.855-2.379h-3.276L59.477 64H58l3.205-8.602h1.523L65.934 64h-1.489zm-1.224-3.586l-.803-2.332a17.72 17.72 0 01-.457-1.477c-.105.48-.26 1.006-.463 1.577l-.773 2.232h2.496zM71.488 64l-.193-.85h-.07a1.95 1.95 0 01-.82.71 2.714 2.714 0 01-1.208.257c-.785 0-1.37-.195-1.758-.586-.386-.39-.58-.982-.58-1.775V57.52h1.389v3.996c0 .496.102.869.305 1.119.203.246.521.369.955.369.578 0 1.002-.172 1.271-.516.274-.347.41-.928.41-1.74V57.52h1.383V64h-1.084zm5.461-.996c.336 0 .672-.053 1.008-.158v1.037c-.152.066-.35.12-.592.164-.238.047-.486.07-.744.07-1.305 0-1.957-.687-1.957-2.062v-3.492h-.885v-.61l.95-.504.468-1.37h.85v1.44h1.846v1.044h-1.846v3.468c0 .332.082.578.246.739.168.156.387.234.656.234zm8.01.996h-1.383v-3.984c0-.5-.101-.873-.304-1.12-.2-.246-.518-.369-.956-.369-.578 0-1.004.174-1.277.522-.27.344-.404.922-.404 1.734V64h-1.377v-9.117h1.377v2.314c0 .371-.024.768-.07 1.19h.087a1.92 1.92 0 01.78-.727c.336-.172.726-.258 1.171-.258 1.57 0 2.356.791 2.356 2.373V64zm4.746.117c-1.008 0-1.797-.293-2.367-.879-.566-.59-.85-1.4-.85-2.431 0-1.059.264-1.891.791-2.497.528-.605 1.252-.908 2.174-.908.856 0 1.531.26 2.028.78.496.52.744 1.234.744 2.144v.744h-4.319c.02.63.19 1.114.51 1.453.32.336.772.504 1.353.504a5.09 5.09 0 001.067-.105 5.74 5.74 0 001.066-.363v1.119c-.336.16-.675.273-1.02.34-.343.066-.736.1-1.177.1zm-.252-5.672c-.437 0-.789.139-1.055.416-.261.278-.417.682-.468 1.213h2.941c-.008-.535-.137-.94-.387-1.213-.25-.277-.593-.416-1.03-.416zM99.49 64h-1.383v-3.984c0-.5-.101-.873-.304-1.12-.2-.246-.518-.369-.955-.369-.582 0-1.008.172-1.278.516-.27.344-.404.92-.404 1.729V64h-1.377v-6.48h1.078l.194.85h.07c.195-.31.472-.548.832-.716a2.79 2.79 0 011.195-.252c1.555 0 2.332.791 2.332 2.373V64zm4.33-.996c.336 0 .672-.053 1.008-.158v1.037a2.667 2.667 0 01-.592.164 3.84 3.84 0 01-.744.07c-1.304 0-1.957-.687-1.957-2.062v-3.492h-.885v-.61l.95-.504.468-1.37h.85v1.44h1.846v1.044h-1.846v3.468c0 .332.082.578.246.739.168.156.387.234.656.234zm3.686.996h-1.377v-6.48h1.377V64zm-1.459-8.197c0-.246.066-.436.199-.569.137-.132.33-.199.58-.199.242 0 .43.067.563.2.136.132.205.322.205.568 0 .234-.069.42-.205.556-.133.133-.321.2-.563.2-.25 0-.443-.067-.58-.2-.133-.136-.199-.322-.199-.556zm6.047 8.314c-.981 0-1.727-.285-2.239-.855-.507-.575-.761-1.397-.761-2.467 0-1.09.265-1.928.797-2.514.535-.586 1.306-.879 2.314-.879.684 0 1.299.127 1.846.381l-.416 1.108c-.582-.227-1.063-.34-1.442-.34-1.121 0-1.681.744-1.681 2.232 0 .727.138 1.274.416 1.64.281.364.691.546 1.23.546a3.52 3.52 0 001.74-.457v1.2a2.707 2.707 0 01-.791.311 4.681 4.681 0 01-1.013.094zm7.383-.117l-.276-.902h-.047c-.312.394-.627.664-.943.808-.316.14-.723.211-1.219.211-.637 0-1.135-.172-1.494-.515-.355-.344-.533-.83-.533-1.46 0-.667.248-1.171.744-1.511.496-.34 1.252-.526 2.268-.557l1.119-.035v-.346c0-.414-.098-.722-.293-.925-.192-.208-.49-.311-.897-.311-.332 0-.65.049-.955.146a7.246 7.246 0 00-.879.346l-.445-.984a4.712 4.712 0 011.154-.416 5.219 5.219 0 011.184-.147c.824 0 1.445.18 1.863.54.422.359.633.923.633 1.693V64h-.984zm-2.051-.938c.5 0 .9-.138 1.201-.415.305-.282.457-.674.457-1.178v-.563l-.832.035c-.648.024-1.121.133-1.418.328-.293.192-.439.487-.439.885 0 .29.085.514.257.674.172.156.43.234.774.234zm7.371-.058c.336 0 .672-.053 1.008-.158v1.037a2.78 2.78 0 01-.592.164 3.84 3.84 0 01-.744.07c-1.305 0-1.957-.687-1.957-2.062v-3.492h-.885v-.61l.949-.504.469-1.37h.85v1.44h1.845v1.044h-1.845v3.468c0 .332.082.578.246.739.168.156.386.234.656.234zm3.685.996h-1.377v-6.48h1.377V64zm-1.459-8.197c0-.246.067-.436.2-.569.136-.132.33-.199.58-.199.242 0 .429.067.562.2.137.132.205.322.205.568 0 .234-.068.42-.205.556-.133.133-.32.2-.562.2-.25 0-.444-.067-.58-.2-.133-.136-.2-.322-.2-.556zm9.182 4.945c0 1.059-.271 1.885-.814 2.479-.543.593-1.299.89-2.268.89-.605 0-1.141-.137-1.605-.41a2.708 2.708 0 01-1.073-1.178c-.25-.511-.375-1.105-.375-1.781 0-1.05.27-1.871.809-2.46.539-.59 1.299-.886 2.279-.886.938 0 1.68.303 2.227.908.547.602.82 1.415.82 2.438zm-4.717 0c0 1.496.553 2.244 1.658 2.244 1.094 0 1.641-.748 1.641-2.244 0-1.48-.551-2.22-1.652-2.22-.578 0-.998.19-1.26.574-.258.382-.387.931-.387 1.646zM143.494 64h-1.383v-3.984c0-.5-.101-.873-.304-1.12-.2-.246-.518-.369-.955-.369-.582 0-1.008.172-1.278.516-.269.344-.404.92-.404 1.729V64h-1.377v-6.48h1.078l.193.85h.071c.195-.31.472-.548.832-.716a2.787 2.787 0 011.195-.252c1.555 0 2.332.791 2.332 2.373V64zm9.088 0l-.275-.902h-.047c-.313.394-.627.664-.944.808-.316.14-.722.211-1.218.211-.637 0-1.135-.172-1.494-.515-.356-.344-.534-.83-.534-1.46 0-.667.248-1.171.744-1.511.497-.34 1.252-.526 2.268-.557l1.119-.035v-.346c0-.414-.097-.722-.293-.925-.191-.208-.49-.311-.896-.311-.332 0-.651.049-.955.146a7.182 7.182 0 00-.879.346l-.446-.984a4.72 4.72 0 011.155-.416 5.21 5.21 0 011.183-.147c.825 0 1.446.18 1.864.54.421.359.632.923.632 1.693V64h-.984zm-2.051-.938c.5 0 .901-.138 1.201-.415.305-.282.457-.674.457-1.178v-.563l-.832.035c-.648.024-1.121.133-1.418.328-.293.192-.439.487-.439.885 0 .29.086.514.258.674.172.156.43.234.773.234zm10.658.938h-1.382v-3.984c0-.5-.102-.873-.305-1.12-.199-.246-.518-.369-.955-.369-.582 0-1.008.172-1.277.516-.27.344-.405.92-.405 1.729V64h-1.377v-6.48h1.078l.194.85h.07a1.91 1.91 0 01.832-.716 2.787 2.787 0 011.195-.252c1.555 0 2.332.791 2.332 2.373V64zm4.102.117c-.809 0-1.439-.293-1.893-.879-.453-.586-.679-1.408-.679-2.466 0-1.063.228-1.89.685-2.479.461-.594 1.098-.89 1.91-.89.852 0 1.5.314 1.946.943h.07a8.335 8.335 0 01-.1-1.102v-2.361h1.383V64h-1.078l-.24-.85h-.065c-.441.645-1.087.967-1.939.967zm.369-1.113c.567 0 .979-.158 1.236-.475.258-.32.391-.838.399-1.552v-.194c0-.816-.133-1.396-.399-1.74-.265-.344-.681-.516-1.248-.516-.484 0-.857.198-1.119.592-.261.39-.392.95-.392 1.676 0 .719.127 1.267.381 1.646.253.375.634.563 1.142.563zm13.125-1.33c0 .761-.275 1.36-.826 1.793-.551.433-1.311.65-2.279.65-.969 0-1.762-.15-2.379-.451v-1.324c.39.183.804.328 1.242.433a5.29 5.29 0 001.23.159c.555 0 .963-.106 1.225-.317.266-.21.398-.494.398-.85 0-.32-.121-.591-.363-.814-.242-.223-.742-.486-1.5-.79-.781-.317-1.332-.679-1.652-1.085-.32-.406-.481-.894-.481-1.465 0-.715.254-1.277.762-1.687.508-.41 1.19-.616 2.045-.616.82 0 1.637.18 2.449.54l-.445 1.142c-.762-.32-1.441-.48-2.039-.48-.453 0-.797.1-1.031.298a.962.962 0 00-.352.78c0 .222.047.414.141.574.093.156.248.305.463.445.214.141.601.326 1.16.557.629.262 1.09.506 1.383.732.293.227.507.483.644.768.137.285.205.621.205 1.008zm4.342 2.443c-1.008 0-1.797-.293-2.367-.879-.567-.59-.85-1.4-.85-2.431 0-1.059.264-1.891.791-2.497.528-.605 1.252-.908 2.174-.908.855 0 1.531.26 2.027.78.496.52.744 1.234.744 2.144v.744h-4.318c.02.63.19 1.114.51 1.453.32.336.771.504 1.353.504.383 0 .739-.035 1.067-.105a5.742 5.742 0 001.066-.363v1.119a4.27 4.27 0 01-1.019.34 6.26 6.26 0 01-1.178.1zm-.252-5.672c-.437 0-.789.139-1.055.416-.261.278-.418.682-.468 1.213h2.941c-.008-.535-.137-.94-.387-1.213-.25-.277-.593-.416-1.031-.416zm6.75 4.559c.336 0 .672-.053 1.008-.158v1.037a2.78 2.78 0 01-.592.164 3.84 3.84 0 01-.744.07c-1.305 0-1.957-.687-1.957-2.062v-3.492h-.885v-.61l.949-.504.469-1.37h.85v1.44h1.845v1.044h-1.845v3.468c0 .332.082.578.246.739.168.156.386.234.656.234zm4.723 0c.336 0 .672-.053 1.007-.158v1.037a2.672 2.672 0 01-.591.164c-.239.047-.487.07-.744.07-1.305 0-1.957-.687-1.957-2.062v-3.492h-.885v-.61l.949-.504.469-1.37h.849v1.44h1.846v1.044h-1.846v3.468c0 .332.082.578.246.739.168.156.387.234.657.234zm3.685.996h-1.377v-6.48h1.377V64zm-1.459-8.197c0-.246.067-.436.199-.569.137-.132.331-.199.581-.199.242 0 .429.067.562.2.137.132.205.322.205.568 0 .234-.068.42-.205.556-.133.133-.32.2-.562.2-.25 0-.444-.067-.581-.2-.132-.136-.199-.322-.199-.556zM205.709 64h-1.383v-3.984c0-.5-.101-.873-.304-1.12-.2-.246-.518-.369-.956-.369-.582 0-1.007.172-1.277.516-.269.344-.404.92-.404 1.729V64h-1.377v-6.48h1.078l.193.85h.071c.195-.31.472-.548.832-.716a2.784 2.784 0 011.195-.252c1.555 0 2.332.791 2.332 2.373V64zm7.389-6.48v.755l-1.108.206a1.971 1.971 0 01.352 1.137c0 .667-.231 1.192-.692 1.575-.461.383-1.095.575-1.904.575-.207 0-.394-.016-.562-.047-.297.183-.446.398-.446.644 0 .149.069.26.205.334.141.074.397.111.768.111h1.131c.715 0 1.258.153 1.629.458.371.304.556.744.556 1.318 0 .734-.302 1.3-.908 1.7-.605.398-1.48.597-2.625.597-.883 0-1.556-.156-2.021-.469-.465-.312-.698-.758-.698-1.336 0-.398.125-.734.375-1.008.254-.27.608-.457 1.061-.562a1.057 1.057 0 01-.457-.375.98.98 0 01-.176-.551c0-.242.068-.447.205-.615.137-.168.34-.334.61-.498a1.829 1.829 0 01-.821-.703 2.106 2.106 0 01-.31-1.149c0-.703.22-1.248.662-1.635.445-.386 1.078-.58 1.898-.58.184 0 .375.014.574.041.204.024.356.05.458.077h2.244zm-5.092 7.488c0 .297.133.525.398.685.27.16.647.24 1.131.24.75 0 1.309-.107 1.676-.322.367-.215.551-.5.551-.855 0-.281-.102-.483-.305-.604-.199-.117-.572-.175-1.119-.175h-1.043c-.395 0-.709.091-.943.275a.923.923 0 00-.346.756zm.592-5.39c0 .405.103.718.31.937.211.218.512.328.903.328.796 0 1.195-.426 1.195-1.278 0-.421-.1-.746-.299-.972-.195-.23-.494-.346-.896-.346-.399 0-.702.113-.909.34-.203.226-.304.557-.304.99zm10.06 2.536c0 .633-.23 1.12-.691 1.46-.461.335-1.121.503-1.981.503-.863 0-1.556-.13-2.08-.392v-1.19c.762.352 1.471.528 2.127.528.848 0 1.272-.256 1.272-.768 0-.164-.047-.3-.141-.41-.094-.11-.248-.223-.463-.34a7.941 7.941 0 00-.896-.398c-.746-.29-1.252-.579-1.518-.868-.262-.289-.392-.664-.392-1.125 0-.554.222-.984.668-1.289.449-.308 1.058-.463 1.828-.463.761 0 1.482.155 2.162.463l-.446 1.037c-.699-.289-1.287-.433-1.763-.433-.727 0-1.09.207-1.09.62 0 .204.094.376.281.517.192.14.606.334 1.242.58.536.207.924.396 1.166.568.243.172.422.371.539.598.118.222.176.49.176.802zm7.863-3.592h-1.582V64h-1.382v-5.438h-1.067v-.644l1.067-.422v-.422c0-.765.179-1.332.539-1.699.359-.371.908-.557 1.646-.557.485 0 .961.08 1.43.24l-.363 1.044a3.175 3.175 0 00-.973-.164c-.313 0-.541.097-.686.292-.14.192-.211.48-.211.868v.422h1.582v1.042zm6.856 2.186c0 1.059-.272 1.885-.814 2.479-.543.593-1.299.89-2.268.89-.606 0-1.141-.137-1.606-.41a2.712 2.712 0 01-1.072-1.178c-.25-.511-.375-1.105-.375-1.781 0-1.05.27-1.871.809-2.46.539-.59 1.299-.886 2.279-.886.938 0 1.68.303 2.227.908.547.602.82 1.415.82 2.438zm-4.717 0c0 1.496.553 2.244 1.658 2.244 1.094 0 1.641-.748 1.641-2.244 0-1.48-.551-2.22-1.652-2.22-.578 0-.998.19-1.26.574-.258.382-.387.931-.387 1.646zm9.592-3.346c.277 0 .506.02.686.059l-.135 1.283a2.616 2.616 0 00-.61-.07c-.55 0-.998.18-1.341.539-.34.36-.51.826-.51 1.4V64h-1.377v-6.48h1.078l.182 1.142h.07c.215-.387.494-.693.838-.92.347-.226.721-.34 1.119-.34z" fill="#2F373E"/><path d="M246 59a9 9 0 019-9 9 9 0 019 9 9 9 0 01-9 9 9 9 0 01-9-9z" fill="#9CC9EC"/><path fill-rule="evenodd" clip-rule="evenodd" d="M252 56c0 1.039.528 1.954 1.33 2.493a4.252 4.252 0 00-2.83 4.007v1A1.5 1.5 0 00252 65h6a1.5 1.5 0 001.5-1.5v-1a4.252 4.252 0 00-2.83-4.007A3 3 0 10252 56zm0 6.5a2.75 2.75 0 012.75-2.75h.5A2.75 2.75 0 01258 62.5v1h-6v-1zm4.5-6.5a1.5 1.5 0 11-3 0 1.5 1.5 0 013 0z" fill="#546470"/><path d="M272.531 59.418h.973c.652 0 1.125-.121 1.418-.363.293-.242.439-.602.439-1.078 0-.485-.158-.832-.474-1.043-.317-.211-.793-.317-1.43-.317h-.926v2.801zm0 1.16V64h-1.4v-8.566h2.42c1.105 0 1.924.207 2.455.62.531.415.797 1.04.797 1.876 0 1.066-.555 1.826-1.664 2.279l2.42 3.791h-1.594l-2.051-3.422h-1.383zm8.959 3.54c-1.008 0-1.797-.294-2.367-.88-.566-.59-.85-1.4-.85-2.431 0-1.059.264-1.891.791-2.497.528-.605 1.252-.908 2.174-.908.856 0 1.532.26 2.028.78s.744 1.234.744 2.144v.744h-4.319c.02.63.19 1.114.51 1.453.32.336.772.504 1.354.504.383 0 .738-.035 1.066-.105a5.75 5.75 0 001.067-.363v1.119c-.336.16-.676.273-1.02.34-.344.066-.736.1-1.178.1zm-.252-5.673c-.437 0-.789.139-1.054.416-.262.278-.418.682-.469 1.213h2.941c-.008-.535-.136-.94-.386-1.213-.25-.277-.594-.416-1.032-.416zm6.95 5.672c-.981 0-1.727-.285-2.239-.855-.508-.575-.761-1.397-.761-2.467 0-1.09.265-1.928.796-2.514.536-.586 1.307-.879 2.315-.879.683 0 1.299.127 1.846.381l-.416 1.108c-.583-.227-1.063-.34-1.442-.34-1.121 0-1.682.744-1.682 2.232 0 .727.139 1.274.416 1.64.282.364.692.546 1.231.546a3.53 3.53 0 001.74-.457v1.2a2.69 2.69 0 01-.791.311 4.681 4.681 0 01-1.013.094zm4.705-.117h-1.377v-6.48h1.377V64zm-1.459-8.197c0-.246.066-.436.199-.569.137-.132.33-.199.58-.199.242 0 .43.067.562.2.137.132.205.322.205.568 0 .234-.068.42-.205.556-.132.133-.32.2-.562.2-.25 0-.443-.067-.58-.2-.133-.136-.199-.322-.199-.556zm6.72 8.314c-.82 0-1.457-.295-1.91-.885h-.082c.055.547.082.88.082.996v2.655h-1.377V57.52h1.113c.032.12.096.41.194.867h.07c.43-.657 1.074-.985 1.934-.985.808 0 1.437.293 1.886.88.454.585.68 1.408.68 2.466 0 1.059-.23 1.885-.691 2.479-.457.593-1.09.89-1.899.89zm-.334-5.59c-.547 0-.947.16-1.201.48-.25.321-.375.833-.375 1.536v.205c0 .79.125 1.361.375 1.717.25.351.658.527 1.225.527.476 0 .844-.195 1.101-.586.258-.39.387-.947.387-1.67 0-.726-.129-1.275-.387-1.646-.254-.375-.629-.563-1.125-.563zM303.721 64h-1.377v-6.48h1.377V64zm-1.459-8.197c0-.246.066-.436.199-.569.137-.132.33-.199.58-.199.242 0 .43.067.563.2.136.132.205.322.205.568 0 .234-.069.42-.205.556-.133.133-.321.2-.563.2-.25 0-.443-.067-.58-.2-.133-.136-.199-.322-.199-.556zm6.263 8.314c-1.007 0-1.796-.293-2.367-.879-.566-.59-.849-1.4-.849-2.431 0-1.059.263-1.891.791-2.497.527-.605 1.252-.908 2.173-.908.856 0 1.532.26 2.028.78s.744 1.234.744 2.144v.744h-4.318c.019.63.189 1.114.509 1.453.321.336.772.504 1.354.504.383 0 .738-.035 1.066-.105a5.75 5.75 0 001.067-.363v1.119c-.336.16-.676.273-1.02.34-.344.066-.736.1-1.178.1zm-.252-5.672c-.437 0-.789.139-1.054.416-.262.278-.418.682-.469 1.213h2.941c-.007-.535-.136-.94-.386-1.213-.25-.277-.594-.416-1.032-.416zM318.311 64h-1.383v-3.984c0-.5-.102-.873-.305-1.12-.199-.246-.518-.369-.955-.369-.582 0-1.008.172-1.277.516-.27.344-.405.92-.405 1.729V64h-1.377v-6.48h1.079l.193.85h.07a1.91 1.91 0 01.832-.716c.36-.168.758-.252 1.196-.252 1.554 0 2.332.791 2.332 2.373V64zm4.33-.996c.336 0 .672-.053 1.007-.158v1.037a2.672 2.672 0 01-.591.164c-.239.047-.487.07-.744.07-1.305 0-1.958-.687-1.958-2.062v-3.492h-.884v-.61l.949-.504.469-1.37h.849v1.44h1.846v1.044h-1.846v3.468c0 .332.082.578.246.739.168.156.387.234.657.234zm9.011.996h-1.377v-5.531c0-.66.016-1.184.047-1.57a4.6 4.6 0 01-.334.31c-.129.113-.566.473-1.312 1.078l-.692-.873 2.52-1.98h1.148V64z" fill="#2F373E"/></g><g clip-path="url(#clip2)"><path d="M63.64 117l-.749-2.082h-2.866L59.292 117H58l2.804-7.526h1.334L64.942 117H63.64zm-1.072-3.138l-.702-2.04a15.365 15.365 0 01-.4-1.292c-.093.42-.227.88-.405 1.379l-.677 1.953h2.184zM69.802 117l-.169-.743h-.061c-.168.263-.407.47-.718.62a2.38 2.38 0 01-1.056.226c-.687 0-1.2-.171-1.538-.513-.339-.342-.508-.86-.508-1.554v-3.706h1.215v3.496c0 .434.089.761.267.979.177.216.456.323.835.323.506 0 .877-.15 1.113-.451.24-.304.359-.812.359-1.522v-2.825h1.21V117h-.949zm4.779-.872c.293 0 .587-.046.881-.138v.907a2.317 2.317 0 01-.517.144 3.368 3.368 0 01-.651.062c-1.142 0-1.713-.602-1.713-1.805v-3.056h-.774v-.533l.83-.441.41-1.2h.744v1.262h1.615v.912h-1.615v3.035c0 .291.072.506.215.646a.808.808 0 00.575.205zm7.008.872h-1.21v-3.486c0-.438-.089-.764-.266-.98-.175-.215-.453-.323-.836-.323-.506 0-.879.153-1.118.457-.236.301-.354.806-.354 1.517V117h-1.204v-7.978h1.204v2.026c0 .324-.02.671-.061 1.04h.077c.164-.273.391-.485.682-.635a2.214 2.214 0 011.025-.226c1.374 0 2.061.692 2.061 2.076V117zm4.153.103c-.882 0-1.572-.257-2.071-.77-.496-.516-.744-1.225-.744-2.127 0-.926.231-1.654.692-2.184.462-.53 1.096-.795 1.903-.795.748 0 1.34.227 1.773.682.434.455.651 1.08.651 1.876v.652h-3.778c.017.55.166.974.446 1.271.28.294.675.441 1.184.441.335 0 .646-.031.933-.092.291-.065.602-.171.934-.318v.979c-.294.14-.592.239-.893.297-.3.058-.644.088-1.03.088zm-.22-4.963c-.383 0-.69.121-.923.364-.23.242-.366.596-.41 1.061h2.573c-.007-.468-.12-.822-.338-1.061-.219-.243-.52-.364-.903-.364zm8.782 4.86h-1.21v-3.486c0-.438-.089-.764-.267-.98-.174-.215-.453-.323-.835-.323-.51 0-.882.151-1.118.452-.236.3-.354.805-.354 1.512V117h-1.205v-5.67h.944l.169.743h.062c.17-.27.413-.479.728-.625a2.44 2.44 0 011.045-.221c1.36 0 2.041.692 2.041 2.076V117zm3.789-.872c.294 0 .588-.046.882-.138v.907a2.317 2.317 0 01-.518.144 3.367 3.367 0 01-.651.062c-1.142 0-1.713-.602-1.713-1.805v-3.056h-.774v-.533l.83-.441.41-1.2h.744v1.262h1.615v.912h-1.615v3.035c0 .291.072.506.216.646a.808.808 0 00.574.205zm3.225.872h-1.205v-5.67h1.205V117zm-1.277-7.173c0-.215.058-.381.174-.497.12-.116.289-.174.508-.174.212 0 .376.058.492.174.12.116.18.282.18.497 0 .205-.06.368-.18.487-.116.117-.28.175-.492.175-.219 0-.388-.058-.508-.175-.116-.119-.174-.282-.174-.487zm5.291 7.276c-.858 0-1.511-.25-1.958-.749-.445-.502-.667-1.222-.667-2.158 0-.954.232-1.687.697-2.2.469-.513 1.144-.769 2.025-.769.599 0 1.137.111 1.615.333l-.364.969c-.509-.198-.929-.297-1.261-.297-.981 0-1.471.651-1.471 1.953 0 .636.121 1.115.364 1.436.246.318.605.477 1.076.477.537 0 1.045-.134 1.523-.4v1.051a2.395 2.395 0 01-.692.272 4.146 4.146 0 01-.887.082zm6.46-.103l-.241-.79h-.041c-.273.346-.549.582-.825.708-.277.123-.633.185-1.067.185-.557 0-.993-.151-1.307-.452-.311-.3-.467-.726-.467-1.276 0-.585.217-1.026.651-1.323.434-.297 1.096-.46 1.984-.487l.98-.031v-.302c0-.363-.086-.633-.257-.81-.167-.182-.429-.272-.784-.272-.291 0-.569.043-.836.128a6.302 6.302 0 00-.769.303l-.389-.862a4.13 4.13 0 011.01-.364 4.579 4.579 0 011.035-.128c.721 0 1.265.157 1.631.472.369.314.553.808.553 1.481V117h-.861zm-1.794-.82c.437 0 .787-.122 1.051-.364.266-.246.399-.59.399-1.031v-.492l-.728.031c-.567.02-.98.116-1.24.287-.257.167-.385.425-.385.774 0 .253.075.449.226.59.15.136.376.205.677.205zm6.449-.052c.294 0 .588-.046.882-.138v.907a2.313 2.313 0 01-.518.144 3.36 3.36 0 01-.651.062c-1.141 0-1.712-.602-1.712-1.805v-3.056h-.774v-.533l.83-.441.41-1.2h.744v1.262h1.615v.912h-1.615v3.035c0 .291.071.506.215.646a.807.807 0 00.574.205zm3.225.872h-1.205v-5.67h1.205V117zm-1.276-7.173c0-.215.058-.381.174-.497.119-.116.289-.174.507-.174.212 0 .376.058.493.174.119.116.179.282.179.497 0 .205-.06.368-.179.487-.117.117-.281.175-.493.175-.218 0-.388-.058-.507-.175-.116-.119-.174-.282-.174-.487zm8.033 4.328c0 .926-.237 1.649-.712 2.168-.475.52-1.137.78-1.984.78-.53 0-.998-.12-1.405-.359a2.367 2.367 0 01-.938-1.031c-.219-.448-.328-.967-.328-1.558 0-.92.235-1.638.707-2.154s1.137-.774 1.994-.774c.821 0 1.47.265 1.949.795.478.526.717 1.237.717 2.133zm-4.127 0c0 1.309.484 1.963 1.451 1.963.957 0 1.436-.654 1.436-1.963 0-1.296-.482-1.944-1.446-1.944-.506 0-.873.168-1.102.503-.226.335-.339.815-.339 1.441zM132.807 117h-1.21v-3.486c0-.438-.088-.764-.266-.98-.174-.215-.453-.323-.836-.323-.509 0-.882.151-1.118.452-.235.3-.353.805-.353 1.512V117h-1.205v-5.67h.943l.169.743h.062c.171-.27.414-.479.728-.625a2.438 2.438 0 011.046-.221c1.36 0 2.04.692 2.04 2.076V117zm7.122 0h-1.226v-6.445h-2.204v-1.051h5.634v1.051h-2.204V117zm2.368-5.67h1.313l1.153 3.214c.175.458.291.889.349 1.292h.041c.031-.188.087-.415.169-.682.082-.27.516-1.545 1.303-3.824h1.302l-2.425 6.424c-.441 1.179-1.176 1.768-2.205 1.768-.266 0-.526-.029-.779-.087v-.953c.181.041.388.061.62.061.581 0 .99-.336 1.226-1.01l.21-.533-2.277-5.67zm9.367 5.773c-.717 0-1.275-.259-1.671-.775h-.072c.048.479.072.769.072.872v2.322h-1.205v-8.192h.974c.028.106.084.358.169.758h.062c.376-.574.94-.861 1.692-.861.707 0 1.258.256 1.651.769.396.513.594 1.232.594 2.159 0 .926-.201 1.649-.605 2.168-.399.52-.953.78-1.661.78zm-.292-4.892c-.478 0-.829.141-1.051.421-.219.28-.328.728-.328 1.343v.18c0 .69.109 1.191.328 1.502.219.307.576.461 1.072.461.417 0 .738-.171.963-.513.226-.341.339-.828.339-1.461 0-.635-.113-1.116-.339-1.44-.222-.329-.55-.493-.984-.493zm6.434 4.892c-.881 0-1.572-.257-2.071-.77-.495-.516-.743-1.225-.743-2.127 0-.926.23-1.654.692-2.184.461-.53 1.095-.795 1.902-.795.748 0 1.34.227 1.774.682.434.455.651 1.08.651 1.876v.652h-3.779c.018.55.166.974.446 1.271.281.294.676.441 1.185.441.335 0 .646-.031.933-.092.29-.065.601-.171.933-.318v.979c-.294.14-.591.239-.892.297a5.476 5.476 0 01-1.031.088zm-.22-4.963c-.383 0-.69.121-.923.364-.229.242-.366.596-.41 1.061h2.574c-.007-.468-.12-.822-.339-1.061-.218-.243-.519-.364-.902-.364z" fill="#38424B"/><path d="M58 128a3 3 0 013-3h309a3 3 0 013 3v18a3 3 0 01-3 3H61a3 3 0 01-3-3v-18z" fill="#fff"/><path d="M358.22 135.72a.749.749 0 000 1.06l2.25 2.25a.749.749 0 001.06 0l2.25-2.25a.749.749 0 10-1.06-1.06l-1.72 1.719-1.72-1.719a.749.749 0 00-1.06 0z" fill="#546470"/><path d="M89.234 141h-1.502l-3.686-5.973h-.041l.025.333c.048.636.072 1.217.072 1.744V141H82.99v-7.496h1.486l3.676 5.943h.031c-.007-.079-.02-.364-.04-.857a29.335 29.335 0 01-.032-1.158v-3.928h1.123V141zm6.88-2.845c0 .926-.237 1.649-.712 2.168-.475.52-1.137.78-1.984.78-.53 0-.998-.12-1.405-.359a2.374 2.374 0 01-.938-1.031c-.219-.448-.328-.967-.328-1.558 0-.92.235-1.638.707-2.154s1.137-.774 1.995-.774c.82 0 1.47.265 1.948.795.478.526.718 1.237.718 2.133zm-4.127 0c0 1.309.484 1.963 1.451 1.963.957 0 1.436-.654 1.436-1.963 0-1.296-.482-1.944-1.446-1.944-.506 0-.873.168-1.102.503-.226.335-.339.815-.339 1.441zM105.01 141l-.749-2.082h-2.866l-.733 2.082H99.37l2.805-7.526h1.333l2.804 7.526h-1.302zm-1.072-3.138l-.702-2.04a15.062 15.062 0 01-.4-1.292c-.092.42-.227.88-.405 1.379l-.677 1.953h2.184zm7.234 3.138l-.169-.743h-.061c-.168.263-.407.47-.718.62-.308.15-.66.226-1.056.226-.687 0-1.2-.171-1.538-.513-.339-.342-.508-.86-.508-1.554v-3.706h1.215v3.496c0 .434.089.761.267.979.177.216.456.323.835.323.506 0 .877-.15 1.113-.451.239-.304.359-.812.359-1.522v-2.825h1.21V141h-.949zm4.779-.872c.294 0 .588-.046.882-.138v.907a2.329 2.329 0 01-.518.144 3.375 3.375 0 01-.651.062c-1.142 0-1.713-.602-1.713-1.805v-3.056h-.774v-.533l.831-.441.41-1.2h.743v1.262h1.615v.912h-1.615v3.035c0 .291.072.506.215.646a.81.81 0 00.575.205zm7.008.872h-1.21v-3.486c0-.438-.089-.764-.266-.98-.175-.215-.453-.323-.836-.323-.506 0-.878.153-1.118.457-.236.301-.353.806-.353 1.517V141h-1.205v-7.978h1.205v2.026c0 .324-.021.671-.062 1.04h.077c.164-.273.391-.485.682-.635a2.215 2.215 0 011.025-.226c1.374 0 2.061.692 2.061 2.076V141zm4.153.103c-.882 0-1.572-.257-2.071-.77-.496-.516-.744-1.225-.744-2.127 0-.926.231-1.654.693-2.184.461-.53 1.095-.795 1.902-.795.748 0 1.339.227 1.774.682.434.455.651 1.08.651 1.876v.652h-3.779c.017.55.166.974.446 1.271.28.294.675.441 1.184.441.335 0 .646-.031.934-.092.29-.065.601-.171.933-.318v.979a3.71 3.71 0 01-.892.297 5.483 5.483 0 01-1.031.088zm-.22-4.963c-.383 0-.691.121-.923.364-.229.242-.366.596-.41 1.061h2.573c-.007-.468-.119-.822-.338-1.061-.219-.243-.52-.364-.902-.364zm8.782 4.86h-1.21v-3.486c0-.438-.089-.764-.266-.98-.175-.215-.453-.323-.836-.323-.509 0-.882.151-1.118.452-.236.3-.354.805-.354 1.512V141h-1.204v-5.67h.943l.169.743h.062c.171-.27.413-.479.728-.625a2.438 2.438 0 011.046-.221c1.36 0 2.04.692 2.04 2.076V141zm3.789-.872c.294 0 .588-.046.882-.138v.907a2.329 2.329 0 01-.518.144 3.375 3.375 0 01-.651.062c-1.142 0-1.713-.602-1.713-1.805v-3.056h-.774v-.533l.831-.441.41-1.2h.743v1.262h1.615v.912h-1.615v3.035c0 .291.072.506.216.646a.807.807 0 00.574.205zm3.225.872h-1.205v-5.67h1.205V141zm-1.277-7.173c0-.215.058-.381.174-.497.12-.116.289-.174.508-.174.212 0 .376.058.492.174.12.116.18.282.18.497 0 .205-.06.368-.18.487-.116.117-.28.175-.492.175-.219 0-.388-.058-.508-.175-.116-.119-.174-.282-.174-.487zm5.291 7.276c-.858 0-1.511-.25-1.958-.749-.445-.502-.667-1.222-.667-2.158 0-.954.233-1.687.697-2.2.469-.513 1.144-.769 2.026-.769.598 0 1.136.111 1.615.333l-.364.969c-.51-.198-.93-.297-1.262-.297-.981 0-1.471.651-1.471 1.953 0 .636.121 1.115.364 1.436.246.318.605.477 1.077.477.536 0 1.044-.134 1.522-.4v1.051a2.395 2.395 0 01-.692.272 4.146 4.146 0 01-.887.082zm6.46-.103l-.241-.79h-.041c-.273.346-.548.582-.825.708-.277.123-.633.185-1.067.185-.557 0-.993-.151-1.307-.452-.311-.3-.467-.726-.467-1.276 0-.585.217-1.026.651-1.323.435-.297 1.096-.46 1.985-.487l.979-.031v-.302c0-.363-.086-.633-.256-.81-.168-.182-.429-.272-.785-.272-.29 0-.569.043-.836.128a6.302 6.302 0 00-.769.303l-.389-.862a4.13 4.13 0 011.01-.364 4.579 4.579 0 011.035-.128c.722 0 1.265.157 1.631.472.369.314.553.808.553 1.481V141h-.861zm-1.794-.82c.437 0 .788-.122 1.051-.364.266-.246.4-.59.4-1.031v-.492l-.728.031c-.568.02-.981.116-1.241.287-.256.167-.385.425-.385.774 0 .253.076.449.226.59.15.136.376.205.677.205zm6.449-.052c.294 0 .588-.046.882-.138v.907a2.313 2.313 0 01-.518.144 3.36 3.36 0 01-.651.062c-1.141 0-1.712-.602-1.712-1.805v-3.056h-.774v-.533l.83-.441.41-1.2h.744v1.262h1.615v.912h-1.615v3.035c0 .291.072.506.215.646a.809.809 0 00.574.205zm3.225.872h-1.205v-5.67h1.205V141zm-1.276-7.173c0-.215.058-.381.174-.497.12-.116.289-.174.508-.174.211 0 .375.058.492.174.119.116.179.282.179.497 0 .205-.06.368-.179.487-.117.117-.281.175-.492.175-.219 0-.388-.058-.508-.175-.116-.119-.174-.282-.174-.487zm8.034 4.328c0 .926-.238 1.649-.713 2.168-.475.52-1.137.78-1.984.78-.53 0-.998-.12-1.405-.359a2.373 2.373 0 01-.938-1.031c-.219-.448-.328-.967-.328-1.558 0-.92.235-1.638.707-2.154s1.137-.774 1.995-.774c.82 0 1.469.265 1.948.795.478.526.718 1.237.718 2.133zm-4.128 0c0 1.309.484 1.963 1.451 1.963.957 0 1.436-.654 1.436-1.963 0-1.296-.482-1.944-1.446-1.944-.506 0-.873.168-1.102.503-.226.335-.339.815-.339 1.441zM174.177 141h-1.209v-3.486c0-.438-.089-.764-.267-.98-.174-.215-.453-.323-.836-.323-.509 0-.882.151-1.117.452-.236.3-.354.805-.354 1.512V141h-1.205v-5.67h.943l.17.743h.061c.171-.27.414-.479.728-.625a2.441 2.441 0 011.046-.221c1.36 0 2.04.692 2.04 2.076V141z" fill="#38424B"/><path fill-rule="evenodd" clip-rule="evenodd" d="M70 143a6 6 0 110-12 6 6 0 010 12zm3.668-3.393a4.5 4.5 0 00-6.275-6.275l6.275 6.275zm-1.06 1.061a4.5 4.5 0 01-6.275-6.275l6.274 6.275z" fill="#667988"/><path d="M61 125.75h309v-1.5H61v1.5zM372.25 128v18h1.5v-18h-1.5zM370 148.25H61v1.5h309v-1.5zM58.75 146v-18h-1.5v18h1.5zm2.25 2.25a2.25 2.25 0 01-2.25-2.25h-1.5a3.75 3.75 0 003.75 3.75v-1.5zM372.25 146a2.25 2.25 0 01-2.25 2.25v1.5a3.75 3.75 0 003.75-3.75h-1.5zM370 125.75a2.25 2.25 0 012.25 2.25h1.5a3.75 3.75 0 00-3.75-3.75v1.5zm-309-1.5a3.75 3.75 0 00-3.75 3.75h1.5a2.25 2.25 0 012.25-2.25v-1.5z" fill="#81919D"/><path d="M58 161.5a.5.5 0 01.5-.5h314a.5.5 0 010 1h-314a.5.5 0 01-.5-.5z" fill="#E3E6E9"/><path d="M65.085 183.18c0 1.238-.343 2.185-1.03 2.841-.687.653-1.677.979-2.969.979H58.99v-7.496h2.317c1.193 0 2.12.322 2.784.964.663.643.994 1.547.994 2.712zm-1.291.041c0-1.794-.84-2.691-2.518-2.691h-1.061v5.439h.871c1.805 0 2.708-.916 2.708-2.748zM70.12 187l-.24-.79h-.042c-.273.346-.548.582-.825.708-.277.123-.633.185-1.067.185-.557 0-.993-.151-1.307-.452-.311-.3-.467-.726-.467-1.276 0-.585.217-1.026.651-1.323.435-.297 1.096-.46 1.985-.487l.979-.031v-.302c0-.363-.086-.633-.257-.81-.167-.182-.428-.272-.784-.272-.29 0-.569.043-.836.128a6.27 6.27 0 00-.769.303l-.39-.862a4.16 4.16 0 011.01-.364 4.585 4.585 0 011.036-.128c.722 0 1.265.157 1.63.472.37.314.554.808.554 1.481V187h-.86zm-1.794-.82c.437 0 .788-.122 1.05-.364.267-.246.4-.59.4-1.031v-.492l-.727.031c-.568.02-.981.116-1.241.287-.257.167-.385.425-.385.774 0 .253.076.449.226.59.15.136.376.205.677.205zm3.476-4.85h1.312l1.154 3.214c.174.458.29.889.349 1.292h.04a5.29 5.29 0 01.17-.682c.082-.27.516-1.545 1.302-3.824h1.302l-2.425 6.424c-.44 1.179-1.176 1.768-2.204 1.768a3.48 3.48 0 01-.78-.087v-.953c.181.041.388.061.62.061.582 0 .99-.336 1.226-1.01l.21-.533-2.276-5.67zm10.3 4.055c0 .554-.202.979-.605 1.277-.403.294-.981.441-1.733.441-.755 0-1.362-.115-1.82-.344v-1.041c.666.308 1.287.462 1.86.462.743 0 1.114-.224 1.114-.672a.534.534 0 00-.124-.359 1.439 1.439 0 00-.405-.297 6.904 6.904 0 00-.784-.349c-.653-.253-1.096-.506-1.328-.759-.229-.253-.343-.581-.343-.984 0-.485.194-.861.584-1.128.393-.27.926-.405 1.6-.405.666 0 1.297.135 1.892.405l-.39.908c-.612-.253-1.126-.38-1.543-.38-.636 0-.954.181-.954.544 0 .177.082.328.246.451.168.123.53.292 1.087.507.468.182.808.347 1.02.498.212.15.37.324.472.523.103.194.154.429.154.702zm10.038-5.881v4.85c0 .554-.12 1.04-.359 1.457a2.369 2.369 0 01-1.03.958c-.448.222-.984.334-1.61.334-.93 0-1.653-.247-2.169-.739s-.774-1.169-.774-2.03v-4.83h1.23v4.743c0 .618.144 1.075.431 1.369.288.294.728.441 1.323.441 1.155 0 1.733-.607 1.733-1.82v-4.733h1.225zM98.918 187h-1.21v-3.486c0-.438-.089-.764-.266-.98-.175-.215-.453-.323-.836-.323-.51 0-.882.151-1.118.452-.236.3-.353.805-.353 1.512V187H93.93v-5.67h.943l.17.743h.06c.172-.27.414-.479.729-.625a2.44 2.44 0 011.046-.221c1.36 0 2.04.692 2.04 2.076V187zm3.789-.872c.294 0 .588-.046.882-.138v.907a2.313 2.313 0 01-.518.144 3.36 3.36 0 01-.651.062c-1.142 0-1.712-.602-1.712-1.805v-3.056h-.775v-.533l.831-.441.41-1.2h.743v1.262h1.615v.912h-1.615v3.035c0 .291.072.506.216.646a.807.807 0 00.574.205zm3.225.872h-1.205v-5.67h1.205V187zm-1.277-7.173c0-.215.058-.381.175-.497.119-.116.288-.174.507-.174.212 0 .376.058.492.174.12.116.18.282.18.497 0 .205-.06.368-.18.487-.116.117-.28.175-.492.175-.219 0-.388-.058-.507-.175-.117-.119-.175-.282-.175-.487zm4.21 7.173h-1.205v-7.978h1.205V187zm8.823 0h-4.24v-7.496h4.24v1.036h-3.015v2.041h2.825v1.025h-2.825v2.353h3.015V187zm2.758-2.897l-1.902-2.773h1.374l1.292 1.984 1.302-1.984h1.364l-1.907 2.773 2.005 2.897h-1.364l-1.4-2.123-1.394 2.123h-1.364l1.994-2.897zm7.398 3c-.717 0-1.274-.259-1.671-.775h-.072c.048.479.072.769.072.872v2.322h-1.205v-8.192h.974c.028.106.084.358.17.758h.061c.376-.574.94-.861 1.692-.861.708 0 1.258.256 1.651.769.396.513.595 1.232.595 2.159 0 .926-.202 1.649-.605 2.168-.4.52-.954.78-1.662.78zm-.292-4.892c-.478 0-.829.141-1.051.421-.219.28-.328.728-.328 1.343v.18c0 .69.109 1.191.328 1.502.219.307.576.461 1.072.461.417 0 .738-.171.964-.513.225-.341.338-.828.338-1.461 0-.635-.113-1.116-.338-1.44-.223-.329-.551-.493-.985-.493zm5.163 4.789h-1.205v-5.67h1.205V187zm-1.277-7.173c0-.215.059-.381.175-.497.119-.116.289-.174.507-.174.212 0 .376.058.493.174.119.116.179.282.179.497 0 .205-.06.368-.179.487-.117.117-.281.175-.493.175-.218 0-.388-.058-.507-.175-.116-.119-.175-.282-.175-.487zm5.881 1.4c.243 0 .443.017.6.051l-.118 1.123a2.28 2.28 0 00-.533-.061c-.482 0-.873.157-1.174.471-.298.315-.446.723-.446 1.226V187h-1.205v-5.67h.943l.159.999h.062c.188-.338.432-.606.733-.805a1.76 1.76 0 01.979-.297zm5.204 5.773l-.241-.79h-.041c-.273.346-.549.582-.825.708-.277.123-.633.185-1.067.185-.557 0-.993-.151-1.307-.452-.311-.3-.467-.726-.467-1.276 0-.585.217-1.026.651-1.323.434-.297 1.096-.46 1.984-.487l.98-.031v-.302c0-.363-.086-.633-.257-.81-.167-.182-.429-.272-.784-.272-.291 0-.569.043-.836.128a6.302 6.302 0 00-.769.303l-.389-.862a4.13 4.13 0 011.01-.364c.365-.085.71-.128 1.035-.128.721 0 1.265.157 1.631.472.369.314.553.808.553 1.481V187h-.861zm-1.794-.82c.437 0 .787-.122 1.051-.364.266-.246.399-.59.399-1.031v-.492l-.728.031c-.567.02-.981.116-1.24.287-.257.167-.385.425-.385.774 0 .253.075.449.226.59.15.136.376.205.677.205zm6.449-.052c.294 0 .588-.046.882-.138v.907a2.313 2.313 0 01-.518.144 3.36 3.36 0 01-.651.062c-1.141 0-1.712-.602-1.712-1.805v-3.056h-.774v-.533l.83-.441.41-1.2h.744v1.262h1.615v.912h-1.615v3.035c0 .291.071.506.215.646a.807.807 0 00.574.205zm3.225.872h-1.205v-5.67h1.205V187zm-1.277-7.173c0-.215.059-.381.175-.497.119-.116.289-.174.507-.174.212 0 .376.058.493.174.119.116.179.282.179.497 0 .205-.06.368-.179.487-.117.117-.281.175-.493.175-.218 0-.388-.058-.507-.175-.116-.119-.175-.282-.175-.487zm8.034 4.328c0 .926-.237 1.649-.712 2.168-.475.52-1.137.78-1.984.78-.53 0-.998-.12-1.405-.359a2.367 2.367 0 01-.938-1.031c-.219-.448-.329-.967-.329-1.558 0-.92.236-1.638.708-2.154s1.136-.774 1.994-.774c.821 0 1.47.265 1.949.795.478.526.717 1.237.717 2.133zm-4.127 0c0 1.309.484 1.963 1.451 1.963.957 0 1.436-.654 1.436-1.963 0-1.296-.482-1.944-1.446-1.944-.506 0-.873.168-1.102.503-.226.335-.339.815-.339 1.441zM163.538 187h-1.21v-3.486c0-.438-.088-.764-.266-.98-.175-.215-.453-.323-.836-.323-.509 0-.882.151-1.118.452-.235.3-.353.805-.353 1.512V187h-1.205v-5.67h.943l.169.743h.062c.171-.27.413-.479.728-.625a2.438 2.438 0 011.046-.221c1.36 0 2.04.692 2.04 2.076V187z" fill="#38424B"/><path d="M58 198a3 3 0 013-3h309a3 3 0 013 3v18a3 3 0 01-3 3H61a3 3 0 01-3-3v-18z" fill="#fff"/><path d="M69.158 205.268c0 .479-.135.87-.405 1.174-.267.304-.646.508-1.138.61v.041c.601.075 1.047.267 1.338.574.29.308.435.711.435 1.21 0 .715-.247 1.265-.743 1.651-.496.383-1.2.575-2.112.575-.397 0-.76-.031-1.092-.093a3.67 3.67 0 01-.96-.312v-.811a4.791 4.791 0 002.083.493c1.295 0 1.943-.508 1.943-1.523 0-.909-.715-1.364-2.144-1.364h-.738v-.733h.749c.584 0 1.047-.128 1.39-.385.341-.259.512-.618.512-1.076 0-.366-.127-.653-.38-.862-.249-.208-.59-.312-1.02-.312-.328 0-.637.044-.928.133-.29.089-.622.253-.994.492l-.431-.574a3.553 3.553 0 011.061-.569 3.85 3.85 0 011.272-.21c.728 0 1.293.167 1.697.502.403.332.605.788.605 1.369zm6.332 1.974c0 1.295-.206 2.263-.616 2.902-.406.639-1.03.959-1.871.959-.807 0-1.42-.327-1.84-.98-.421-.656-.631-1.616-.631-2.881 0-1.306.203-2.275.61-2.907.407-.632 1.027-.949 1.86-.949.814 0 1.431.33 1.852.99.424.66.636 1.615.636 2.866zm-4.097 0c0 1.09.128 1.885.385 2.384.256.496.664.743 1.225.743.567 0 .978-.251 1.23-.753.257-.506.385-1.297.385-2.374 0-1.077-.128-1.865-.385-2.364-.252-.502-.663-.753-1.23-.753-.56 0-.97.248-1.225.743-.257.492-.385 1.284-.385 2.374z" fill="#38424B"/><path d="M61 195.75h309v-1.5H61v1.5zM372.25 198v18h1.5v-18h-1.5zM370 218.25H61v1.5h309v-1.5zM58.75 216v-18h-1.5v18h1.5zm2.25 2.25a2.25 2.25 0 01-2.25-2.25h-1.5a3.75 3.75 0 003.75 3.75v-1.5zM372.25 216a2.25 2.25 0 01-2.25 2.25v1.5a3.75 3.75 0 003.75-3.75h-1.5zM370 195.75a2.25 2.25 0 012.25 2.25h1.5a3.75 3.75 0 00-3.75-3.75v1.5zm-309-1.5a3.75 3.75 0 00-3.75 3.75h1.5a2.25 2.25 0 012.25-2.25v-1.5z" fill="#81919D"/><path d="M58 231.5a.5.5 0 01.5-.5h314a.5.5 0 010 1h-314a.5.5 0 01-.5-.5z" fill="#E3E6E9"/><path d="M63.312 254.965c0 .666-.241 1.189-.723 1.568-.482.38-1.147.57-1.995.57-.847 0-1.541-.132-2.081-.395v-1.159a5.63 5.63 0 001.087.379c.386.093.745.139 1.076.139.486 0 .843-.092 1.072-.277a.9.9 0 00.348-.743.932.932 0 00-.317-.713c-.212-.195-.65-.426-1.313-.692-.684-.277-1.166-.593-1.446-.949-.28-.355-.42-.782-.42-1.281 0-.626.222-1.118.666-1.477.445-.359 1.041-.538 1.79-.538.717 0 1.432.157 2.143.471l-.39 1c-.666-.28-1.261-.42-1.784-.42-.397 0-.697.087-.902.261a.843.843 0 00-.308.682c0 .195.041.362.123.503.082.136.217.266.405.389.188.123.526.286 1.015.487.55.229.954.443 1.21.641.257.198.445.422.564.672.12.249.18.543.18.882zm3.799 2.138c-.882 0-1.573-.257-2.072-.77-.495-.516-.743-1.225-.743-2.127 0-.926.23-1.654.692-2.184.462-.53 1.096-.795 1.902-.795.749 0 1.34.227 1.774.682.434.455.651 1.08.651 1.876v.652h-3.778c.017.55.165.974.446 1.271.28.294.675.441 1.184.441.335 0 .646-.031.933-.092a5.03 5.03 0 00.933-.318v.979c-.294.14-.591.239-.892.297-.3.058-.644.088-1.03.088zm-.22-4.963c-.384 0-.691.121-.924.364-.229.242-.365.596-.41 1.061h2.574c-.007-.468-.12-.822-.338-1.061-.22-.243-.52-.364-.903-.364zm8.782 4.86h-1.21v-3.486c0-.438-.09-.764-.267-.98-.174-.215-.453-.323-.836-.323-.509 0-.882.151-1.117.452-.236.3-.354.805-.354 1.512V257h-1.205v-5.67h.943l.17.743h.061c.171-.27.414-.479.728-.625a2.44 2.44 0 011.046-.221c1.36 0 2.04.692 2.04 2.076V257zm3.588.103c-.707 0-1.259-.257-1.655-.77-.397-.512-.595-1.232-.595-2.158 0-.93.2-1.653.6-2.169.403-.519.96-.779 1.671-.779.745 0 1.313.275 1.702.825h.062a7.215 7.215 0 01-.088-.963v-2.067h1.21V257h-.943l-.21-.743h-.056c-.387.564-.952.846-1.698.846zm.324-.975c.495 0 .856-.138 1.081-.415.226-.28.342-.733.349-1.359v-.169c0-.714-.116-1.222-.349-1.522-.232-.301-.596-.452-1.092-.452-.424 0-.75.173-.979.518-.229.342-.344.831-.344 1.467 0 .628.112 1.109.334 1.44.222.328.555.492 1 .492zm8.387-3.137h.851c.571 0 .985-.106 1.241-.318.256-.212.385-.527.385-.944 0-.423-.139-.728-.416-.912-.277-.185-.694-.277-1.25-.277h-.81v2.451zm0 1.015V257h-1.225v-7.496h2.117c.968 0 1.684.182 2.148.544.465.362.698.909.698 1.64 0 .934-.486 1.598-1.456 1.995L92.37 257h-1.394l-1.795-2.994h-1.21zm7.84 3.097c-.883 0-1.573-.257-2.072-.77-.496-.516-.743-1.225-.743-2.127 0-.926.23-1.654.692-2.184.461-.53 1.095-.795 1.902-.795.748 0 1.34.227 1.774.682.434.455.65 1.08.65 1.876v.652h-3.778c.017.55.166.974.446 1.271.28.294.675.441 1.185.441.335 0 .646-.031.933-.092.29-.065.601-.171.933-.318v.979a3.7 3.7 0 01-.892.297 5.472 5.472 0 01-1.03.088zm-.221-4.963c-.383 0-.69.121-.923.364-.229.242-.366.596-.41 1.061h2.574c-.007-.468-.12-.822-.339-1.061-.219-.243-.52-.364-.902-.364zm8.572 4.86h-1.21v-3.497c0-.434-.082-.757-.246-.969-.164-.215-.42-.323-.769-.323-.465 0-.807.153-1.025.457-.216.301-.323.803-.323 1.507V257h-1.205v-5.67h.943l.169.743h.062c.157-.27.384-.479.682-.625.301-.147.63-.221.989-.221.872 0 1.449.297 1.733.892h.082c.168-.28.403-.499.708-.656a2.248 2.248 0 011.046-.236c.676 0 1.169.171 1.476.513.311.342.467.863.467 1.563V257h-1.205v-3.497c0-.434-.084-.757-.251-.969-.164-.215-.421-.323-.769-.323-.469 0-.812.147-1.031.441-.215.291-.323.739-.323 1.344V257zm6.465 0h-1.205v-5.67h1.205V257zm-1.276-7.173c0-.215.058-.381.174-.497.12-.116.289-.174.507-.174.212 0 .376.058.493.174.119.116.179.282.179.497 0 .205-.06.368-.179.487-.117.117-.281.175-.493.175-.218 0-.387-.058-.507-.175-.116-.119-.174-.282-.174-.487zm7.992 7.173h-1.209v-3.486c0-.438-.089-.764-.267-.98-.174-.215-.453-.323-.836-.323-.509 0-.882.151-1.117.452-.236.3-.354.805-.354 1.512V257h-1.205v-5.67h.943l.17.743h.061c.171-.27.414-.479.728-.625a2.441 2.441 0 011.046-.221c1.36 0 2.04.692 2.04 2.076V257zm3.589.103c-.707 0-1.259-.257-1.656-.77-.396-.512-.594-1.232-.594-2.158 0-.93.2-1.653.599-2.169.404-.519.961-.779 1.672-.779.745 0 1.312.275 1.702.825h.062a7.09 7.09 0 01-.088-.963v-2.067h1.21V257h-.943l-.21-.743h-.057c-.386.564-.952.846-1.697.846zm.323-.975c.496 0 .857-.138 1.082-.415.226-.28.342-.733.349-1.359v-.169c0-.714-.116-1.222-.349-1.522-.232-.301-.596-.452-1.092-.452-.424 0-.75.173-.979.518-.229.342-.344.831-.344 1.467 0 .628.111 1.109.334 1.44.222.328.555.492.999.492zm6.783.975c-.882 0-1.572-.257-2.071-.77-.496-.516-.743-1.225-.743-2.127 0-.926.23-1.654.692-2.184.461-.53 1.095-.795 1.902-.795.748 0 1.34.227 1.774.682.434.455.651 1.08.651 1.876v.652h-3.779c.017.55.166.974.446 1.271.281.294.675.441 1.185.441.335 0 .646-.031.933-.092.29-.065.601-.171.933-.318v.979c-.294.14-.591.239-.892.297a5.476 5.476 0 01-1.031.088zm-.22-4.963c-.383 0-.691.121-.923.364-.229.242-.366.596-.41 1.061h2.574c-.007-.468-.12-.822-.339-1.061-.219-.243-.519-.364-.902-.364zm6.67-.913c.243 0 .443.017.6.051l-.118 1.123a2.28 2.28 0 00-.533-.061c-.482 0-.874.157-1.174.471-.298.315-.446.723-.446 1.226V257h-1.205v-5.67h.943l.159.999h.062c.188-.338.432-.606.733-.805a1.76 1.76 0 01.979-.297zm5.588 5.773h-1.204v-5.67h1.204V257zm-1.276-7.173c0-.215.058-.381.174-.497.12-.116.289-.174.508-.174.212 0 .376.058.492.174.119.116.179.282.179.497 0 .205-.06.368-.179.487-.116.117-.28.175-.492.175-.219 0-.388-.058-.508-.175-.116-.119-.174-.282-.174-.487zm7.993 7.173h-1.21v-3.486c0-.438-.089-.764-.267-.98-.174-.215-.453-.323-.836-.323-.509 0-.881.151-1.117.452-.236.3-.354.805-.354 1.512V257h-1.205v-5.67h.944l.169.743h.061c.171-.27.414-.479.728-.625a2.441 2.441 0 011.046-.221c1.361 0 2.041.692 2.041 2.076V257zm10.054 0h-1.41l-1.877-3.066-1.892 3.066h-1.312l2.487-3.886-2.328-3.61h1.364l1.733 2.836 1.732-2.836h1.323l-2.343 3.63 2.523 3.866zm9.833-3.82c0 1.238-.343 2.185-1.03 2.841-.687.653-1.677.979-2.969.979h-2.097v-7.496h2.318c1.192 0 2.12.322 2.784.964.663.643.994 1.547.994 2.712zm-1.292.041c0-1.794-.839-2.691-2.517-2.691h-1.061v5.439h.871c1.805 0 2.707-.916 2.707-2.748zm6.327 3.779l-.241-.79h-.041c-.274.346-.549.582-.826.708-.276.123-.632.185-1.066.185-.557 0-.993-.151-1.307-.452-.311-.3-.467-.726-.467-1.276 0-.585.217-1.026.651-1.323.434-.297 1.096-.46 1.984-.487l.98-.031v-.302c0-.363-.086-.633-.257-.81-.167-.182-.429-.272-.784-.272-.291 0-.569.043-.836.128a6.302 6.302 0 00-.769.303l-.39-.862a4.16 4.16 0 011.01-.364 4.587 4.587 0 011.036-.128c.721 0 1.265.157 1.63.472.37.314.554.808.554 1.481V257h-.861zm-1.795-.82c.438 0 .788-.122 1.051-.364.267-.246.4-.59.4-1.031v-.492l-.728.031c-.567.02-.981.116-1.24.287-.257.167-.385.425-.385.774 0 .253.075.449.226.59.15.136.376.205.676.205zm3.476-4.85h1.313l1.154 3.214c.174.458.29.889.348 1.292h.041c.031-.188.087-.415.169-.682.082-.27.516-1.545 1.303-3.824h1.302l-2.425 6.424c-.441 1.179-1.176 1.768-2.205 1.768-.266 0-.526-.029-.779-.087v-.953c.181.041.388.061.62.061.581 0 .99-.336 1.226-1.01l.21-.533-2.277-5.67zm10.301 4.055c0 .554-.202.979-.605 1.277-.404.294-.981.441-1.733.441-.756 0-1.362-.115-1.82-.344v-1.041c.666.308 1.286.462 1.861.462.741 0 1.112-.224 1.112-.672a.534.534 0 00-.123-.359 1.439 1.439 0 00-.405-.297 6.885 6.885 0 00-.784-.349c-.653-.253-1.096-.506-1.328-.759-.229-.253-.344-.581-.344-.984 0-.485.195-.861.585-1.128.393-.27.926-.405 1.599-.405a4.52 4.52 0 011.892.405l-.389.908c-.612-.253-1.127-.38-1.544-.38-.635 0-.953.181-.953.544 0 .177.082.328.246.451.167.123.53.292 1.087.507.468.182.808.347 1.02.498.212.15.369.324.472.523.102.194.154.429.154.702z" fill="#38424B"/><path fill-rule="evenodd" clip-rule="evenodd" d="M192.5 257.5a4.5 4.5 0 100-9 4.5 4.5 0 000 9zm-.345-3.51a.446.446 0 010-.654c.155-.147.314-.273.501-.402.065-.045.219-.146.32-.213h.001l.091-.06c.352-.239.444-.38.444-.776 0-.581-.416-.96-1.012-.96-.6 0-1.013.375-1.013.96a.475.475 0 01-.487.462.475.475 0 01-.488-.462c0-1.105.859-1.885 1.988-1.885 1.126 0 1.987.785 1.987 1.885 0 .725-.263 1.129-.852 1.528a10.21 10.21 0 01-.121.08c-.1.066-.232.152-.283.188a3.138 3.138 0 00-.387.309.507.507 0 01-.689 0zm.345 2.01a.563.563 0 110-1.125.563.563 0 010 1.125z" fill="#81919D"/><path d="M58 268a3 3 0 013-3h309a3 3 0 013 3v18a3 3 0 01-3 3H61a3 3 0 01-3-3v-18z" fill="#fff"/><path d="M69.48 277.242c0 1.295-.204 2.263-.615 2.902-.406.639-1.03.959-1.87.959-.808 0-1.421-.327-1.841-.98-.42-.656-.631-1.616-.631-2.881 0-1.306.203-2.275.61-2.907.407-.632 1.027-.949 1.861-.949.814 0 1.43.33 1.851.99.424.66.636 1.615.636 2.866zm-4.096 0c0 1.09.129 1.885.385 2.384.256.496.665.743 1.225.743.567 0 .978-.251 1.23-.753.257-.506.385-1.297.385-2.374 0-1.077-.128-1.865-.384-2.364-.253-.502-.663-.753-1.23-.753-.561 0-.97.248-1.226.743-.257.492-.385 1.284-.385 2.374z" fill="#38424B"/><path d="M61 265.75h309v-1.5H61v1.5zM372.25 268v18h1.5v-18h-1.5zM370 288.25H61v1.5h309v-1.5zM58.75 286v-18h-1.5v18h1.5zm2.25 2.25a2.25 2.25 0 01-2.25-2.25h-1.5a3.75 3.75 0 003.75 3.75v-1.5zM372.25 286a2.25 2.25 0 01-2.25 2.25v1.5a3.75 3.75 0 003.75-3.75h-1.5zM370 265.75a2.25 2.25 0 012.25 2.25h1.5a3.75 3.75 0 00-3.75-3.75v1.5zm-309-1.5a3.75 3.75 0 00-3.75 3.75h1.5a2.25 2.25 0 012.25-2.25v-1.5z" fill="#81919D"/><path d="M63.312 311.965c0 .666-.241 1.189-.723 1.568-.482.38-1.147.57-1.995.57-.847 0-1.541-.132-2.081-.395v-1.159a5.63 5.63 0 001.087.379c.386.093.745.139 1.076.139.486 0 .843-.092 1.072-.277a.9.9 0 00.348-.743.932.932 0 00-.317-.713c-.212-.195-.65-.426-1.313-.692-.684-.277-1.166-.593-1.446-.949-.28-.355-.42-.782-.42-1.281 0-.626.222-1.118.666-1.477.445-.359 1.041-.538 1.79-.538.717 0 1.432.157 2.143.471l-.39 1c-.666-.28-1.261-.42-1.784-.42-.397 0-.697.087-.902.261a.843.843 0 00-.308.682c0 .195.041.362.123.503.082.136.217.266.405.389.188.123.526.286 1.015.487.55.229.954.443 1.21.641.257.198.445.422.564.672.12.249.18.543.18.882zm3.799 2.138c-.882 0-1.573-.257-2.072-.77-.495-.516-.743-1.225-.743-2.127 0-.926.23-1.654.692-2.184.462-.53 1.096-.795 1.902-.795.749 0 1.34.227 1.774.682.434.455.651 1.08.651 1.876v.652h-3.778c.017.55.165.974.446 1.271.28.294.675.441 1.184.441.335 0 .646-.031.933-.092a5.03 5.03 0 00.933-.318v.979c-.294.14-.591.239-.892.297-.3.058-.644.088-1.03.088zm-.22-4.963c-.384 0-.691.121-.924.364-.229.242-.365.596-.41 1.061h2.574c-.007-.468-.12-.822-.338-1.061-.22-.243-.52-.364-.903-.364zm8.782 4.86h-1.21v-3.486c0-.438-.09-.764-.267-.98-.174-.215-.453-.323-.836-.323-.509 0-.882.151-1.117.452-.236.3-.354.805-.354 1.512V314h-1.205v-5.67h.943l.17.743h.061c.171-.27.414-.479.728-.625a2.44 2.44 0 011.046-.221c1.36 0 2.04.692 2.04 2.076V314zm3.588.103c-.707 0-1.259-.257-1.655-.77-.397-.512-.595-1.232-.595-2.158 0-.93.2-1.653.6-2.169.403-.519.96-.779 1.671-.779.745 0 1.313.275 1.702.825h.062a7.215 7.215 0 01-.088-.963v-2.067h1.21V314h-.943l-.21-.743h-.056c-.387.564-.952.846-1.698.846zm.324-.975c.495 0 .856-.138 1.081-.415.226-.28.342-.733.349-1.359v-.169c0-.714-.116-1.222-.349-1.522-.232-.301-.596-.452-1.092-.452-.424 0-.75.173-.979.518-.229.342-.344.831-.344 1.467 0 .628.112 1.109.334 1.44.222.328.555.492 1 .492zm8.387-3.137h.851c.571 0 .985-.106 1.241-.318.256-.212.385-.527.385-.944 0-.423-.139-.728-.416-.912-.277-.185-.694-.277-1.25-.277h-.81v2.451zm0 1.015V314h-1.225v-7.496h2.117c.968 0 1.684.182 2.148.544.465.362.698.909.698 1.64 0 .934-.486 1.598-1.456 1.995L92.37 314h-1.394l-1.795-2.994h-1.21zm7.84 3.097c-.883 0-1.573-.257-2.072-.77-.496-.516-.743-1.225-.743-2.127 0-.926.23-1.654.692-2.184.461-.53 1.095-.795 1.902-.795.748 0 1.34.227 1.774.682.434.455.65 1.08.65 1.876v.652h-3.778c.017.55.166.974.446 1.271.28.294.675.441 1.185.441.335 0 .646-.031.933-.092.29-.065.601-.171.933-.318v.979a3.7 3.7 0 01-.892.297 5.472 5.472 0 01-1.03.088zm-.221-4.963c-.383 0-.69.121-.923.364-.229.242-.366.596-.41 1.061h2.574c-.007-.468-.12-.822-.339-1.061-.219-.243-.52-.364-.902-.364zm8.572 4.86h-1.21v-3.497c0-.434-.082-.757-.246-.969-.164-.215-.42-.323-.769-.323-.465 0-.807.153-1.025.457-.216.301-.323.803-.323 1.507V314h-1.205v-5.67h.943l.169.743h.062c.157-.27.384-.479.682-.625.301-.147.63-.221.989-.221.872 0 1.449.297 1.733.892h.082c.168-.28.403-.499.708-.656a2.248 2.248 0 011.046-.236c.676 0 1.169.171 1.476.513.311.342.467.863.467 1.563V314h-1.205v-3.497c0-.434-.084-.757-.251-.969-.164-.215-.421-.323-.769-.323-.469 0-.812.147-1.031.441-.215.291-.323.739-.323 1.344V314zm6.465 0h-1.205v-5.67h1.205V314zm-1.276-7.173c0-.215.058-.381.174-.497.12-.116.289-.174.507-.174.212 0 .376.058.493.174.119.116.179.282.179.497 0 .205-.06.368-.179.487-.117.117-.281.175-.493.175-.218 0-.387-.058-.507-.175-.116-.119-.174-.282-.174-.487zm7.992 7.173h-1.209v-3.486c0-.438-.089-.764-.267-.98-.174-.215-.453-.323-.836-.323-.509 0-.882.151-1.117.452-.236.3-.354.805-.354 1.512V314h-1.205v-5.67h.943l.17.743h.061c.171-.27.414-.479.728-.625a2.441 2.441 0 011.046-.221c1.36 0 2.04.692 2.04 2.076V314zm3.589.103c-.707 0-1.259-.257-1.656-.77-.396-.512-.594-1.232-.594-2.158 0-.93.2-1.653.599-2.169.404-.519.961-.779 1.672-.779.745 0 1.312.275 1.702.825h.062a7.09 7.09 0 01-.088-.963v-2.067h1.21V314h-.943l-.21-.743h-.057c-.386.564-.952.846-1.697.846zm.323-.975c.496 0 .857-.138 1.082-.415.226-.28.342-.733.349-1.359v-.169c0-.714-.116-1.222-.349-1.522-.232-.301-.596-.452-1.092-.452-.424 0-.75.173-.979.518-.229.342-.344.831-.344 1.467 0 .628.111 1.109.334 1.44.222.328.555.492.999.492zm6.783.975c-.882 0-1.572-.257-2.071-.77-.496-.516-.743-1.225-.743-2.127 0-.926.23-1.654.692-2.184.461-.53 1.095-.795 1.902-.795.748 0 1.34.227 1.774.682.434.455.651 1.08.651 1.876v.652h-3.779c.017.55.166.974.446 1.271.281.294.675.441 1.185.441.335 0 .646-.031.933-.092.29-.065.601-.171.933-.318v.979c-.294.14-.591.239-.892.297a5.476 5.476 0 01-1.031.088zm-.22-4.963c-.383 0-.691.121-.923.364-.229.242-.366.596-.41 1.061h2.574c-.007-.468-.12-.822-.339-1.061-.219-.243-.519-.364-.902-.364zm6.67-.913c.243 0 .443.017.6.051l-.118 1.123a2.28 2.28 0 00-.533-.061c-.482 0-.874.157-1.174.471-.298.315-.446.723-.446 1.226V314h-1.205v-5.67h.943l.159.999h.062c.188-.338.432-.606.733-.805a1.76 1.76 0 01.979-.297zm8.752 5.773h-4.24v-7.496h4.24v1.036h-3.015v2.041h2.825v1.025h-2.825v2.353h3.015V314zm2.789 0l-2.154-5.67h1.272l1.154 3.296c.198.554.317 1.002.358 1.343h.041c.031-.246.151-.693.359-1.343l1.154-3.296h1.282l-2.164 5.67h-1.302zm6.803.103c-.882 0-1.572-.257-2.071-.77-.496-.516-.743-1.225-.743-2.127 0-.926.23-1.654.692-2.184.461-.53 1.095-.795 1.902-.795.748 0 1.34.227 1.774.682.434.455.651 1.08.651 1.876v.652h-3.779c.017.55.166.974.446 1.271.281.294.675.441 1.185.441.335 0 .646-.031.933-.092.29-.065.601-.171.933-.318v.979c-.294.14-.591.239-.892.297a5.483 5.483 0 01-1.031.088zm-.22-4.963c-.383 0-.691.121-.923.364-.229.242-.366.596-.41 1.061h2.574c-.007-.468-.12-.822-.339-1.061-.219-.243-.519-.364-.902-.364zm6.67-.913c.243 0 .443.017.6.051l-.118 1.123a2.28 2.28 0 00-.533-.061c-.482 0-.874.157-1.174.471-.298.315-.446.723-.446 1.226V314h-1.205v-5.67h.943l.159.999h.062c.188-.338.432-.606.733-.805a1.76 1.76 0 01.979-.297zm.795.103h1.312l1.154 3.214c.174.458.29.889.348 1.292h.041c.031-.188.088-.415.17-.682.082-.27.516-1.545 1.302-3.824h1.302l-2.425 6.424c-.441 1.179-1.176 1.768-2.205 1.768-.266 0-.526-.029-.779-.087v-.953c.181.041.388.061.62.061.582 0 .99-.336 1.226-1.01l.21-.533-2.276-5.67zm14.868 5.67h-1.41l-1.877-3.066-1.891 3.066h-1.313l2.487-3.886-2.328-3.61h1.364l1.733 2.836 1.733-2.836h1.322l-2.343 3.63 2.523 3.866zm9.833-3.82c0 1.238-.343 2.185-1.03 2.841-.687.653-1.677.979-2.969.979h-2.097v-7.496h2.318c1.193 0 2.121.322 2.784.964.663.643.994 1.547.994 2.712zm-1.292.041c0-1.794-.839-2.691-2.517-2.691h-1.061v5.439h.871c1.805 0 2.707-.916 2.707-2.748zm6.327 3.779l-.241-.79h-.041c-.273.346-.549.582-.825.708-.277.123-.633.185-1.067.185-.557 0-.993-.151-1.307-.452-.311-.3-.467-.726-.467-1.276 0-.585.217-1.026.651-1.323.434-.297 1.096-.46 1.984-.487l.98-.031v-.302c0-.363-.086-.633-.257-.81-.167-.182-.429-.272-.784-.272-.291 0-.569.043-.836.128a6.302 6.302 0 00-.769.303l-.389-.862a4.13 4.13 0 011.01-.364 4.579 4.579 0 011.035-.128c.721 0 1.265.157 1.631.472.369.314.553.808.553 1.481V314h-.861zm-1.794-.82c.437 0 .787-.122 1.051-.364.266-.246.399-.59.399-1.031v-.492l-.728.031c-.567.02-.981.116-1.24.287-.257.167-.385.425-.385.774 0 .253.075.449.226.59.15.136.376.205.677.205zm3.476-4.85h1.312l1.154 3.214c.174.458.29.889.348 1.292h.041c.031-.188.087-.415.17-.682.082-.27.516-1.545 1.302-3.824h1.302l-2.425 6.424c-.441 1.179-1.176 1.768-2.205 1.768-.266 0-.526-.029-.779-.087v-.953c.181.041.388.061.62.061.581 0 .99-.336 1.226-1.01l.21-.533-2.276-5.67zm10.3 4.055c0 .554-.202.979-.605 1.277-.404.294-.981.441-1.733.441-.756 0-1.362-.115-1.82-.344v-1.041c.666.308 1.287.462 1.861.462.741 0 1.112-.224 1.112-.672a.534.534 0 00-.123-.359 1.439 1.439 0 00-.405-.297 6.885 6.885 0 00-.784-.349c-.653-.253-1.096-.506-1.328-.759-.229-.253-.344-.581-.344-.984 0-.485.195-.861.585-1.128.393-.27.926-.405 1.6-.405.666 0 1.297.135 1.891.405l-.389.908c-.612-.253-1.126-.38-1.543-.38-.636 0-.954.181-.954.544 0 .177.082.328.246.451.167.123.53.292 1.087.507.468.182.808.347 1.02.498.212.15.369.324.472.523.102.194.154.429.154.702z" fill="#38424B"/><path fill-rule="evenodd" clip-rule="evenodd" d="M210.5 314.5a4.5 4.5 0 100-9 4.5 4.5 0 000 9zm-.345-3.51a.446.446 0 010-.654c.155-.147.314-.273.501-.402.065-.045.219-.146.32-.213h.001l.091-.06c.352-.239.444-.38.444-.776 0-.581-.416-.96-1.012-.96-.6 0-1.013.375-1.013.96a.475.475 0 01-.487.462.475.475 0 01-.488-.462c0-1.105.859-1.885 1.988-1.885 1.126 0 1.987.785 1.987 1.885 0 .725-.263 1.129-.852 1.528a10.21 10.21 0 01-.121.08c-.1.066-.232.152-.283.188a3.138 3.138 0 00-.387.309.507.507 0 01-.689 0zm.345 2.01a.563.563 0 110-1.125.563.563 0 010 1.125z" fill="#81919D"/><path d="M58 325a3 3 0 013-3h309a3 3 0 013 3v18a3 3 0 01-3 3H61a3 3 0 01-3-3v-18z" fill="#fff"/><path d="M69.48 334.242c0 1.295-.204 2.263-.615 2.902-.406.639-1.03.959-1.87.959-.808 0-1.421-.327-1.841-.98-.42-.656-.631-1.616-.631-2.881 0-1.306.203-2.275.61-2.907.407-.632 1.027-.949 1.861-.949.814 0 1.43.33 1.851.99.424.66.636 1.615.636 2.866zm-4.096 0c0 1.09.129 1.885.385 2.384.256.496.665.743 1.225.743.567 0 .978-.251 1.23-.753.257-.506.385-1.297.385-2.374 0-1.077-.128-1.865-.384-2.364-.253-.502-.663-.753-1.23-.753-.561 0-.97.248-1.226.743-.257.492-.385 1.284-.385 2.374z" fill="#38424B"/><path d="M61 322.75h309v-1.5H61v1.5zM372.25 325v18h1.5v-18h-1.5zM370 345.25H61v1.5h309v-1.5zM58.75 343v-18h-1.5v18h1.5zm2.25 2.25a2.25 2.25 0 01-2.25-2.25h-1.5a3.75 3.75 0 003.75 3.75v-1.5zM372.25 343a2.25 2.25 0 01-2.25 2.25v1.5a3.75 3.75 0 003.75-3.75h-1.5zM370 322.75a2.25 2.25 0 012.25 2.25h1.5a3.75 3.75 0 00-3.75-3.75v1.5zm-309-1.5a3.75 3.75 0 00-3.75 3.75h1.5a2.25 2.25 0 012.25-2.25v-1.5z" fill="#81919D"/><path d="M63.312 368.965c0 .666-.241 1.189-.723 1.568-.482.38-1.147.57-1.995.57-.847 0-1.541-.132-2.081-.395v-1.159a5.63 5.63 0 001.087.379c.386.093.745.139 1.076.139.486 0 .843-.092 1.072-.277a.9.9 0 00.348-.743.932.932 0 00-.317-.713c-.212-.195-.65-.426-1.313-.692-.684-.277-1.166-.593-1.446-.949-.28-.355-.42-.782-.42-1.281 0-.626.222-1.118.666-1.477.445-.359 1.041-.538 1.79-.538.717 0 1.432.157 2.143.471l-.39 1c-.666-.28-1.261-.42-1.784-.42-.397 0-.697.087-.902.261a.843.843 0 00-.308.682c0 .195.041.362.123.503.082.136.217.266.405.389.188.123.526.286 1.015.487.55.229.954.443 1.21.641.257.198.445.422.564.672.12.249.18.543.18.882zm3.799 2.138c-.882 0-1.573-.257-2.072-.77-.495-.516-.743-1.225-.743-2.127 0-.926.23-1.654.692-2.184.462-.53 1.096-.795 1.902-.795.749 0 1.34.227 1.774.682.434.455.651 1.08.651 1.876v.652h-3.778c.017.55.165.974.446 1.271.28.294.675.441 1.184.441.335 0 .646-.031.933-.092a5.03 5.03 0 00.933-.318v.979c-.294.14-.591.239-.892.297-.3.058-.644.088-1.03.088zm-.22-4.963c-.384 0-.691.121-.924.364-.229.242-.365.596-.41 1.061h2.574c-.007-.468-.12-.822-.338-1.061-.22-.243-.52-.364-.903-.364zm8.782 4.86h-1.21v-3.486c0-.438-.09-.764-.267-.98-.174-.215-.453-.323-.836-.323-.509 0-.882.151-1.117.452-.236.3-.354.805-.354 1.512V371h-1.205v-5.67h.943l.17.743h.061c.171-.27.414-.479.728-.625a2.44 2.44 0 011.046-.221c1.36 0 2.04.692 2.04 2.076V371zm3.588.103c-.707 0-1.259-.257-1.655-.77-.397-.512-.595-1.232-.595-2.158 0-.93.2-1.653.6-2.169.403-.519.96-.779 1.671-.779.745 0 1.313.275 1.702.825h.062a7.215 7.215 0 01-.088-.963v-2.067h1.21V371h-.943l-.21-.743h-.056c-.387.564-.952.846-1.698.846zm.324-.975c.495 0 .856-.138 1.081-.415.226-.28.342-.733.349-1.359v-.169c0-.714-.116-1.222-.349-1.522-.232-.301-.596-.452-1.092-.452-.424 0-.75.173-.979.518-.229.342-.344.831-.344 1.467 0 .628.112 1.109.334 1.44.222.328.555.492 1 .492zm8.387-3.137h.851c.571 0 .985-.106 1.241-.318.256-.212.385-.527.385-.944 0-.423-.139-.728-.416-.912-.277-.185-.694-.277-1.25-.277h-.81v2.451zm0 1.015V371h-1.225v-7.496h2.117c.968 0 1.684.182 2.148.544.465.362.698.909.698 1.64 0 .934-.486 1.598-1.456 1.995L92.37 371h-1.394l-1.795-2.994h-1.21zm7.84 3.097c-.883 0-1.573-.257-2.072-.77-.496-.516-.743-1.225-.743-2.127 0-.926.23-1.654.692-2.184.461-.53 1.095-.795 1.902-.795.748 0 1.34.227 1.774.682.434.455.65 1.08.65 1.876v.652h-3.778c.017.55.166.974.446 1.271.28.294.675.441 1.185.441.335 0 .646-.031.933-.092.29-.065.601-.171.933-.318v.979a3.7 3.7 0 01-.892.297 5.472 5.472 0 01-1.03.088zm-.221-4.963c-.383 0-.69.121-.923.364-.229.242-.366.596-.41 1.061h2.574c-.007-.468-.12-.822-.339-1.061-.219-.243-.52-.364-.902-.364zm8.572 4.86h-1.21v-3.497c0-.434-.082-.757-.246-.969-.164-.215-.42-.323-.769-.323-.465 0-.807.153-1.025.457-.216.301-.323.803-.323 1.507V371h-1.205v-5.67h.943l.169.743h.062c.157-.27.384-.479.682-.625.301-.147.63-.221.989-.221.872 0 1.449.297 1.733.892h.082c.168-.28.403-.499.708-.656a2.248 2.248 0 011.046-.236c.676 0 1.169.171 1.476.513.311.342.467.863.467 1.563V371h-1.205v-3.497c0-.434-.084-.757-.251-.969-.164-.215-.421-.323-.769-.323-.469 0-.812.147-1.031.441-.215.291-.323.739-.323 1.344V371zm6.465 0h-1.205v-5.67h1.205V371zm-1.276-7.173c0-.215.058-.381.174-.497.12-.116.289-.174.507-.174.212 0 .376.058.493.174.119.116.179.282.179.497 0 .205-.06.368-.179.487-.117.117-.281.175-.493.175-.218 0-.387-.058-.507-.175-.116-.119-.174-.282-.174-.487zm7.992 7.173h-1.209v-3.486c0-.438-.089-.764-.267-.98-.174-.215-.453-.323-.836-.323-.509 0-.882.151-1.117.452-.236.3-.354.805-.354 1.512V371h-1.205v-5.67h.943l.17.743h.061c.171-.27.414-.479.728-.625a2.441 2.441 0 011.046-.221c1.36 0 2.04.692 2.04 2.076V371zm3.589.103c-.707 0-1.259-.257-1.656-.77-.396-.512-.594-1.232-.594-2.158 0-.93.2-1.653.599-2.169.404-.519.961-.779 1.672-.779.745 0 1.312.275 1.702.825h.062a7.09 7.09 0 01-.088-.963v-2.067h1.21V371h-.943l-.21-.743h-.057c-.386.564-.952.846-1.697.846zm.323-.975c.496 0 .857-.138 1.082-.415.226-.28.342-.733.349-1.359v-.169c0-.714-.116-1.222-.349-1.522-.232-.301-.596-.452-1.092-.452-.424 0-.75.173-.979.518-.229.342-.344.831-.344 1.467 0 .628.111 1.109.334 1.44.222.328.555.492.999.492zm6.783.975c-.882 0-1.572-.257-2.071-.77-.496-.516-.743-1.225-.743-2.127 0-.926.23-1.654.692-2.184.461-.53 1.095-.795 1.902-.795.748 0 1.34.227 1.774.682.434.455.651 1.08.651 1.876v.652h-3.779c.017.55.166.974.446 1.271.281.294.675.441 1.185.441.335 0 .646-.031.933-.092.29-.065.601-.171.933-.318v.979c-.294.14-.591.239-.892.297a5.476 5.476 0 01-1.031.088zm-.22-4.963c-.383 0-.691.121-.923.364-.229.242-.366.596-.41 1.061h2.574c-.007-.468-.12-.822-.339-1.061-.219-.243-.519-.364-.902-.364zm6.67-.913c.243 0 .443.017.6.051l-.118 1.123a2.28 2.28 0 00-.533-.061c-.482 0-.874.157-1.174.471-.298.315-.446.723-.446 1.226V371h-1.205v-5.67h.943l.159.999h.062c.188-.338.432-.606.733-.805a1.76 1.76 0 01.979-.297zm5.588 5.773h-1.204v-5.67h1.204V371zm-1.276-7.173c0-.215.058-.381.174-.497.12-.116.289-.174.508-.174.212 0 .376.058.492.174.119.116.179.282.179.497 0 .205-.06.368-.179.487-.116.117-.28.175-.492.175-.219 0-.388-.058-.508-.175-.116-.119-.174-.282-.174-.487zm7.993 7.173h-1.21v-3.486c0-.438-.089-.764-.267-.98-.174-.215-.453-.323-.836-.323-.509 0-.881.151-1.117.452-.236.3-.354.805-.354 1.512V371h-1.205v-5.67h.944l.169.743h.061c.171-.27.414-.479.728-.625a2.441 2.441 0 011.046-.221c1.361 0 2.041.692 2.041 2.076V371zm10.054 0h-1.41l-1.877-3.066-1.892 3.066h-1.312l2.487-3.886-2.328-3.61h1.364l1.733 2.836 1.732-2.836h1.323l-2.343 3.63 2.523 3.866zm9.833-3.82c0 1.238-.343 2.185-1.03 2.841-.687.653-1.677.979-2.969.979h-2.097v-7.496h2.318c1.192 0 2.12.322 2.784.964.663.643.994 1.547.994 2.712zm-1.292.041c0-1.794-.839-2.691-2.517-2.691h-1.061v5.439h.871c1.805 0 2.707-.916 2.707-2.748zm6.327 3.779l-.241-.79h-.041c-.274.346-.549.582-.826.708-.276.123-.632.185-1.066.185-.557 0-.993-.151-1.307-.452-.311-.3-.467-.726-.467-1.276 0-.585.217-1.026.651-1.323.434-.297 1.096-.46 1.984-.487l.98-.031v-.302c0-.363-.086-.633-.257-.81-.167-.182-.429-.272-.784-.272-.291 0-.569.043-.836.128a6.302 6.302 0 00-.769.303l-.39-.862a4.16 4.16 0 011.01-.364 4.587 4.587 0 011.036-.128c.721 0 1.265.157 1.63.472.37.314.554.808.554 1.481V371h-.861zm-1.795-.82c.438 0 .788-.122 1.051-.364.267-.246.4-.59.4-1.031v-.492l-.728.031c-.567.02-.981.116-1.24.287-.257.167-.385.425-.385.774 0 .253.075.449.226.59.15.136.376.205.676.205zm3.476-4.85h1.313l1.154 3.214c.174.458.29.889.348 1.292h.041c.031-.188.087-.415.169-.682.082-.27.516-1.545 1.303-3.824h1.302l-2.425 6.424c-.441 1.179-1.176 1.768-2.205 1.768-.266 0-.526-.029-.779-.087v-.953c.181.041.388.061.62.061.581 0 .99-.336 1.226-1.01l.21-.533-2.277-5.67zm10.301 4.055c0 .554-.202.979-.605 1.277-.404.294-.981.441-1.733.441-.756 0-1.362-.115-1.82-.344v-1.041c.666.308 1.286.462 1.861.462.741 0 1.112-.224 1.112-.672a.534.534 0 00-.123-.359 1.439 1.439 0 00-.405-.297 6.885 6.885 0 00-.784-.349c-.653-.253-1.096-.506-1.328-.759-.229-.253-.344-.581-.344-.984 0-.485.195-.861.585-1.128.393-.27.926-.405 1.599-.405a4.52 4.52 0 011.892.405l-.389.908c-.612-.253-1.127-.38-1.544-.38-.635 0-.953.181-.953.544 0 .177.082.328.246.451.167.123.53.292 1.087.507.468.182.808.347 1.02.498.212.15.369.324.472.523.102.194.154.429.154.702zm4.163-5.881h2.225c1.032 0 1.777.151 2.235.452.461.3.692.775.692 1.425 0 .437-.113.801-.338 1.092-.226.29-.55.473-.974.548v.052c.526.099.912.295 1.158.589.25.291.375.686.375 1.185 0 .673-.236 1.201-.708 1.584-.468.379-1.121.569-1.958.569h-2.707v-7.496zm1.225 3.097h1.179c.513 0 .887-.08 1.123-.241.236-.164.354-.441.354-.83 0-.353-.128-.607-.385-.764-.253-.158-.656-.236-1.21-.236h-1.061v2.071zm0 .995v2.373h1.302c.513 0 .899-.097 1.159-.292.263-.198.395-.509.395-.933 0-.39-.134-.678-.4-.866-.267-.188-.672-.282-1.215-.282h-1.241zm8.054 3.507c-.881 0-1.572-.257-2.071-.77-.495-.516-.743-1.225-.743-2.127 0-.926.23-1.654.692-2.184.461-.53 1.095-.795 1.902-.795.748 0 1.34.227 1.774.682.434.455.651 1.08.651 1.876v.652h-3.779c.018.55.166.974.446 1.271.281.294.676.441 1.185.441.335 0 .646-.031.933-.092.29-.065.601-.171.933-.318v.979c-.294.14-.591.239-.892.297a5.476 5.476 0 01-1.031.088zm-.22-4.963c-.383 0-.69.121-.923.364-.229.242-.366.596-.41 1.061h2.574c-.007-.468-.12-.822-.339-1.061-.218-.243-.519-.364-.902-.364zm6.639.102h-1.384V371h-1.21v-4.758h-.933v-.564l.933-.369v-.369c0-.67.157-1.166.472-1.487.314-.325.794-.487 1.44-.487.424 0 .841.07 1.251.21l-.317.913a2.774 2.774 0 00-.852-.144c-.273 0-.473.086-.599.257-.123.167-.185.42-.185.758v.37h1.384v.912zm5.999 1.913c0 .926-.238 1.649-.713 2.168-.475.52-1.136.78-1.984.78-.53 0-.998-.12-1.405-.359a2.379 2.379 0 01-.938-1.031c-.219-.448-.328-.967-.328-1.558 0-.92.236-1.638.707-2.154.472-.516 1.137-.774 1.995-.774.82 0 1.47.265 1.948.795.479.526.718 1.237.718 2.133zm-4.127 0c0 1.309.483 1.963 1.451 1.963.957 0 1.435-.654 1.435-1.963 0-1.296-.482-1.944-1.446-1.944-.506 0-.873.168-1.102.503-.226.335-.338.815-.338 1.441zm8.393-2.928c.242 0 .442.017.599.051l-.118 1.123a2.268 2.268 0 00-.533-.061c-.482 0-.873.157-1.174.471-.297.315-.446.723-.446 1.226V371h-1.205v-5.67h.944l.159.999h.061c.188-.338.432-.606.733-.805.304-.198.631-.297.98-.297zm4.132 5.876c-.882 0-1.572-.257-2.071-.77-.496-.516-.744-1.225-.744-2.127 0-.926.231-1.654.692-2.184.462-.53 1.096-.795 1.902-.795.749 0 1.34.227 1.774.682.434.455.651 1.08.651 1.876v.652h-3.778c.017.55.166.974.446 1.271.28.294.675.441 1.184.441.335 0 .646-.031.933-.092.291-.065.602-.171.933-.318v.979c-.294.14-.591.239-.892.297-.3.058-.644.088-1.03.088zm-.221-4.963c-.382 0-.69.121-.922.364-.229.242-.366.596-.411 1.061h2.574c-.007-.468-.12-.822-.338-1.061-.219-.243-.52-.364-.903-.364zm10.89 4.86h-4.24v-7.496h4.24v1.036h-3.015v2.041h2.825v1.025h-2.825v2.353h3.015V371zm2.758-2.897l-1.902-2.773h1.374l1.292 1.984 1.302-1.984h1.364l-1.907 2.773 2.005 2.897h-1.364l-1.4-2.123-1.394 2.123h-1.364l1.994-2.897zm7.399 3c-.718 0-1.275-.259-1.672-.775h-.072c.048.479.072.769.072.872v2.322h-1.205v-8.192h.974c.028.106.084.358.17.758h.061c.376-.574.94-.861 1.692-.861.708 0 1.258.256 1.651.769.396.513.595 1.232.595 2.159 0 .926-.202 1.649-.605 2.168-.4.52-.954.78-1.661.78zm-.293-4.892c-.478 0-.829.141-1.051.421-.219.28-.328.728-.328 1.343v.18c0 .69.109 1.191.328 1.502.219.307.576.461 1.072.461.417 0 .738-.171.964-.513.225-.341.338-.828.338-1.461 0-.635-.113-1.116-.338-1.44-.223-.329-.551-.493-.985-.493zm5.163 4.789h-1.205v-5.67h1.205V371zm-1.276-7.173c0-.215.058-.381.174-.497.119-.116.289-.174.507-.174.212 0 .376.058.493.174.119.116.179.282.179.497 0 .205-.06.368-.179.487-.117.117-.281.175-.493.175-.218 0-.388-.058-.507-.175-.116-.119-.174-.282-.174-.487zm5.88 1.4c.243 0 .443.017.6.051l-.118 1.123a2.28 2.28 0 00-.533-.061c-.482 0-.873.157-1.174.471-.298.315-.446.723-.446 1.226V371h-1.205v-5.67h.943l.159.999h.062c.188-.338.432-.606.733-.805a1.76 1.76 0 01.979-.297zM253.46 371l-.241-.79h-.041c-.273.346-.549.582-.825.708-.277.123-.633.185-1.067.185-.557 0-.993-.151-1.307-.452-.311-.3-.467-.726-.467-1.276 0-.585.217-1.026.651-1.323.434-.297 1.096-.46 1.984-.487l.98-.031v-.302c0-.363-.086-.633-.257-.81-.167-.182-.429-.272-.784-.272-.291 0-.569.043-.836.128a6.302 6.302 0 00-.769.303l-.389-.862a4.13 4.13 0 011.01-.364 4.579 4.579 0 011.035-.128c.721 0 1.265.157 1.631.472.369.314.553.808.553 1.481V371h-.861zm-1.794-.82c.437 0 .787-.122 1.051-.364.266-.246.399-.59.399-1.031v-.492l-.728.031c-.567.02-.981.116-1.24.287-.257.167-.385.425-.385.774 0 .253.075.449.226.59.15.136.376.205.677.205zm6.449-.052c.294 0 .588-.046.882-.138v.907a2.313 2.313 0 01-.518.144 3.36 3.36 0 01-.651.062c-1.141 0-1.712-.602-1.712-1.805v-3.056h-.774v-.533l.83-.441.41-1.2h.744v1.262h1.615v.912h-1.615v3.035c0 .291.071.506.215.646a.807.807 0 00.574.205zm3.225.872h-1.205v-5.67h1.205V371zm-1.277-7.173c0-.215.059-.381.175-.497.119-.116.289-.174.507-.174.212 0 .376.058.493.174.119.116.179.282.179.497 0 .205-.06.368-.179.487-.117.117-.281.175-.493.175-.218 0-.388-.058-.507-.175-.116-.119-.175-.282-.175-.487zm8.034 4.328c0 .926-.237 1.649-.712 2.168-.475.52-1.137.78-1.984.78-.53 0-.998-.12-1.405-.359a2.367 2.367 0 01-.938-1.031c-.219-.448-.328-.967-.328-1.558 0-.92.235-1.638.707-2.154s1.137-.774 1.994-.774c.821 0 1.47.265 1.949.795.478.526.717 1.237.717 2.133zm-4.127 0c0 1.309.484 1.963 1.451 1.963.957 0 1.436-.654 1.436-1.963 0-1.296-.482-1.944-1.446-1.944-.506 0-.873.168-1.102.503-.226.335-.339.815-.339 1.441zM274.475 371h-1.21v-3.486c0-.438-.088-.764-.266-.98-.175-.215-.453-.323-.836-.323-.509 0-.882.151-1.118.452-.235.3-.353.805-.353 1.512V371h-1.205v-5.67h.943l.169.743h.062c.171-.27.413-.479.728-.625a2.438 2.438 0 011.046-.221c1.36 0 2.04.692 2.04 2.076V371z" fill="#38424B"/><path fill-rule="evenodd" clip-rule="evenodd" d="M283.5 371.5a4.5 4.5 0 100-9 4.5 4.5 0 000 9zm-.345-3.51a.446.446 0 010-.654c.155-.147.314-.273.501-.402.065-.045.219-.146.32-.213h.001l.091-.06c.352-.239.444-.38.444-.776 0-.581-.416-.96-1.012-.96-.6 0-1.013.375-1.013.96a.475.475 0 01-.487.462.475.475 0 01-.488-.462c0-1.105.859-1.885 1.988-1.885 1.126 0 1.987.785 1.987 1.885 0 .725-.263 1.129-.852 1.528a10.21 10.21 0 01-.121.08c-.1.066-.232.152-.283.188a3.138 3.138 0 00-.387.309.507.507 0 01-.689 0zm.345 2.01a.563.563 0 110-1.125.563.563 0 010 1.125z" fill="#81919D"/><path d="M58 382a3 3 0 013-3h309a3 3 0 013 3v18a3 3 0 01-3 3H61a3 3 0 01-3-3v-18z" fill="#fff"/><path d="M69.48 391.242c0 1.295-.204 2.263-.615 2.902-.406.639-1.03.959-1.87.959-.808 0-1.421-.327-1.841-.98-.42-.656-.631-1.616-.631-2.881 0-1.306.203-2.275.61-2.907.407-.632 1.027-.949 1.861-.949.814 0 1.43.33 1.851.99.424.66.636 1.615.636 2.866zm-4.096 0c0 1.09.129 1.885.385 2.384.256.496.665.743 1.225.743.567 0 .978-.251 1.23-.753.257-.506.385-1.297.385-2.374 0-1.077-.128-1.865-.384-2.364-.253-.502-.663-.753-1.23-.753-.561 0-.97.248-1.226.743-.257.492-.385 1.284-.385 2.374z" fill="#38424B"/><path d="M61 379.75h309v-1.5H61v1.5zM372.25 382v18h1.5v-18h-1.5zM370 402.25H61v1.5h309v-1.5zM58.75 400v-18h-1.5v18h1.5zm2.25 2.25a2.25 2.25 0 01-2.25-2.25h-1.5a3.75 3.75 0 003.75 3.75v-1.5zM372.25 400a2.25 2.25 0 01-2.25 2.25v1.5a3.75 3.75 0 003.75-3.75h-1.5zM370 379.75a2.25 2.25 0 012.25 2.25h1.5a3.75 3.75 0 00-3.75-3.75v1.5zm-309-1.5a3.75 3.75 0 00-3.75 3.75h1.5a2.25 2.25 0 012.25-2.25v-1.5z" fill="#81919D"/></g></g><g filter="url(#filter3_d)"><g clip-path="url(#clip3)"><rect x="58" y="152" width="315" height="108" rx="3" fill="#fff"/><path fill="#fff" d="M58 158h315v24H58z"/><path d="M360.807 166.752a.749.749 0 10-1.114-1.004l-6.249 6.943-3.192-2.873a.749.749 0 10-1.004 1.114l3.75 3.375a.75.75 0 001.059-.055l6.75-7.5z" fill="#0777CF"/><path d="M95.234 174h-1.502l-3.686-5.973h-.041l.025.333c.048.636.072 1.217.072 1.744V174H88.99v-7.496h1.486l3.676 5.943h.031c-.007-.079-.02-.364-.04-.857a29.335 29.335 0 01-.032-1.158v-3.928h1.123V174zm6.881-2.845c0 .926-.238 1.649-.713 2.168-.475.52-1.137.78-1.984.78-.53 0-.998-.12-1.405-.359a2.374 2.374 0 01-.938-1.031c-.219-.448-.328-.967-.328-1.558 0-.92.235-1.638.707-2.154s1.137-.774 1.995-.774c.82 0 1.469.265 1.948.795.478.526.718 1.237.718 2.133zm-4.128 0c0 1.309.484 1.963 1.451 1.963.957 0 1.436-.654 1.436-1.963 0-1.296-.482-1.944-1.446-1.944-.506 0-.873.168-1.102.503-.226.335-.339.815-.339 1.441zM111.01 174l-.749-2.082h-2.866l-.733 2.082h-1.292l2.805-7.526h1.333l2.804 7.526h-1.302zm-1.072-3.138l-.702-2.04a15.062 15.062 0 01-.4-1.292c-.092.42-.227.88-.405 1.379l-.677 1.953h2.184zm7.234 3.138l-.169-.743h-.061c-.168.263-.407.47-.718.62-.308.15-.66.226-1.056.226-.687 0-1.2-.171-1.538-.513-.339-.342-.508-.86-.508-1.554v-3.706h1.215v3.496c0 .434.089.761.267.979.177.216.456.323.835.323.506 0 .877-.15 1.113-.451.239-.304.359-.812.359-1.522v-2.825h1.21V174h-.949zm4.779-.872c.294 0 .588-.046.882-.138v.907a2.329 2.329 0 01-.518.144 3.375 3.375 0 01-.651.062c-1.142 0-1.713-.602-1.713-1.805v-3.056h-.774v-.533l.831-.441.41-1.2h.743v1.262h1.615v.912h-1.615v3.035c0 .291.072.506.215.646a.81.81 0 00.575.205zm7.008.872h-1.21v-3.486c0-.438-.089-.764-.266-.98-.175-.215-.453-.323-.836-.323-.506 0-.878.153-1.118.457-.236.301-.353.806-.353 1.517V174h-1.205v-7.978h1.205v2.026c0 .324-.021.671-.062 1.04h.077c.164-.273.391-.485.682-.635a2.215 2.215 0 011.025-.226c1.374 0 2.061.692 2.061 2.076V174zm4.153.103c-.882 0-1.572-.257-2.071-.77-.496-.516-.744-1.225-.744-2.127 0-.926.231-1.654.693-2.184.461-.53 1.095-.795 1.902-.795.748 0 1.339.227 1.774.682.434.455.651 1.08.651 1.876v.652h-3.779c.017.55.166.974.446 1.271.28.294.675.441 1.184.441.335 0 .646-.031.934-.092.29-.065.601-.171.933-.318v.979a3.71 3.71 0 01-.892.297 5.483 5.483 0 01-1.031.088zm-.22-4.963c-.383 0-.691.121-.923.364-.229.242-.366.596-.41 1.061h2.573c-.007-.468-.119-.822-.338-1.061-.219-.243-.52-.364-.902-.364zm8.782 4.86h-1.21v-3.486c0-.438-.089-.764-.266-.98-.175-.215-.453-.323-.836-.323-.509 0-.882.151-1.118.452-.236.3-.354.805-.354 1.512V174h-1.204v-5.67h.943l.169.743h.062c.171-.27.413-.479.728-.625a2.438 2.438 0 011.046-.221c1.36 0 2.04.692 2.04 2.076V174zm3.789-.872c.294 0 .588-.046.882-.138v.907a2.329 2.329 0 01-.518.144 3.375 3.375 0 01-.651.062c-1.142 0-1.713-.602-1.713-1.805v-3.056h-.774v-.533l.831-.441.41-1.2h.743v1.262h1.615v.912h-1.615v3.035c0 .291.072.506.216.646a.807.807 0 00.574.205zm3.225.872h-1.205v-5.67h1.205V174zm-1.277-7.173c0-.215.058-.381.174-.497.12-.116.289-.174.508-.174.212 0 .376.058.492.174.12.116.18.282.18.497 0 .205-.06.368-.18.487-.116.117-.28.175-.492.175-.219 0-.388-.058-.508-.175-.116-.119-.174-.282-.174-.487zm5.291 7.276c-.858 0-1.511-.25-1.958-.749-.445-.502-.667-1.222-.667-2.158 0-.954.233-1.687.697-2.2.469-.513 1.144-.769 2.026-.769.598 0 1.136.111 1.615.333l-.364.969c-.51-.198-.93-.297-1.262-.297-.981 0-1.471.651-1.471 1.953 0 .636.121 1.115.364 1.436.246.318.605.477 1.077.477.536 0 1.044-.134 1.522-.4v1.051a2.395 2.395 0 01-.692.272 4.146 4.146 0 01-.887.082zm6.46-.103l-.241-.79h-.041c-.273.346-.548.582-.825.708-.277.123-.633.185-1.067.185-.557 0-.993-.151-1.307-.452-.311-.3-.467-.726-.467-1.276 0-.585.217-1.026.651-1.323.435-.297 1.096-.46 1.985-.487l.979-.031v-.302c0-.363-.086-.633-.256-.81-.168-.182-.429-.272-.785-.272-.29 0-.569.043-.836.128a6.302 6.302 0 00-.769.303l-.389-.862a4.13 4.13 0 011.01-.364 4.579 4.579 0 011.035-.128c.722 0 1.265.157 1.631.472.369.314.553.808.553 1.481V174h-.861zm-1.794-.82c.437 0 .788-.122 1.051-.364.266-.246.4-.59.4-1.031v-.492l-.728.031c-.568.02-.981.116-1.241.287-.256.167-.385.425-.385.774 0 .253.076.449.226.59.15.136.376.205.677.205zm6.449-.052c.294 0 .588-.046.882-.138v.907a2.313 2.313 0 01-.518.144 3.36 3.36 0 01-.651.062c-1.141 0-1.712-.602-1.712-1.805v-3.056h-.774v-.533l.83-.441.41-1.2h.744v1.262h1.615v.912h-1.615v3.035c0 .291.072.506.215.646a.809.809 0 00.574.205zm3.225.872h-1.205v-5.67h1.205V174zm-1.276-7.173c0-.215.058-.381.174-.497.12-.116.289-.174.508-.174.211 0 .375.058.492.174.119.116.179.282.179.497 0 .205-.06.368-.179.487-.117.117-.281.175-.492.175-.219 0-.388-.058-.508-.175-.116-.119-.174-.282-.174-.487zm8.034 4.328c0 .926-.238 1.649-.713 2.168-.475.52-1.137.78-1.984.78-.53 0-.998-.12-1.405-.359a2.373 2.373 0 01-.938-1.031c-.219-.448-.328-.967-.328-1.558 0-.92.235-1.638.707-2.154s1.137-.774 1.995-.774c.82 0 1.469.265 1.948.795.478.526.718 1.237.718 2.133zm-4.128 0c0 1.309.484 1.963 1.451 1.963.957 0 1.436-.654 1.436-1.963 0-1.296-.482-1.944-1.446-1.944-.506 0-.873.168-1.102.503-.226.335-.339.815-.339 1.441zM180.177 174h-1.209v-3.486c0-.438-.089-.764-.267-.98-.174-.215-.453-.323-.836-.323-.509 0-.882.151-1.117.452-.236.3-.354.805-.354 1.512V174h-1.205v-5.67h.943l.17.743h.061c.171-.27.414-.479.728-.625a2.441 2.441 0 011.046-.221c1.36 0 2.04.692 2.04 2.076V174z" fill="#076DBD"/><path fill-rule="evenodd" clip-rule="evenodd" d="M76 176a6 6 0 110-12 6 6 0 010 12zm3.668-3.393a4.5 4.5 0 00-6.275-6.275l6.275 6.275zm-1.06 1.061a4.5 4.5 0 01-6.275-6.275l6.274 6.275z" fill="#0777CF"/><path fill="#fff" d="M58 182h315v24H58z"/><path d="M93.783 192.688c0 .759-.26 1.344-.78 1.754-.515.407-1.255.61-2.22.61h-.88V198h-.873v-7.496h1.944c1.873 0 2.81.728 2.81 2.184zm-3.88 1.615h.783c.773 0 1.332-.124 1.677-.374.345-.249.518-.649.518-1.2 0-.495-.162-.864-.487-1.107-.325-.243-.83-.364-1.518-.364h-.974v3.045zM98.684 198l-.17-.8h-.04c-.28.352-.561.592-.841.718-.277.123-.624.185-1.041.185-.557 0-.995-.144-1.313-.431-.314-.287-.471-.696-.471-1.225 0-1.135.907-1.73 2.722-1.785l.954-.03v-.349c0-.441-.096-.766-.287-.974-.188-.212-.491-.318-.908-.318-.468 0-.998.144-1.59.431l-.26-.651c.276-.151.579-.269.907-.354.331-.086.663-.128.994-.128.67 0 1.166.148 1.487.446.325.297.487.774.487 1.43V198h-.63zm-1.923-.6c.53 0 .945-.145 1.246-.436.304-.29.456-.697.456-1.22v-.507l-.851.035c-.677.024-1.165.13-1.466.318-.298.185-.446.474-.446.867 0 .307.092.542.277.702.188.161.449.241.784.241zm7.936-.933c0 .523-.194.926-.584 1.21-.39.284-.937.426-1.641.426-.745 0-1.326-.118-1.743-.354v-.79c.27.137.559.245.867.323.311.079.61.118.897.118.444 0 .786-.07 1.025-.21a.709.709 0 00.359-.651c0-.219-.096-.405-.287-.559-.188-.157-.557-.342-1.107-.554-.523-.195-.896-.364-1.118-.507a1.572 1.572 0 01-.492-.498 1.304 1.304 0 01-.159-.661c0-.458.186-.819.559-1.082.372-.266.883-.4 1.533-.4.605 0 1.196.123 1.774.369l-.303.693c-.564-.233-1.075-.349-1.533-.349-.403 0-.707.063-.912.19-.206.126-.308.3-.308.523 0 .15.038.278.113.384.078.106.203.207.374.303.171.095.499.234.984.415.667.243 1.116.487 1.349.733.236.246.353.555.353.928zm5.015 0c0 .523-.195.926-.585 1.21-.389.284-.936.426-1.64.426-.746 0-1.327-.118-1.744-.354v-.79c.27.137.559.245.867.323.311.079.61.118.897.118.444 0 .786-.07 1.025-.21a.709.709 0 00.359-.651c0-.219-.095-.405-.287-.559-.188-.157-.557-.342-1.107-.554-.523-.195-.896-.364-1.118-.507a1.572 1.572 0 01-.492-.498 1.304 1.304 0 01-.159-.661c0-.458.186-.819.559-1.082.372-.266.883-.4 1.533-.4.605 0 1.196.123 1.774.369l-.303.693c-.564-.233-1.075-.349-1.533-.349-.403 0-.707.063-.912.19-.205.126-.308.3-.308.523 0 .15.038.278.113.384.078.106.203.207.374.303.171.095.499.234.985.415.666.243 1.115.487 1.348.733.236.246.354.555.354.928zM115.69 198l-1.031-3.297a27.76 27.76 0 01-.364-1.374h-.041a18.79 18.79 0 01-.359 1.385l-1.06 3.286h-.984l-1.533-5.619h.892c.362 1.411.637 2.486.825 3.225.192.738.301 1.235.328 1.492h.041a13.755 13.755 0 01.4-1.492l1.031-3.225h.923l1.004 3.225c.192.588.322 1.081.39 1.481h.041c.014-.123.05-.312.108-.569.061-.256.418-1.635 1.071-4.137h.882L116.701 198h-1.01zm8.434-2.815c0 .916-.231 1.632-.693 2.148-.461.513-1.098.77-1.912.77-.502 0-.948-.118-1.338-.354a2.326 2.326 0 01-.902-1.015c-.212-.441-.318-.957-.318-1.549 0-.916.229-1.628.687-2.138.458-.512 1.093-.769 1.907-.769.786 0 1.41.262 1.871.785.465.523.698 1.23.698 2.122zm-4.281 0c0 .718.143 1.265.43 1.641.287.376.709.564 1.267.564.557 0 .979-.186 1.266-.559.29-.376.436-.925.436-1.646 0-.714-.146-1.256-.436-1.625-.287-.373-.713-.559-1.277-.559-.557 0-.977.183-1.261.549-.284.366-.425.911-.425 1.635zm8.341-2.907c.25 0 .473.021.672.062l-.118.789a2.926 2.926 0 00-.615-.077c-.455 0-.845.185-1.169.554-.322.369-.482.829-.482 1.379V198h-.851v-5.619h.702l.097 1.041h.041a2.47 2.47 0 01.754-.846c.294-.199.617-.298.969-.298zm5.547 4.968h-.046c-.393.571-.981.857-1.763.857-.735 0-1.308-.252-1.718-.754-.407-.503-.61-1.217-.61-2.143 0-.926.205-1.646.615-2.159.41-.512.981-.769 1.713-.769.762 0 1.346.277 1.753.831h.067l-.036-.405-.021-.395v-2.287h.851V198h-.692l-.113-.754zm-1.702.144c.581 0 1.002-.157 1.262-.472.263-.318.394-.829.394-1.533v-.179c0-.797-.133-1.364-.4-1.702-.263-.342-.685-.513-1.266-.513-.499 0-.882.195-1.148.584-.264.387-.395.934-.395 1.641 0 .718.131 1.26.395 1.625.263.366.649.549 1.158.549z" fill="#38424B"/><path fill-rule="evenodd" clip-rule="evenodd" d="M79.75 191.75A3.754 3.754 0 0076 188a3.754 3.754 0 00-3.75 3.75c-.827 0-1.5.673-1.5 1.5v5.25c0 .828.673 1.5 1.5 1.5h7.5a1.5 1.5 0 001.5-1.5v-5.25c0-.827-.672-1.5-1.5-1.5zM76 189.5c1.24 0 2.25 1.01 2.25 2.25h-4.5c0-1.24 1.01-2.25 2.25-2.25zm-3.75 9h7.498l.002-5.25h-7.5v5.25z" fill="#546470"/><path fill="#fff" d="M58 206h315v24H58z"/><path d="M91.338 222h-.872v-6.721h-2.374v-.775h5.62v.775h-2.374V222zm5.752.103c-.83 0-1.487-.253-1.969-.759-.478-.506-.717-1.209-.717-2.107 0-.906.222-1.626.666-2.159.448-.533 1.048-.8 1.8-.8.704 0 1.26.233 1.671.698.41.461.615 1.071.615 1.83v.538h-3.87c.016.66.182 1.161.497 1.502.318.342.764.513 1.338.513a4.52 4.52 0 001.794-.379v.759a4.34 4.34 0 01-.856.276c-.266.058-.59.088-.969.088zm-.23-5.112c-.452 0-.812.147-1.082.441-.267.294-.424.701-.472 1.22h2.938c0-.537-.12-.947-.36-1.23-.239-.287-.58-.431-1.025-.431zm5.106 2.133l-1.954-2.743h.969l1.482 2.153 1.477-2.153h.958l-1.953 2.743 2.056 2.876h-.964l-1.574-2.276-1.589 2.276h-.964l2.056-2.876zm5.968 2.276a2.93 2.93 0 00.769-.102v.651c-.093.044-.229.08-.411.107a2.822 2.822 0 01-.481.047c-1.087 0-1.631-.573-1.631-1.718v-3.343h-.805v-.41l.805-.354.359-1.199h.492v1.302h1.631v.661h-1.631v3.307c0 .338.081.598.241.779.161.182.381.272.662.272zm8.069.6l-2.543-6.645h-.041c.048.527.072 1.152.072 1.877V222h-.805v-7.496h1.313l2.374 6.183h.041l2.394-6.183h1.302V222h-.871v-4.83c0-.553.023-1.155.071-1.804h-.041L116.706 222h-.703zm8.414.103c-.831 0-1.487-.253-1.969-.759-.479-.506-.718-1.209-.718-2.107 0-.906.222-1.626.667-2.159.447-.533 1.047-.8 1.799-.8.704 0 1.262.233 1.672.698.41.461.615 1.071.615 1.83v.538h-3.871c.017.66.183 1.161.497 1.502.318.342.764.513 1.339.513.604 0 1.203-.126 1.794-.379v.759a4.362 4.362 0 01-.856.276 4.63 4.63 0 01-.969.088zm-.231-5.112c-.451 0-.812.147-1.082.441-.266.294-.424.701-.471 1.22h2.937c0-.537-.119-.947-.359-1.23-.239-.287-.581-.431-1.025-.431zm7.378 3.476c0 .523-.195.926-.585 1.21-.389.284-.936.426-1.64.426-.745 0-1.327-.118-1.744-.354v-.79c.27.137.559.245.867.323.311.079.61.118.897.118.444 0 .786-.07 1.026-.21a.71.71 0 00.358-.651c0-.219-.095-.405-.287-.559-.188-.157-.557-.342-1.107-.554-.523-.195-.896-.364-1.118-.507a1.572 1.572 0 01-.492-.498 1.304 1.304 0 01-.159-.661c0-.458.186-.819.559-1.082.372-.266.883-.4 1.533-.4.605 0 1.196.123 1.774.369l-.303.693c-.564-.233-1.075-.349-1.533-.349-.403 0-.707.063-.912.19-.205.126-.308.3-.308.523 0 .15.038.278.113.384.079.106.203.207.374.303.171.095.499.234.985.415.666.243 1.116.487 1.348.733.236.246.354.555.354.928zm5.014 0c0 .523-.195.926-.585 1.21-.389.284-.936.426-1.64.426-.745 0-1.326-.118-1.743-.354v-.79c.27.137.558.245.866.323.311.079.61.118.897.118.445 0 .786-.07 1.026-.21a.71.71 0 00.359-.651c0-.219-.096-.405-.288-.559-.188-.157-.557-.342-1.107-.554-.523-.195-.895-.364-1.118-.507a1.593 1.593 0 01-.492-.498 1.304 1.304 0 01-.159-.661c0-.458.187-.819.559-1.082.373-.266.884-.4 1.533-.4.605 0 1.196.123 1.774.369l-.303.693c-.563-.233-1.074-.349-1.532-.349-.404 0-.708.063-.913.19-.205.126-.308.3-.308.523 0 .15.038.278.113.384.079.106.203.207.374.303.171.095.499.234.985.415.666.243 1.116.487 1.348.733.236.246.354.555.354.928zm4.845 1.533l-.169-.8h-.041c-.281.352-.561.592-.841.718-.277.123-.624.185-1.041.185-.557 0-.995-.144-1.312-.431-.315-.287-.472-.696-.472-1.225 0-1.135.907-1.73 2.722-1.785l.954-.03v-.349c0-.441-.096-.766-.287-.974-.188-.212-.491-.318-.908-.318-.468 0-.998.144-1.589.431l-.262-.651a3.97 3.97 0 01.908-.354c.332-.086.663-.128.995-.128.67 0 1.165.148 1.486.446.325.297.487.774.487 1.43V222h-.63zm-1.923-.6c.53 0 .945-.145 1.246-.436.304-.29.456-.697.456-1.22v-.507l-.851.035c-.676.024-1.165.13-1.466.318-.297.185-.446.474-.446.867 0 .307.092.542.277.702.188.161.449.241.784.241zm8.911-5.019v.538l-1.041.123c.096.12.181.277.256.472.076.191.113.408.113.651 0 .55-.188.99-.564 1.318-.376.328-.892.492-1.548.492-.168 0-.325-.014-.472-.041-.362.191-.543.432-.543.723 0 .154.063.268.19.343.126.072.343.108.651.108h.994c.609 0 1.075.128 1.4.384.328.257.492.629.492 1.118 0 .622-.249 1.096-.748 1.42-.499.328-1.227.492-2.185.492-.734 0-1.302-.136-1.702-.41-.396-.273-.594-.659-.594-1.158 0-.342.109-.638.328-.887.218-.25.526-.419.923-.508a.91.91 0 01-.364-.302.81.81 0 01-.144-.477.91.91 0 01.164-.539c.109-.153.282-.302.518-.446a1.53 1.53 0 01-.713-.61 1.805 1.805 0 01-.271-.984c0-.615.184-1.089.553-1.42.369-.335.892-.503 1.569-.503.294 0 .559.034.795.103h1.943zm-4.481 6.562c0 .305.128.535.384.692.257.158.624.236 1.103.236.714 0 1.242-.107 1.584-.323.345-.212.518-.5.518-.866 0-.304-.094-.516-.282-.636-.188-.116-.542-.174-1.061-.174h-1.021c-.386 0-.687.092-.902.277-.215.184-.323.449-.323.794zm.461-4.763c0 .393.111.691.334.893.222.201.531.302.928.302.83 0 1.245-.403 1.245-1.21 0-.844-.42-1.266-1.261-1.266-.4 0-.707.107-.923.323-.215.215-.323.535-.323.958zm7.547 3.923c-.83 0-1.487-.253-1.969-.759-.478-.506-.717-1.209-.717-2.107 0-.906.222-1.626.666-2.159.448-.533 1.048-.8 1.8-.8.704 0 1.261.233 1.671.698.41.461.615 1.071.615 1.83v.538h-3.87c.017.66.182 1.161.497 1.502.318.342.764.513 1.338.513a4.52 4.52 0 001.794-.379v.759a4.34 4.34 0 01-.856.276 4.616 4.616 0 01-.969.088zm-.23-5.112c-.452 0-.812.147-1.082.441-.267.294-.424.701-.472 1.22h2.938c0-.537-.12-.947-.359-1.23-.239-.287-.581-.431-1.025-.431zm5.998 2.133c0-.906.132-1.754.395-2.543a6.348 6.348 0 011.148-2.077h.831a7.303 7.303 0 00-1.113 2.174 8.146 8.146 0 00-.369 2.436c0 .82.127 1.621.38 2.404a7.415 7.415 0 001.092 2.143h-.821a6.042 6.042 0 01-1.148-2.035 7.745 7.745 0 01-.395-2.502zm7.947.882c0 .659-.239 1.174-.718 1.543-.478.369-1.128.554-1.948.554-.889 0-1.572-.115-2.051-.344v-.841c.308.13.643.233 1.005.308.362.075.721.113 1.077.113.581 0 1.018-.11 1.312-.329.294-.222.441-.529.441-.922 0-.26-.053-.472-.159-.636-.102-.168-.277-.321-.523-.462-.243-.14-.613-.299-1.112-.476-.698-.25-1.197-.545-1.498-.887-.297-.342-.446-.788-.446-1.338 0-.578.217-1.038.652-1.38.434-.341 1.008-.512 1.722-.512.745 0 1.431.136 2.056.41l-.272.759c-.618-.26-1.22-.39-1.804-.39-.462 0-.822.099-1.082.297-.26.199-.39.474-.39.826 0 .26.048.473.144.641.096.164.256.316.482.456.229.137.577.289 1.046.456.786.281 1.326.581 1.62.903.297.321.446.738.446 1.251zm4.85 1.994l-2.543-6.645h-.041c.048.527.072 1.152.072 1.877V222h-.805v-7.496h1.312l2.374 6.183h.041l2.394-6.183h1.303V222h-.872v-4.83c0-.553.024-1.155.072-1.804h-.041L171.205 222h-.702zm10.397-1.994c0 .659-.239 1.174-.717 1.543-.479.369-1.128.554-1.949.554-.888 0-1.572-.115-2.05-.344v-.841c.307.13.642.233 1.004.308.363.075.722.113 1.077.113.581 0 1.019-.11 1.313-.329.294-.222.441-.529.441-.922 0-.26-.053-.472-.159-.636-.103-.168-.277-.321-.523-.462-.243-.14-.614-.299-1.113-.476-.697-.25-1.196-.545-1.497-.887-.297-.342-.446-.788-.446-1.338 0-.578.217-1.038.651-1.38.434-.341 1.008-.512 1.723-.512.745 0 1.43.136 2.056.41l-.272.759c-.619-.26-1.22-.39-1.805-.39-.461 0-.822.099-1.082.297-.259.199-.389.474-.389.826 0 .26.048.473.143.641.096.164.257.316.482.456.229.137.578.289 1.046.456.786.281 1.326.581 1.62.903.298.321.446.738.446 1.251zm3.189-.882a7.67 7.67 0 01-.4 2.512 5.968 5.968 0 01-1.143 2.025h-.82a7.386 7.386 0 001.092-2.138 7.815 7.815 0 00.379-2.409c0-.834-.124-1.646-.374-2.436a7.195 7.195 0 00-1.107-2.174h.83a6.3 6.3 0 011.149 2.087c.263.79.394 1.634.394 2.533z" fill="#38424B"/><path fill-rule="evenodd" clip-rule="evenodd" d="M73.31 221.75l-2.03 2.03a.75.75 0 01-1.28-.53v-6.75a3.75 3.75 0 013.75-3.75h4.5A3.75 3.75 0 0182 216.5v1.5a3.75 3.75 0 01-3.75 3.75h-4.94zm-1.81-.311l.97-.969a.749.749 0 01.53-.22h5.25A2.25 2.25 0 0080.5 218v-1.5a2.25 2.25 0 00-2.25-2.25h-4.5a2.25 2.25 0 00-2.25 2.25v4.939zM73.75 218a.75.75 0 100-1.5.75.75 0 000 1.5zm3-.75a.75.75 0 11-1.5 0 .75.75 0 011.5 0zm1.5.75a.75.75 0 100-1.5.75.75 0 000 1.5z" fill="#546470"/><path fill="#fff" d="M58 230h315v24H58z"/><path d="M93.783 240.688c0 .759-.26 1.344-.78 1.754-.515.407-1.255.61-2.22.61h-.88V246h-.873v-7.496h1.944c1.873 0 2.81.728 2.81 2.184zm-3.88 1.615h.783c.773 0 1.332-.124 1.677-.374.345-.249.518-.649.518-1.2 0-.495-.162-.864-.487-1.107-.325-.243-.83-.364-1.518-.364h-.974v3.045zm9.17 3.697v-3.635c0-.458-.104-.8-.313-1.025-.208-.226-.534-.339-.979-.339-.591 0-1.023.161-1.297.482-.27.321-.405.848-.405 1.579V246h-.851v-7.978h.851v2.415a5.5 5.5 0 01-.04.723h.05c.168-.27.405-.482.713-.636a2.323 2.323 0 011.061-.235c.687 0 1.202.164 1.543.492.346.324.518.842.518 1.553V246h-.85zm7.455-2.815c0 .916-.231 1.632-.692 2.148-.462.513-1.099.77-1.913.77-.502 0-.948-.118-1.338-.354a2.339 2.339 0 01-.902-1.015c-.212-.441-.318-.957-.318-1.549 0-.916.229-1.628.687-2.138.458-.512 1.094-.769 1.907-.769.786 0 1.41.262 1.872.785.464.523.697 1.23.697 2.122zm-4.281 0c0 .718.143 1.265.43 1.641.288.376.71.564 1.267.564.557 0 .979-.186 1.266-.559.291-.376.436-.925.436-1.646 0-.714-.145-1.256-.436-1.625-.287-.373-.712-.559-1.276-.559-.558 0-.978.183-1.262.549-.283.366-.425.911-.425 1.635zM111.87 246v-3.635c0-.458-.104-.8-.313-1.025-.208-.226-.535-.339-.979-.339-.588 0-1.018.159-1.292.477-.273.318-.41.843-.41 1.574V246h-.851v-5.619h.692l.138.769h.041a1.72 1.72 0 01.734-.641 2.354 2.354 0 011.051-.231c.676 0 1.186.164 1.527.493.342.324.513.845.513 1.563V246h-.851zm4.978.103c-.83 0-1.486-.253-1.968-.759-.479-.506-.718-1.209-.718-2.107 0-.906.222-1.626.666-2.159.448-.533 1.048-.8 1.8-.8.704 0 1.261.233 1.671.698.41.461.616 1.071.616 1.83v.538h-3.871c.017.66.183 1.161.497 1.502.318.342.764.513 1.338.513a4.53 4.53 0 001.795-.379v.759a4.37 4.37 0 01-.857.276 4.616 4.616 0 01-.969.088zm-.23-5.112c-.452 0-.812.147-1.082.441-.267.294-.424.701-.472 1.22h2.938c0-.537-.12-.947-.359-1.23-.239-.287-.581-.431-1.025-.431zm9.818-1.815c-.824 0-1.475.275-1.954.825-.475.547-.712 1.298-.712 2.251 0 .981.229 1.74.687 2.277.461.533 1.117.799 1.969.799.522 0 1.119-.094 1.789-.282v.764c-.52.195-1.161.293-1.923.293-1.104 0-1.957-.335-2.558-1.005-.598-.67-.897-1.622-.897-2.856 0-.773.143-1.449.43-2.03a3.141 3.141 0 011.251-1.344c.547-.314 1.19-.471 1.928-.471.786 0 1.473.143 2.061.43l-.369.749a3.966 3.966 0 00-1.702-.4zm6.742 6.824l-.169-.8h-.041c-.281.352-.561.592-.841.718-.277.123-.624.185-1.041.185-.557 0-.995-.144-1.313-.431-.314-.287-.471-.696-.471-1.225 0-1.135.907-1.73 2.722-1.785l.954-.03v-.349c0-.441-.096-.766-.287-.974-.188-.212-.491-.318-.908-.318-.468 0-.998.144-1.589.431l-.262-.651a3.97 3.97 0 01.908-.354c.331-.086.663-.128.994-.128.67 0 1.166.148 1.487.446.325.297.487.774.487 1.43V246h-.63zm-1.923-.6c.53 0 .945-.145 1.246-.436.304-.29.456-.697.456-1.22v-.507l-.851.035c-.677.024-1.165.13-1.466.318-.297.185-.446.474-.446.867 0 .307.092.542.277.702.188.161.449.241.784.241zm5.163.6h-.851v-7.978h.851V246zm2.656 0h-.851v-7.978h.851V246z" fill="#38424B"/><path d="M75.326 242.425l.229.405c.369.642.96 1.587 1.504 1.379l.073-.036.613-.36a1.4 1.4 0 011.876.436l.056.091.353.623a.728.728 0 01-.19.937l-.069.046-1.224.72c-1.225.719-3.524-.455-4.924-2.923-1.4-2.469-1.25-5.082-.026-5.802l1.225-.719a.7.7 0 01.966.263l.353.623c.39.688.16 1.569-.517 1.966l-.613.36c-.54.317-.043 1.342.315 1.991z" fill="#546470"/></g></g></g><path d="M356.5 195.5L354 197v-3l-2-2 3-.5 1.5-2.5 1.5 2.5 3 .5-2 2v3l-2.5-1.5zm0 24.5l-2.5 1v-3l-2-2 3-.5 1.5-2.5 1.5 2.5 3 .5-2 2v3l-2.5-1zm0 24l-2.5 1v-3l-2-2 3-.5 1.5-2.5 1.5 2.5 3 .5-2 2v3l-2.5-1z" fill="#FF9000"/></g><defs><clipPath id="clip0"><rect x="40" y="32" width="351" height="454" rx="6" fill="#fff"/></clipPath><clipPath id="clip1"><path fill="#fff" transform="translate(40 32)" d="M0 0h351v371H0z"/></clipPath><clipPath id="clip2"><path fill="#fff" transform="translate(58 104)" d="M0 0h315v392H0z"/></clipPath><clipPath id="clip3"><rect x="58" y="152" width="315" height="108" rx="3" fill="#fff"/></clipPath><filter id="filter0_d" x="0" y="0" width="431" height="534" filterUnits="userSpaceOnUse" color-interpolation-filters="sRGB"><feFlood flood-opacity="0" result="BackgroundImageFix"/><feColorMatrix in="SourceAlpha" values="0 0 0 0 0 0 0 0 0 0 0 0 0 0 0 0 0 0 127 0" result="hardAlpha"/><feOffset dy="8"/><feGaussianBlur stdDeviation="20"/><feColorMatrix values="0 0 0 0 0 0 0 0 0 0 0 0 0 0 0 0 0 0 0.1 0"/><feBlend in2="BackgroundImageFix" result="effect1_dropShadow"/><feBlend in="SourceGraphic" in2="effect1_dropShadow" result="shape"/></filter><filter id="filter1_d" x="34" y="421.5" width="363" height="72" filterUnits="userSpaceOnUse" color-interpolation-filters="sRGB"><feFlood flood-opacity="0" result="BackgroundImageFix"/><feColorMatrix in="SourceAlpha" values="0 0 0 0 0 0 0 0 0 0 0 0 0 0 0 0 0 0 127 0" result="hardAlpha"/><feOffset dy="1.5"/><feGaussianBlur stdDeviation="3"/><feColorMatrix values="0 0 0 0 0.184314 0 0 0 0 0.215686 0 0 0 0 0.243137 0 0 0 0.2 0"/><feBlend in2="BackgroundImageFix" result="effect1_dropShadow"/><feBlend in="SourceGraphic" in2="effect1_dropShadow" result="shape"/></filter><filter id="filter2_i" x="40" y="32" width="351" height="54" filterUnits="userSpaceOnUse" color-interpolation-filters="sRGB"><feFlood flood-opacity="0" result="BackgroundImageFix"/><feBlend in="SourceGraphic" in2="BackgroundImageFix" result="shape"/><feColorMatrix in="SourceAlpha" values="0 0 0 0 0 0 0 0 0 0 0 0 0 0 0 0 0 0 127 0" result="hardAlpha"/><feOffset dy="-.75"/><feComposite in2="hardAlpha" operator="arithmetic" k2="-1" k3="1"/><feColorMatrix values="0 0 0 0 0.890196 0 0 0 0 0.901961 0 0 0 0 0.913725 0 0 0 1 0"/><feBlend in2="shape" result="effect1_innerShadow"/></filter><filter id="filter3_d" x="52" y="147.5" width="327" height="120" filterUnits="userSpaceOnUse" color-interpolation-filters="sRGB"><feFlood flood-opacity="0" result="BackgroundImageFix"/><feColorMatrix in="SourceAlpha" values="0 0 0 0 0 0 0 0 0 0 0 0 0 0 0 0 0 0 127 0" result="hardAlpha"/><feOffset dy="1.5"/><feGaussianBlur stdDeviation="3"/><feColorMatrix values="0 0 0 0 0.184314 0 0 0 0 0.215686 0 0 0 0 0.243137 0 0 0 0.2 0"/><feBlend in2="BackgroundImageFix" result="effect1_dropShadow"/><feBlend in="SourceGraphic" in2="effect1_dropShadow" result="shape"/></filter></defs></svg>